STARTFONT 2.1
FONT -heatherly-shrike-medium-r-normal--10-100-75-75-c-60-iso8859-1
SIZE 10 75 75
FONTBOUNDINGBOX 6 10 0 -2

STARTPROPERTIES 23
  FONTNAME_REGISTRY ""
  FOUNDRY           "heatherly"
  FAMILY_NAME       "shrike"
  WEIGHT_NAME       "medium"
  SLANT             "r"
  SETWIDTH_NAME     "normal"
  ADD_STYLE_NAME    ""
  PIXEL_SIZE        "10"
  POINT_SIZE        "100"
  RESOLUTION_X      "75"
  RESOLUTION_Y      "75"
  SPACING           "c"
  AVERAGE_WIDTH     "60"
  CHARSET_REGISTRY  "iso8859"
  CHARSET_ENCODING  "1"
  COPYRIGHT         "none"
  CAP_HEIGHT        7
  X_HEIGHT          5
  WEIGHT            10
  RESOLUTION        103
  QUAD_WIDTH        6
  FONT_ASCENT       8
  FONT_DESCENT      2
ENDPROPERTIES

CHARS 256

STARTCHAR NUL
ENCODING 0
SWIDTH 576 0
DWIDTH 6 0
BBX 6 10 0 -2
BITMAP
0000
0000
0000
0000
0000
0000
0000
0000
0000
0000
ENDCHAR

STARTCHAR SCH
ENCODING 1
SWIDTH 576 0
DWIDTH 6 0
BBX 6 10 0 -2
BITMAP
0000
0000
0000
0000
0000
0000
0000
0000
0000
0000
ENDCHAR

STARTCHAR STX
ENCODING 2
SWIDTH 576 0
DWIDTH 6 0
BBX 6 10 0 -2
BITMAP
0000
0000
0000
0000
0000
0000
0000
0000
0000
0000
ENDCHAR

STARTCHAR ETX
ENCODING 3
SWIDTH 576 0
DWIDTH 6 0
BBX 6 10 0 -2
BITMAP
0000
0000
0000
0000
0000
0000
0000
0000
0000
0000
ENDCHAR

STARTCHAR EOT
ENCODING 4
SWIDTH 576 0
DWIDTH 6 0
BBX 6 10 0 -2
BITMAP
0000
0000
0000
0000
0000
0000
0000
0000
0000
0000
ENDCHAR

STARTCHAR ENQ
ENCODING 5
SWIDTH 576 0
DWIDTH 6 0
BBX 6 10 0 -2
BITMAP
0000
0000
0000
0000
0000
0000
0000
0000
0000
0000
ENDCHAR

STARTCHAR ACK
ENCODING 6
SWIDTH 576 0
DWIDTH 6 0
BBX 6 10 0 -2
BITMAP
0000
0000
0000
0000
0000
0000
0000
0000
0000
0000
ENDCHAR

STARTCHAR BEL
ENCODING 7
SWIDTH 576 0
DWIDTH 6 0
BBX 6 10 0 -2
BITMAP
0000
0000
0000
0000
0000
0000
0000
0000
0000
0000
ENDCHAR

STARTCHAR BS
ENCODING 8
SWIDTH 576 0
DWIDTH 6 0
BBX 6 10 0 -2
BITMAP
0000
0000
0000
0000
0000
0000
0000
0000
0000
0000
ENDCHAR

STARTCHAR tab
ENCODING 9
SWIDTH 576 0
DWIDTH 6 0
BBX 6 10 0 -2
BITMAP
0000
0000
0000
0000
0000
0000
0000
0000
0000
0000
ENDCHAR

STARTCHAR return
ENCODING 10
SWIDTH 576 0
DWIDTH 6 0
BBX 6 10 0 -2
BITMAP
0000
0000
0000
0000
0000
0000
0000
0000
0000
0000
ENDCHAR

STARTCHAR VT
ENCODING 11
SWIDTH 576 0
DWIDTH 6 0
BBX 6 10 0 -2
BITMAP
0000
0000
0000
0000
0000
0000
0000
0000
0000
0000
ENDCHAR

STARTCHAR FF
ENCODING 12
SWIDTH 576 0
DWIDTH 6 0
BBX 6 10 0 -2
BITMAP
0000
0000
0000
0000
0000
0000
0000
0000
0000
0000
ENDCHAR

STARTCHAR enter
ENCODING 13
SWIDTH 576 0
DWIDTH 6 0
BBX 6 10 0 -2
BITMAP
0000
0000
0000
0000
0000
0000
0000
0000
0000
0000
ENDCHAR

STARTCHAR SO
ENCODING 14
SWIDTH 576 0
DWIDTH 6 0
BBX 6 10 0 -2
BITMAP
0000
0000
0000
0000
0000
0000
0000
0000
0000
0000
ENDCHAR

STARTCHAR SI
ENCODING 15
SWIDTH 576 0
DWIDTH 6 0
BBX 6 10 0 -2
BITMAP
0000
0000
0000
0000
0000
0000
0000
0000
0000
0000
ENDCHAR

STARTCHAR DLE
ENCODING 16
SWIDTH 576 0
DWIDTH 6 0
BBX 6 10 0 -2
BITMAP
0000
0000
0000
0000
0000
0000
0000
0000
0000
0000
ENDCHAR

STARTCHAR DC1
ENCODING 17
SWIDTH 576 0
DWIDTH 6 0
BBX 6 10 0 -2
BITMAP
0000
0000
0000
0000
0000
0000
0000
0000
0000
0000
ENDCHAR

STARTCHAR DC2
ENCODING 18
SWIDTH 576 0
DWIDTH 6 0
BBX 6 10 0 -2
BITMAP
0000
0000
0000
0000
0000
0000
0000
0000
0000
0000
ENDCHAR

STARTCHAR DC3
ENCODING 19
SWIDTH 576 0
DWIDTH 6 0
BBX 6 10 0 -2
BITMAP
0000
0000
0000
0000
0000
0000
0000
0000
0000
0000
ENDCHAR

STARTCHAR DC4
ENCODING 20
SWIDTH 576 0
DWIDTH 6 0
BBX 6 10 0 -2
BITMAP
0000
0000
0000
0000
0000
0000
0000
0000
0000
0000
ENDCHAR

STARTCHAR NAK
ENCODING 21
SWIDTH 576 0
DWIDTH 6 0
BBX 6 10 0 -2
BITMAP
0000
0000
0000
0000
0000
0000
0000
0000
0000
0000
ENDCHAR

STARTCHAR SYN
ENCODING 22
SWIDTH 576 0
DWIDTH 6 0
BBX 6 10 0 -2
BITMAP
0000
0000
0000
0000
0000
0000
0000
0000
0000
0000
ENDCHAR

STARTCHAR ETB
ENCODING 23
SWIDTH 576 0
DWIDTH 6 0
BBX 6 10 0 -2
BITMAP
0000
0000
0000
0000
0000
0000
0000
0000
0000
0000
ENDCHAR

STARTCHAR CAN
ENCODING 24
SWIDTH 576 0
DWIDTH 6 0
BBX 6 10 0 -2
BITMAP
0000
0000
0000
0000
0000
0000
0000
0000
0000
0000
ENDCHAR

STARTCHAR EM
ENCODING 25
SWIDTH 576 0
DWIDTH 6 0
BBX 6 10 0 -2
BITMAP
0000
0000
0000
0000
0000
0000
0000
0000
0000
0000
ENDCHAR

STARTCHAR SUB
ENCODING 26
SWIDTH 576 0
DWIDTH 6 0
BBX 6 10 0 -2
BITMAP
0000
0000
0000
0000
0000
0000
0000
0000
0000
0000
ENDCHAR

STARTCHAR escape
ENCODING 27
SWIDTH 576 0
DWIDTH 6 0
BBX 6 10 0 -2
BITMAP
0000
0000
0000
0000
0000
0000
0000
0000
0000
0000
ENDCHAR

STARTCHAR file
ENCODING 28
SWIDTH 576 0
DWIDTH 6 0
BBX 6 10 0 -2
BITMAP
0000
0000
0000
0000
0000
0000
0000
0000
0000
0000
ENDCHAR

STARTCHAR group
ENCODING 29
SWIDTH 576 0
DWIDTH 6 0
BBX 6 10 0 -2
BITMAP
0000
7000
7000
7000
0000
7000
7000
7000
0000
0000
ENDCHAR

STARTCHAR record
ENCODING 30
SWIDTH 576 0
DWIDTH 6 0
BBX 6 10 0 -2
BITMAP
0000
0000
0000
0000
0000
0000
0000
0000
0000
0000
ENDCHAR

STARTCHAR field
ENCODING 31
SWIDTH 576 0
DWIDTH 6 0
BBX 6 10 0 -2
BITMAP
0000
7000
8000
E000
F000
7800
3800
0800
7000
0000
ENDCHAR

STARTCHAR space
ENCODING 32
SWIDTH 576 0
DWIDTH 6 0
BBX 6 10 0 -2
BITMAP
0000
0000
0000
0000
0000
0000
0000
0000
0000
0000
ENDCHAR

STARTCHAR exclam
ENCODING 33
SWIDTH 576 0
DWIDTH 6 0
BBX 6 10 0 -2
BITMAP
0000
2000
2000
2000
2000
0000
0000
7000
0000
0000
ENDCHAR

STARTCHAR dquote
ENCODING 34
SWIDTH 576 0
DWIDTH 6 0
BBX 6 10 0 -2
BITMAP
0000
5000
5000
5000
0000
0000
0000
0000
0000
0000
ENDCHAR

STARTCHAR numbersign
ENCODING 35
SWIDTH 576 0
DWIDTH 6 0
BBX 6 10 0 -2
BITMAP
0000
5000
5000
F800
5000
F800
5000
5000
0000
0000
ENDCHAR

STARTCHAR dollar
ENCODING 36
SWIDTH 576 0
DWIDTH 6 0
BBX 6 10 0 -2
BITMAP
0000
2000
7000
A000
7000
2800
7000
2000
0000
0000
ENDCHAR

STARTCHAR percent
ENCODING 37
SWIDTH 576 0
DWIDTH 6 0
BBX 6 10 0 -2
BITMAP
0000
4800
A800
5000
2000
5000
A800
9000
0000
0000
ENDCHAR

STARTCHAR ampersand
ENCODING 38
SWIDTH 576 0
DWIDTH 6 0
BBX 6 10 0 -2
BITMAP
0000
4000
A000
A000
4000
A800
9000
6800
0000
0000
ENDCHAR

STARTCHAR squote
ENCODING 39
SWIDTH 576 0
DWIDTH 6 0
BBX 6 10 0 -2
BITMAP
0000
2000
2000
2000
0000
0000
0000
0000
0000
0000
ENDCHAR

STARTCHAR parenleft
ENCODING 40
SWIDTH 576 0
DWIDTH 6 0
BBX 6 10 0 -2
BITMAP
0000
1000
2000
4000
4000
4000
2000
1000
0000
0000
ENDCHAR

STARTCHAR parenright
ENCODING 41
SWIDTH 576 0
DWIDTH 6 0
BBX 6 10 0 -2
BITMAP
0000
4000
2000
1000
1000
1000
2000
4000
0000
0000
ENDCHAR

STARTCHAR asterisk
ENCODING 42
SWIDTH 576 0
DWIDTH 6 0
BBX 6 10 0 -2
BITMAP
0000
0000
8800
5000
F800
5000
8800
0000
0000
0000
ENDCHAR

STARTCHAR plus
ENCODING 43
SWIDTH 576 0
DWIDTH 6 0
BBX 6 10 0 -2
BITMAP
0000
0000
2000
2000
F800
2000
2000
0000
0000
0000
ENDCHAR

STARTCHAR comma
ENCODING 44
SWIDTH 576 0
DWIDTH 6 0
BBX 6 10 0 -2
BITMAP
0000
0000
0000
0000
0000
2000
3000
2000
4000
0000
ENDCHAR

STARTCHAR hyphen
ENCODING 45
SWIDTH 576 0
DWIDTH 6 0
BBX 6 10 0 -2
BITMAP
0000
0000
0000
0000
F800
0000
0000
0000
0000
0000
ENDCHAR

STARTCHAR period
ENCODING 46
SWIDTH 576 0
DWIDTH 6 0
BBX 6 10 0 -2
BITMAP
0000
0000
0000
0000
0000
0000
2000
7000
2000
0000
ENDCHAR

STARTCHAR slash
ENCODING 47
SWIDTH 576 0
DWIDTH 6 0
BBX 6 10 0 -2
BITMAP
0000
0800
0800
1000
2000
4000
8000
8000
0000
0000
ENDCHAR

STARTCHAR zero
ENCODING 48
SWIDTH 576 0
DWIDTH 6 0
BBX 6 10 0 -2
BITMAP
0000
7000
8800
A800
A800
A800
8800
7000
0000
0000
ENDCHAR

STARTCHAR one
ENCODING 49
SWIDTH 576 0
DWIDTH 6 0
BBX 6 10 0 -2
BITMAP
0000
2000
6000
A000
2000
2000
2000
F800
0000
0000
ENDCHAR

STARTCHAR two
ENCODING 50
SWIDTH 576 0
DWIDTH 6 0
BBX 6 10 0 -2
BITMAP
0000
7000
8800
0800
3000
4000
8000
F800
0000
0000
ENDCHAR

STARTCHAR three
ENCODING 51
SWIDTH 576 0
DWIDTH 6 0
BBX 6 10 0 -2
BITMAP
0000
F800
1000
2000
7000
0800
8800
7000
0000
0000
ENDCHAR

STARTCHAR four
ENCODING 52
SWIDTH 576 0
DWIDTH 6 0
BBX 6 10 0 -2
BITMAP
0000
0800
8800
8800
F800
0800
0800
0800
0000
0000
ENDCHAR

STARTCHAR five
ENCODING 53
SWIDTH 576 0
DWIDTH 6 0
BBX 6 10 0 -2
BITMAP
0000
F800
8000
B000
C800
0800
8800
7000
0000
0000
ENDCHAR

STARTCHAR six
ENCODING 54
SWIDTH 576 0
DWIDTH 6 0
BBX 6 10 0 -2
BITMAP
0000
3000
4000
8000
B000
C800
8800
7000
0000
0000
ENDCHAR

STARTCHAR seven
ENCODING 55
SWIDTH 576 0
DWIDTH 6 0
BBX 6 10 0 -2
BITMAP
0000
F800
0800
1000
2000
2000
4000
4000
0000
0000
ENDCHAR

STARTCHAR eight
ENCODING 56
SWIDTH 576 0
DWIDTH 6 0
BBX 6 10 0 -2
BITMAP
0000
7000
8800
8800
7000
8800
8800
7000
0000
0000
ENDCHAR

STARTCHAR nine
ENCODING 57
SWIDTH 576 0
DWIDTH 6 0
BBX 6 10 0 -2
BITMAP
0000
7000
8800
9800
6800
0800
1000
6000
0000
0000
ENDCHAR

STARTCHAR colon
ENCODING 58
SWIDTH 576 0
DWIDTH 6 0
BBX 6 10 0 -2
BITMAP
0000
2000
7000
2000
0000
2000
7000
2000
0000
0000
ENDCHAR

STARTCHAR semicolon
ENCODING 59
SWIDTH 576 0
DWIDTH 6 0
BBX 6 10 0 -2
BITMAP
0000
2000
7000
2000
0000
2000
3000
2000
4000
0000
ENDCHAR

STARTCHAR lesser
ENCODING 60
SWIDTH 576 0
DWIDTH 6 0
BBX 6 10 0 -2
BITMAP
0000
0800
1000
2000
4000
2000
1000
0800
0000
0000
ENDCHAR

STARTCHAR eq
ENCODING 61
SWIDTH 576 0
DWIDTH 6 0
BBX 6 10 0 -2
BITMAP
0000
0000
0000
F800
0000
F800
0000
0000
0000
0000
ENDCHAR

STARTCHAR greater
ENCODING 62
SWIDTH 576 0
DWIDTH 6 0
BBX 6 10 0 -2
BITMAP
0000
4000
2000
1000
0800
1000
2000
4000
0000
0000
ENDCHAR

STARTCHAR question
ENCODING 63
SWIDTH 576 0
DWIDTH 6 0
BBX 6 10 0 -2
BITMAP
0000
7000
8800
1000
2000
0000
0000
7000
0000
0000
ENDCHAR

STARTCHAR at
ENCODING 64
SWIDTH 576 0
DWIDTH 6 0
BBX 6 10 0 -2
BITMAP
0000
7000
8800
9800
A800
B000
8000
7000
0000
0000
ENDCHAR

STARTCHAR A
ENCODING 65
SWIDTH 576 0
DWIDTH 6 0
BBX 6 10 0 -2
BITMAP
0000
2000
5000
8800
8800
F800
8800
8800
0000
0000
ENDCHAR

STARTCHAR B
ENCODING 66
SWIDTH 576 0
DWIDTH 6 0
BBX 6 10 0 -2
BITMAP
0000
F000
4800
4800
7000
4800
4800
F000
0000
0000
ENDCHAR

STARTCHAR C
ENCODING 67
SWIDTH 576 0
DWIDTH 6 0
BBX 6 10 0 -2
BITMAP
0000
7000
8800
8000
8000
8000
8800
7000
0000
0000
ENDCHAR

STARTCHAR D
ENCODING 68
SWIDTH 576 0
DWIDTH 6 0
BBX 6 10 0 -2
BITMAP
0000
F000
4800
4800
4800
4800
4800
F000
0000
0000
ENDCHAR

STARTCHAR E
ENCODING 69
SWIDTH 576 0
DWIDTH 6 0
BBX 6 10 0 -2
BITMAP
0000
F800
8000
8000
F000
8000
8000
F800
0000
0000
ENDCHAR

STARTCHAR F
ENCODING 70
SWIDTH 576 0
DWIDTH 6 0
BBX 6 10 0 -2
BITMAP
0000
F800
8000
8000
F000
8000
8000
8000
0000
0000
ENDCHAR

STARTCHAR G
ENCODING 71
SWIDTH 576 0
DWIDTH 6 0
BBX 6 10 0 -2
BITMAP
0000
7000
8800
8000
8000
9800
8800
7000
0000
0000
ENDCHAR

STARTCHAR H
ENCODING 72
SWIDTH 576 0
DWIDTH 6 0
BBX 6 10 0 -2
BITMAP
0000
8800
8800
8800
F800
8800
8800
8800
0000
0000
ENDCHAR

STARTCHAR I
ENCODING 73
SWIDTH 576 0
DWIDTH 6 0
BBX 6 10 0 -2
BITMAP
0000
F800
2000
2000
2000
2000
2000
F800
0000
0000
ENDCHAR

STARTCHAR J
ENCODING 74
SWIDTH 576 0
DWIDTH 6 0
BBX 6 10 0 -2
BITMAP
0000
F800
1000
1000
1000
1000
9000
6000
0000
0000
ENDCHAR

STARTCHAR K
ENCODING 75
SWIDTH 576 0
DWIDTH 6 0
BBX 6 10 0 -2
BITMAP
0000
8800
9000
A000
C000
A000
9000
8800
0000
0000
ENDCHAR

STARTCHAR L
ENCODING 76
SWIDTH 576 0
DWIDTH 6 0
BBX 6 10 0 -2
BITMAP
0000
8000
8000
8000
8000
8000
8000
F800
0000
0000
ENDCHAR

STARTCHAR M
ENCODING 77
SWIDTH 576 0
DWIDTH 6 0
BBX 6 10 0 -2
BITMAP
0000
8800
8800
D800
A800
8800
8800
8800
0000
0000
ENDCHAR

STARTCHAR N
ENCODING 78
SWIDTH 576 0
DWIDTH 6 0
BBX 6 10 0 -2
BITMAP
0000
8800
8800
C800
A800
9800
8800
8800
0000
0000
ENDCHAR

STARTCHAR O
ENCODING 79
SWIDTH 576 0
DWIDTH 6 0
BBX 6 10 0 -2
BITMAP
0000
7000
8800
8800
8800
8800
8800
7000
0000
0000
ENDCHAR

STARTCHAR P
ENCODING 80
SWIDTH 576 0
DWIDTH 6 0
BBX 6 10 0 -2
BITMAP
0000
F000
8800
8800
F000
8000
8000
8000
0000
0000
ENDCHAR

STARTCHAR Q
ENCODING 81
SWIDTH 576 0
DWIDTH 6 0
BBX 6 10 0 -2
BITMAP
0000
7000
8800
8800
8800
8800
A800
7000
0800
0000
ENDCHAR

STARTCHAR R
ENCODING 82
SWIDTH 576 0
DWIDTH 6 0
BBX 6 10 0 -2
BITMAP
0000
F000
8800
8800
F000
A000
9000
8800
0000
0000
ENDCHAR

STARTCHAR S
ENCODING 83
SWIDTH 576 0
DWIDTH 6 0
BBX 6 10 0 -2
BITMAP
0000
7000
8800
8000
7000
0800
8800
7000
0000
0000
ENDCHAR

STARTCHAR T
ENCODING 84
SWIDTH 576 0
DWIDTH 6 0
BBX 6 10 0 -2
BITMAP
0000
F800
2000
2000
2000
2000
2000
2000
0000
0000
ENDCHAR

STARTCHAR U
ENCODING 85
SWIDTH 576 0
DWIDTH 6 0
BBX 6 10 0 -2
BITMAP
0000
8800
8800
8800
8800
8800
8800
7000
0000
0000
ENDCHAR

STARTCHAR V
ENCODING 86
SWIDTH 576 0
DWIDTH 6 0
BBX 6 10 0 -2
BITMAP
0000
8800
8800
8800
5000
5000
5000
2000
0000
0000
ENDCHAR

STARTCHAR W
ENCODING 87
SWIDTH 576 0
DWIDTH 6 0
BBX 6 10 0 -2
BITMAP
0000
8800
8800
8800
A800
A800
D800
8800
0000
0000
ENDCHAR

STARTCHAR X
ENCODING 88
SWIDTH 576 0
DWIDTH 6 0
BBX 6 10 0 -2
BITMAP
0000
8800
8800
5000
2000
5000
8800
8800
0000
0000
ENDCHAR

STARTCHAR Y
ENCODING 89
SWIDTH 576 0
DWIDTH 6 0
BBX 6 10 0 -2
BITMAP
0000
8800
8800
5000
2000
2000
2000
2000
0000
0000
ENDCHAR

STARTCHAR Z
ENCODING 90
SWIDTH 576 0
DWIDTH 6 0
BBX 6 10 0 -2
BITMAP
0000
F800
0800
1000
2000
4000
8000
F800
0000
0000
ENDCHAR

STARTCHAR lbracket
ENCODING 91
SWIDTH 576 0
DWIDTH 6 0
BBX 6 10 0 -2
BITMAP
0000
7000
4000
4000
4000
4000
4000
7000
0000
0000
ENDCHAR

STARTCHAR bslash
ENCODING 92
SWIDTH 576 0
DWIDTH 6 0
BBX 6 10 0 -2
BITMAP
0000
8000
8000
4000
2000
1000
0800
0800
0000
0000
ENDCHAR

STARTCHAR rbracket
ENCODING 93
SWIDTH 576 0
DWIDTH 6 0
BBX 6 10 0 -2
BITMAP
0000
7000
1000
1000
1000
1000
1000
7000
0000
0000
ENDCHAR

STARTCHAR circum
ENCODING 94
SWIDTH 576 0
DWIDTH 6 0
BBX 6 10 0 -2
BITMAP
0000
2000
5000
8800
0000
0000
0000
0000
0000
0000
ENDCHAR

STARTCHAR underscore
ENCODING 95
SWIDTH 576 0
DWIDTH 6 0
BBX 6 10 0 -2
BITMAP
0000
0000
0000
0000
0000
0000
0000
0000
F800
0000
ENDCHAR

STARTCHAR halflong
ENCODING 96
SWIDTH 576 0
DWIDTH 6 0
BBX 6 10 0 -2
BITMAP
0000
0000
F800
7000
2000
0000
0000
0000
0000
0000
ENDCHAR

STARTCHAR a
ENCODING 97
SWIDTH 576 0
DWIDTH 6 0
BBX 6 10 0 -2
BITMAP
0000
0000
0000
7000
0800
7800
8800
7800
0000
0000
ENDCHAR

STARTCHAR b
ENCODING 98
SWIDTH 576 0
DWIDTH 6 0
BBX 6 10 0 -2
BITMAP
0000
8000
8000
F000
8800
8800
8800
7000
0000
0000
ENDCHAR

STARTCHAR c
ENCODING 99
SWIDTH 576 0
DWIDTH 6 0
BBX 6 10 0 -2
BITMAP
0000
0000
0000
7000
8800
8000
8800
7000
0000
0000
ENDCHAR

STARTCHAR d
ENCODING 100
SWIDTH 576 0
DWIDTH 6 0
BBX 6 10 0 -2
BITMAP
0000
0800
0800
7800
8800
8800
8800
7000
0000
0000
ENDCHAR

STARTCHAR e
ENCODING 101
SWIDTH 576 0
DWIDTH 6 0
BBX 6 10 0 -2
BITMAP
0000
0000
0000
7000
8800
F800
8000
7000
0000
0000
ENDCHAR

STARTCHAR f
ENCODING 102
SWIDTH 576 0
DWIDTH 6 0
BBX 6 10 0 -2
BITMAP
0000
3000
4800
4000
F000
4000
4000
4000
0000
0000
ENDCHAR

STARTCHAR g
ENCODING 103
SWIDTH 576 0
DWIDTH 6 0
BBX 6 10 0 -2
BITMAP
0000
0000
0000
7000
8800
8800
7800
0800
0800
7000
ENDCHAR

STARTCHAR h
ENCODING 104
SWIDTH 576 0
DWIDTH 6 0
BBX 6 10 0 -2
BITMAP
0000
8000
8000
F000
8800
8800
8800
8800
0000
0000
ENDCHAR

STARTCHAR i
ENCODING 105
SWIDTH 576 0
DWIDTH 6 0
BBX 6 10 0 -2
BITMAP
2000
4000
0000
2000
2000
2000
2000
7000
0000
0000
ENDCHAR

STARTCHAR j
ENCODING 106
SWIDTH 576 0
DWIDTH 6 0
BBX 6 10 0 -2
BITMAP
0800
1000
0000
0800
0800
0800
0800
4800
4800
3000
ENDCHAR

STARTCHAR k
ENCODING 107
SWIDTH 576 0
DWIDTH 6 0
BBX 6 10 0 -2
BITMAP
0000
4000
8000
8000
9800
A000
D000
8800
0000
0000
ENDCHAR

STARTCHAR l
ENCODING 108
SWIDTH 576 0
DWIDTH 6 0
BBX 6 10 0 -2
BITMAP
0000
4000
6000
4000
4000
4000
4800
3000
0000
0000
ENDCHAR

STARTCHAR m
ENCODING 109
SWIDTH 576 0
DWIDTH 6 0
BBX 6 10 0 -2
BITMAP
0000
0000
0000
5000
A800
A800
8800
8800
0000
0000
ENDCHAR

STARTCHAR n
ENCODING 110
SWIDTH 576 0
DWIDTH 6 0
BBX 6 10 0 -2
BITMAP
0000
0000
0000
7000
8800
8800
8800
8800
0000
0000
ENDCHAR

STARTCHAR o
ENCODING 111
SWIDTH 576 0
DWIDTH 6 0
BBX 6 10 0 -2
BITMAP
0000
0000
2000
7000
A800
8800
8800
7000
0000
0000
ENDCHAR

STARTCHAR p
ENCODING 112
SWIDTH 576 0
DWIDTH 6 0
BBX 6 10 0 -2
BITMAP
0000
0000
0000
7000
8800
8800
8800
F000
8000
8000
ENDCHAR

STARTCHAR q
ENCODING 113
SWIDTH 576 0
DWIDTH 6 0
BBX 6 10 0 -2
BITMAP
0000
0000
0000
7000
8800
8800
8800
7800
0800
0800
ENDCHAR

STARTCHAR r
ENCODING 114
SWIDTH 576 0
DWIDTH 6 0
BBX 6 10 0 -2
BITMAP
0000
0000
0000
7000
8800
8000
8000
8000
0000
0000
ENDCHAR

STARTCHAR s
ENCODING 115
SWIDTH 576 0
DWIDTH 6 0
BBX 6 10 0 -2
BITMAP
0000
0000
0000
7000
8000
7000
0800
F000
0000
0000
ENDCHAR

STARTCHAR t
ENCODING 116
SWIDTH 576 0
DWIDTH 6 0
BBX 6 10 0 -2
BITMAP
0000
5000
0000
F800
2000
4000
4800
3000
0000
0000
ENDCHAR

STARTCHAR u
ENCODING 117
SWIDTH 576 0
DWIDTH 6 0
BBX 6 10 0 -2
BITMAP
0000
0000
0000
8800
8800
8800
8800
7000
0000
0000
ENDCHAR

STARTCHAR v
ENCODING 118
SWIDTH 576 0
DWIDTH 6 0
BBX 6 10 0 -2
BITMAP
0000
0000
0000
8800
8800
5000
5000
2000
0000
0000
ENDCHAR

STARTCHAR w
ENCODING 119
SWIDTH 576 0
DWIDTH 6 0
BBX 6 10 0 -2
BITMAP
0000
0000
0000
8800
8800
A800
A800
5000
0000
0000
ENDCHAR

STARTCHAR x
ENCODING 120
SWIDTH 576 0
DWIDTH 6 0
BBX 6 10 0 -2
BITMAP
0000
0000
0000
8800
5000
2000
5000
8800
0000
0000
ENDCHAR

STARTCHAR y
ENCODING 121
SWIDTH 576 0
DWIDTH 6 0
BBX 6 10 0 -2
BITMAP
0000
0000
0000
8800
8800
8800
7800
0800
0800
7000
ENDCHAR

STARTCHAR z
ENCODING 122
SWIDTH 576 0
DWIDTH 6 0
BBX 6 10 0 -2
BITMAP
0000
0000
0000
F800
1000
2000
4000
F800
0000
0000
ENDCHAR

STARTCHAR lbrace
ENCODING 123
SWIDTH 576 0
DWIDTH 6 0
BBX 6 10 0 -2
BITMAP
0000
1800
2000
1000
6000
1000
2000
1800
0000
0000
ENDCHAR

STARTCHAR pipe
ENCODING 124
SWIDTH 576 0
DWIDTH 6 0
BBX 6 10 0 -2
BITMAP
0000
2000
2000
2000
0000
2000
2000
2000
0000
0000
ENDCHAR

STARTCHAR rbrace
ENCODING 125
SWIDTH 576 0
DWIDTH 6 0
BBX 6 10 0 -2
BITMAP
0000
6000
1000
2000
1800
2000
1000
6000
0000
0000
ENDCHAR

STARTCHAR tilda
ENCODING 126
SWIDTH 576 0
DWIDTH 6 0
BBX 6 10 0 -2
BITMAP
0000
0000
0000
4800
A800
9000
0000
0000
0000
0000
ENDCHAR

STARTCHAR bs
ENCODING 127
SWIDTH 576 0
DWIDTH 6 0
BBX 6 10 0 -2
BITMAP
0000
0000
0000
3000
7800
7800
3000
0000
0000
0000
ENDCHAR

STARTCHAR wall_horz
ENCODING 128
SWIDTH 576 0
DWIDTH 6 0
BBX 6 10 0 -2
BITMAP
0000
0000
0000
0000
FC00
0000
0000
0000
0000
0000
ENDCHAR

STARTCHAR wall_vert
ENCODING 129
SWIDTH 576 0
DWIDTH 6 0
BBX 6 10 0 -2
BITMAP
2000
2000
2000
2000
2000
2000
2000
2000
2000
2000
ENDCHAR

STARTCHAR left_down
ENCODING 130
SWIDTH 576 0
DWIDTH 6 0
BBX 6 10 0 -2
BITMAP
0000
0000
0000
0000
C000
2000
2000
2000
2000
2000
ENDCHAR

STARTCHAR up_right
ENCODING 131
SWIDTH 576 0
DWIDTH 6 0
BBX 6 10 0 -2
BITMAP
0000
0000
0000
0000
1C00
2000
2000
2000
2000
2000
ENDCHAR

STARTCHAR down_right
ENCODING 132
SWIDTH 576 0
DWIDTH 6 0
BBX 6 10 0 -2
BITMAP
2000
2000
2000
2000
1C00
0000
0000
0000
0000
0000
ENDCHAR

STARTCHAR down_left
ENCODING 133
SWIDTH 576 0
DWIDTH 6 0
BBX 6 10 0 -2
BITMAP
2000
2000
2000
2000
C000
0000
0000
0000
0000
0000
ENDCHAR

STARTCHAR left_t
ENCODING 134
SWIDTH 576 0
DWIDTH 6 0
BBX 6 10 0 -2
BITMAP
2000
2000
2000
4000
8000
4000
2000
2000
2000
2000
ENDCHAR

STARTCHAR right_t
ENCODING 135
SWIDTH 576 0
DWIDTH 6 0
BBX 6 10 0 -2
BITMAP
2000
2000
2000
1000
0C00
1000
2000
2000
2000
2000
ENDCHAR

STARTCHAR up_t
ENCODING 136
SWIDTH 576 0
DWIDTH 6 0
BBX 6 10 0 -2
BITMAP
2000
2000
2000
5000
8C00
0000
0000
0000
0000
0000
ENDCHAR

STARTCHAR down_t
ENCODING 137
SWIDTH 576 0
DWIDTH 6 0
BBX 6 10 0 -2
BITMAP
0000
0000
0000
0000
8C00
5000
2000
2000
2000
2000
ENDCHAR

STARTCHAR fourway
ENCODING 138
SWIDTH 576 0
DWIDTH 6 0
BBX 6 10 0 -2
BITMAP
2000
2000
2000
5000
8C00
5000
2000
2000
2000
2000
ENDCHAR

STARTCHAR vert_open
ENCODING 139
SWIDTH 576 0
DWIDTH 6 0
BBX 6 10 0 -2
BITMAP
7000
0000
0000
0000
0000
0000
0000
0000
7000
2000
ENDCHAR

STARTCHAR vert_win
ENCODING 140
SWIDTH 576 0
DWIDTH 6 0
BBX 6 10 0 -2
BITMAP
0000
0000
2000
0000
0000
2000
0000
0000
2000
0000
ENDCHAR

STARTCHAR vert_door1
ENCODING 141
SWIDTH 576 0
DWIDTH 6 0
BBX 6 10 0 -2
BITMAP
2000
2000
1000
0800
0000
8000
4000
2000
2000
2000
ENDCHAR

STARTCHAR vert_door2
ENCODING 142
SWIDTH 576 0
DWIDTH 6 0
BBX 6 10 0 -2
BITMAP
2000
2000
4000
8000
0000
0800
1000
2000
2000
2000
ENDCHAR

STARTCHAR because
ENCODING 143
SWIDTH 576 0
DWIDTH 6 0
BBX 6 10 0 -2
BITMAP
0000
0000
0000
5000
0000
2000
0000
0000
0000
0000
ENDCHAR

STARTCHAR horz_open1
ENCODING 144
SWIDTH 576 0
DWIDTH 6 0
BBX 6 10 0 -2
BITMAP
0000
0000
0000
4000
C000
4000
0000
0000
0000
0000
ENDCHAR

STARTCHAR horz_open2
ENCODING 145
SWIDTH 576 0
DWIDTH 6 0
BBX 6 10 0 -2
BITMAP
0000
0000
0000
0800
0C00
0800
0000
0000
0000
0000
ENDCHAR

STARTCHAR door_down1
ENCODING 146
SWIDTH 576 0
DWIDTH 6 0
BBX 6 10 0 -2
BITMAP
0000
0000
0000
0000
C000
2000
1000
0800
0000
0000
ENDCHAR

STARTCHAR door_down2
ENCODING 147
SWIDTH 576 0
DWIDTH 6 0
BBX 6 10 0 -2
BITMAP
0000
4000
2000
1000
0C00
0000
0000
0000
0000
0000
ENDCHAR

STARTCHAR half_top
ENCODING 148
SWIDTH 576 0
DWIDTH 6 0
BBX 6 10 0 -2
BITMAP
2000
2000
2000
2000
7000
0000
0000
0000
0000
0000
ENDCHAR

STARTCHAR half_bot
ENCODING 149
SWIDTH 576 0
DWIDTH 6 0
BBX 6 10 0 -2
BITMAP
0000
0000
0000
0000
7000
2000
2000
2000
2000
2000
ENDCHAR

STARTCHAR door_up1
ENCODING 150
SWIDTH 576 0
DWIDTH 6 0
BBX 6 10 0 -2
BITMAP
0000
0800
1000
2000
C000
0000
0000
0000
0000
0000
ENDCHAR

STARTCHAR door_up2
ENCODING 151
SWIDTH 576 0
DWIDTH 6 0
BBX 6 10 0 -2
BITMAP
0000
0000
0000
0000
0C00
1000
2000
4000
0000
0000
ENDCHAR

STARTCHAR plusminus
ENCODING 152
SWIDTH 576 0
DWIDTH 6 0
BBX 6 10 0 -2
BITMAP
0000
2000
2000
F800
2000
2000
0000
F800
0000
0000
ENDCHAR

STARTCHAR infinity
ENCODING 153
SWIDTH 576 0
DWIDTH 6 0
BBX 6 10 0 -2
BITMAP
0000
7000
8800
5000
2000
2000
5000
8800
7000
0000
ENDCHAR

STARTCHAR function
ENCODING 154
SWIDTH 576 0
DWIDTH 6 0
BBX 6 10 0 -2
BITMAP
1800
2000
2000
2000
F800
2000
2000
2000
C000
0000
ENDCHAR

STARTCHAR dslash
ENCODING 155
SWIDTH 576 0
DWIDTH 6 0
BBX 6 10 0 -2
BITMAP
0000
0800
1000
2000
4800
1000
2000
4000
0000
0000
ENDCHAR

STARTCHAR utooth
ENCODING 156
SWIDTH 576 0
DWIDTH 6 0
BBX 6 10 0 -2
BITMAP
0000
0000
7800
4800
FC00
0000
0000
0000
0000
0000
ENDCHAR

STARTCHAR dtooth
ENCODING 157
SWIDTH 576 0
DWIDTH 6 0
BBX 6 10 0 -2
BITMAP
0000
0000
0000
0000
FC00
4800
7800
0000
0000
0000
ENDCHAR

STARTCHAR rtooth
ENCODING 158
SWIDTH 576 0
DWIDTH 6 0
BBX 6 10 0 -2
BITMAP
2000
3800
2800
2800
3800
2000
3800
2800
2800
3800
ENDCHAR

STARTCHAR ltooth
ENCODING 159
SWIDTH 576 0
DWIDTH 6 0
BBX 6 10 0 -2
BITMAP
2000
E000
A000
A000
E000
2000
E000
A000
A000
E000
ENDCHAR

STARTCHAR empty
ENCODING 160
SWIDTH 576 0
DWIDTH 6 0
BBX 6 10 0 -2
BITMAP
0000
0000
2000
8800
0000
8800
2000
0000
0000
0000
ENDCHAR

STARTCHAR rexclam
ENCODING 161
SWIDTH 576 0
DWIDTH 6 0
BBX 6 10 0 -2
BITMAP
0000
7000
0000
0000
2000
2000
2000
2000
0000
0000
ENDCHAR

STARTCHAR rquest
ENCODING 162
SWIDTH 576 0
DWIDTH 6 0
BBX 6 10 0 -2
BITMAP
0000
7000
0000
0000
2000
4000
8800
7000
0000
0000
ENDCHAR

STARTCHAR null
ENCODING 163
SWIDTH 576 0
DWIDTH 6 0
BBX 6 10 0 -2
BITMAP
0000
7000
8800
9800
A800
C800
8800
7000
0000
0000
ENDCHAR

STARTCHAR place
ENCODING 164
SWIDTH 576 0
DWIDTH 6 0
BBX 6 10 0 -2
BITMAP
0000
0000
8800
7000
5000
7000
8800
0000
0000
0000
ENDCHAR

STARTCHAR escape
ENCODING 165
SWIDTH 576 0
DWIDTH 6 0
BBX 6 10 0 -2
BITMAP
0000
8800
8800
5000
F800
2000
2000
2000
0000
0000
ENDCHAR

STARTCHAR return
ENCODING 166
SWIDTH 576 0
DWIDTH 6 0
BBX 6 10 0 -2
BITMAP
0000
7800
A800
A800
6800
2800
2800
2800
0000
0000
ENDCHAR

STARTCHAR field
ENCODING 167
SWIDTH 576 0
DWIDTH 6 0
BBX 6 10 0 -2
BITMAP
0000
7000
8800
E000
9000
4800
3800
8800
7000
0000
ENDCHAR

STARTCHAR group
ENCODING 168
SWIDTH 576 0
DWIDTH 6 0
BBX 6 10 0 -2
BITMAP
0000
5000
5000
5000
0000
5000
5000
5000
0000
0000
ENDCHAR

STARTCHAR diamond
ENCODING 169
SWIDTH 576 0
DWIDTH 6 0
BBX 6 10 0 -2
BITMAP
0000
2000
2000
5000
8800
5000
2000
2000
0000
0000
ENDCHAR

STARTCHAR break
ENCODING 170
SWIDTH 576 0
DWIDTH 6 0
BBX 6 10 0 -2
BITMAP
0000
7000
8800
8800
7000
2000
2000
F800
0000
0000
ENDCHAR

STARTCHAR result
ENCODING 171
SWIDTH 576 0
DWIDTH 6 0
BBX 6 10 0 -2
BITMAP
0000
0000
0000
2000
0000
5000
0000
0000
0000
0000
ENDCHAR

STARTCHAR mask
ENCODING 172
SWIDTH 576 0
DWIDTH 6 0
BBX 6 10 0 -2
BITMAP
0000
4800
9000
2000
4800
9000
2000
4800
9000
0000
ENDCHAR

STARTCHAR display
ENCODING 173
SWIDTH 576 0
DWIDTH 6 0
BBX 6 10 0 -2
BITMAP
0000
B400
7800
8400
3000
4800
3000
0000
0000
0000
ENDCHAR

STARTCHAR summary
ENCODING 174
SWIDTH 576 0
DWIDTH 6 0
BBX 6 10 0 -2
BITMAP
0000
F800
4000
2000
1000
2000
4000
F800
0000
0000
ENDCHAR

STARTCHAR system
ENCODING 175
SWIDTH 576 0
DWIDTH 6 0
BBX 6 10 0 -2
BITMAP
0000
A800
A800
A800
7000
A800
A800
A800
0000
0000
ENDCHAR

STARTCHAR redact
ENCODING 176
SWIDTH 576 0
DWIDTH 6 0
BBX 6 10 0 -2
BITMAP
0000
F800
F800
F800
F800
F800
F800
F800
F800
0000
ENDCHAR

STARTCHAR bump
ENCODING 177
SWIDTH 576 0
DWIDTH 6 0
BBX 6 10 0 -2
BITMAP
0000
0000
0000
0000
0000
2000
7000
F800
0000
0000
ENDCHAR

STARTCHAR storage
ENCODING 178
SWIDTH 576 0
DWIDTH 6 0
BBX 6 10 0 -2
BITMAP
0000
0000
0000
0000
4800
0000
0000
0000
0000
0000
ENDCHAR

STARTCHAR halt
ENCODING 179
SWIDTH 576 0
DWIDTH 6 0
BBX 6 10 0 -2
BITMAP
0000
0000
0000
7800
7800
7800
7800
0000
0000
0000
ENDCHAR

STARTCHAR bigdot
ENCODING 180
SWIDTH 576 0
DWIDTH 6 0
BBX 6 10 0 -2
BITMAP
0000
0000
0000
3000
7800
3000
0000
0000
0000
0000
ENDCHAR

STARTCHAR dbslash
ENCODING 181
SWIDTH 576 0
DWIDTH 6 0
BBX 6 10 0 -2
BITMAP
0000
4000
2000
1000
4800
2000
1000
0800
0000
0000
ENDCHAR

STARTCHAR ddquote
ENCODING 182
SWIDTH 576 0
DWIDTH 6 0
BBX 6 10 0 -2
BITMAP
0000
2800
2800
2800
0000
4000
2000
1000
0800
0000
ENDCHAR

STARTCHAR space
ENCODING 183
SWIDTH 576 0
DWIDTH 6 0
BBX 6 10 0 -2
BITMAP
0000
0000
0000
0000
2000
0000
0000
0000
0000
0000
ENDCHAR

STARTCHAR slparen
ENCODING 184
SWIDTH 576 0
DWIDTH 6 0
BBX 6 10 0 -2
BITMAP
1800
2000
6000
5000
1000
5000
6000
2000
1800
0000
ENDCHAR

STARTCHAR srparen
ENCODING 185
SWIDTH 576 0
DWIDTH 6 0
BBX 6 10 0 -2
BITMAP
C000
2000
3000
5000
4000
5000
3000
2000
C000
0000
ENDCHAR

STARTCHAR slbrack
ENCODING 186
SWIDTH 576 0
DWIDTH 6 0
BBX 6 10 0 -2
BITMAP
7800
4000
2000
1000
1000
1000
2000
4000
7800
0000
ENDCHAR

STARTCHAR srbrack
ENCODING 187
SWIDTH 576 0
DWIDTH 6 0
BBX 6 10 0 -2
BITMAP
F000
1000
2000
4000
4000
4000
2000
1000
F000
0000
ENDCHAR

STARTCHAR slchev
ENCODING 188
SWIDTH 576 0
DWIDTH 6 0
BBX 6 10 0 -2
BITMAP
0000
4000
6000
7000
7800
7000
6000
4000
0000
0000
ENDCHAR

STARTCHAR srchev
ENCODING 189
SWIDTH 576 0
DWIDTH 6 0
BBX 6 10 0 -2
BITMAP
0000
1000
3000
7000
F000
7000
3000
1000
0000
0000
ENDCHAR

STARTCHAR del
ENCODING 190
SWIDTH 576 0
DWIDTH 6 0
BBX 6 10 0 -2
BITMAP
0000
4000
6000
5000
4800
5000
6000
4000
0000
0000
ENDCHAR

STARTCHAR bs
ENCODING 191
SWIDTH 576 0
DWIDTH 6 0
BBX 6 10 0 -2
BITMAP
0000
0800
1800
2800
4800
2800
1800
0800
0000
0000
ENDCHAR

STARTCHAR sub0
ENCODING 192
SWIDTH 576 0
DWIDTH 6 0
BBX 6 10 0 -2
BITMAP
0000
0000
0000
0000
6000
9000
9000
9000
6000
0000
ENDCHAR

STARTCHAR sub1
ENCODING 193
SWIDTH 576 0
DWIDTH 6 0
BBX 6 10 0 -2
BITMAP
0000
0000
0000
0000
2000
6000
2000
2000
7000
0000
ENDCHAR

STARTCHAR sub2
ENCODING 194
SWIDTH 576 0
DWIDTH 6 0
BBX 6 10 0 -2
BITMAP
0000
0000
0000
0000
6000
9000
2000
4000
F000
0000
ENDCHAR

STARTCHAR sub3
ENCODING 195
SWIDTH 576 0
DWIDTH 6 0
BBX 6 10 0 -2
BITMAP
0000
0000
0000
0000
E000
1000
6000
1000
E000
0000
ENDCHAR

STARTCHAR sub4
ENCODING 196
SWIDTH 576 0
DWIDTH 6 0
BBX 6 10 0 -2
BITMAP
0000
0000
0000
0000
9000
9000
F000
1000
1000
0000
ENDCHAR

STARTCHAR subn
ENCODING 197
SWIDTH 576 0
DWIDTH 6 0
BBX 6 10 0 -2
BITMAP
0000
0000
0000
0000
6000
9000
9000
9000
9000
0000
ENDCHAR

STARTCHAR pow2
ENCODING 198
SWIDTH 576 0
DWIDTH 6 0
BBX 6 10 0 -2
BITMAP
6000
9000
2000
4000
F000
0000
0000
0000
0000
0000
ENDCHAR

STARTCHAR pow3
ENCODING 199
SWIDTH 576 0
DWIDTH 6 0
BBX 6 10 0 -2
BITMAP
E000
1000
6000
1000
E000
0000
0000
0000
0000
0000
ENDCHAR

STARTCHAR pow4
ENCODING 200
SWIDTH 576 0
DWIDTH 6 0
BBX 6 10 0 -2
BITMAP
9000
9000
F000
1000
1000
0000
0000
0000
0000
0000
ENDCHAR

STARTCHAR powx
ENCODING 201
SWIDTH 576 0
DWIDTH 6 0
BBX 6 10 0 -2
BITMAP
9000
9000
6000
9000
9000
0000
0000
0000
0000
0000
ENDCHAR

STARTCHAR powy
ENCODING 202
SWIDTH 576 0
DWIDTH 6 0
BBX 6 10 0 -2
BITMAP
9000
9000
6000
4000
8000
0000
0000
0000
0000
0000
ENDCHAR

STARTCHAR scinote
ENCODING 203
SWIDTH 576 0
DWIDTH 6 0
BBX 6 10 0 -2
BITMAP
0000
0000
0000
0000
4800
4800
3000
4800
4800
0000
ENDCHAR

STARTCHAR degree
ENCODING 204
SWIDTH 576 0
DWIDTH 6 0
BBX 6 10 0 -2
BITMAP
6000
9000
9000
6000
0000
0000
0000
0000
0000
0000
ENDCHAR

STARTCHAR radian
ENCODING 205
SWIDTH 576 0
DWIDTH 6 0
BBX 6 10 0 -2
BITMAP
3000
4800
4000
4000
0000
0000
0000
0000
0000
0000
ENDCHAR

STARTCHAR sqrt
ENCODING 206
SWIDTH 576 0
DWIDTH 6 0
BBX 6 10 0 -2
BITMAP
3800
2000
A000
6000
2000
0000
0000
0000
0000
0000
ENDCHAR

STARTCHAR hugedot
ENCODING 207
SWIDTH 576 0
DWIDTH 6 0
BBX 6 10 0 -2
BITMAP
0000
0000
7000
F800
F800
F800
7000
0000
0000
0000
ENDCHAR

STARTCHAR and
ENCODING 208
SWIDTH 576 0
DWIDTH 6 0
BBX 6 10 0 -2
BITMAP
0000
2000
0000
2000
5000
8800
0000
0000
0000
0000
ENDCHAR

STARTCHAR or
ENCODING 209
SWIDTH 576 0
DWIDTH 6 0
BBX 6 10 0 -2
BITMAP
0000
0000
0000
8800
5000
2000
0000
2000
0000
0000
ENDCHAR

STARTCHAR xor
ENCODING 210
SWIDTH 576 0
DWIDTH 6 0
BBX 6 10 0 -2
BITMAP
0000
0000
0000
8800
5000
2000
0000
F800
0000
0000
ENDCHAR

STARTCHAR xnor
ENCODING 211
SWIDTH 576 0
DWIDTH 6 0
BBX 6 10 0 -2
BITMAP
0000
F800
0000
2000
5000
8800
0000
0000
0000
0000
ENDCHAR

STARTCHAR up
ENCODING 212
SWIDTH 576 0
DWIDTH 6 0
BBX 6 10 0 -2
BITMAP
0000
0000
2000
7000
A800
2000
2000
0000
0000
0000
ENDCHAR

STARTCHAR down
ENCODING 213
SWIDTH 576 0
DWIDTH 6 0
BBX 6 10 0 -2
BITMAP
0000
0000
2000
2000
A800
7000
2000
0000
0000
0000
ENDCHAR

STARTCHAR right
ENCODING 214
SWIDTH 576 0
DWIDTH 6 0
BBX 6 10 0 -2
BITMAP
0000
0000
2000
1000
F800
1000
2000
0000
0000
0000
ENDCHAR

STARTCHAR left
ENCODING 215
SWIDTH 576 0
DWIDTH 6 0
BBX 6 10 0 -2
BITMAP
0000
0000
2000
4000
F800
4000
2000
0000
0000
0000
ENDCHAR

STARTCHAR unlikely
ENCODING 216
SWIDTH 576 0
DWIDTH 6 0
BBX 6 10 0 -2
BITMAP
0000
0000
5000
5000
5000
5000
F800
0000
0000
0000
ENDCHAR

STARTCHAR likely
ENCODING 217
SWIDTH 576 0
DWIDTH 6 0
BBX 6 10 0 -2
BITMAP
0000
0000
8000
F800
8000
F800
8000
0000
0000
0000
ENDCHAR

STARTCHAR false
ENCODING 218
SWIDTH 576 0
DWIDTH 6 0
BBX 6 10 0 -2
BITMAP
0000
0000
2000
2000
2000
2000
F800
0000
0000
0000
ENDCHAR

STARTCHAR true
ENCODING 219
SWIDTH 576 0
DWIDTH 6 0
BBX 6 10 0 -2
BITMAP
0000
0000
8000
8000
F800
8000
8000
0000
0000
0000
ENDCHAR

STARTCHAR lesser_eq
ENCODING 220
SWIDTH 576 0
DWIDTH 6 0
BBX 6 10 0 -2
BITMAP
0000
0800
1000
2000
4000
2000
9000
C800
0000
0000
ENDCHAR

STARTCHAR greater_eq
ENCODING 221
SWIDTH 576 0
DWIDTH 6 0
BBX 6 10 0 -2
BITMAP
0000
8000
4000
2000
1000
2000
4800
9800
0000
0000
ENDCHAR

STARTCHAR not_eq
ENCODING 222
SWIDTH 576 0
DWIDTH 6 0
BBX 6 10 0 -2
BITMAP
0000
0800
1000
F800
2000
F800
4000
8000
0000
0000
ENDCHAR

STARTCHAR approx
ENCODING 223
SWIDTH 576 0
DWIDTH 6 0
BBX 6 10 0 -2
BITMAP
0000
0000
4000
A800
1000
4000
A800
1000
0000
0000
ENDCHAR

STARTCHAR equivalent
ENCODING 224
SWIDTH 576 0
DWIDTH 6 0
BBX 6 10 0 -2
BITMAP
0000
0000
F800
0000
F800
0000
F800
0000
0000
0000
ENDCHAR

STARTCHAR pointer
ENCODING 225
SWIDTH 576 0
DWIDTH 6 0
BBX 6 10 0 -2
BITMAP
0000
0000
0000
3000
4800
3000
0000
0000
0000
0000
ENDCHAR

STARTCHAR subset
ENCODING 226
SWIDTH 576 0
DWIDTH 6 0
BBX 6 10 0 -2
BITMAP
0000
0000
7800
0400
0400
0400
7800
0000
0000
0000
ENDCHAR

STARTCHAR membership
ENCODING 227
SWIDTH 576 0
DWIDTH 6 0
BBX 6 10 0 -2
BITMAP
0000
0000
7800
0400
7C00
0400
7800
0000
0000
0000
ENDCHAR

STARTCHAR foreach
ENCODING 228
SWIDTH 576 0
DWIDTH 6 0
BBX 6 10 0 -2
BITMAP
0000
0000
8800
8800
F800
5000
2000
0000
0000
0000
ENDCHAR

STARTCHAR lgull
ENCODING 229
SWIDTH 576 0
DWIDTH 6 0
BBX 6 10 0 -2
BITMAP
7800
4000
4000
4000
3000
4000
4000
4000
7800
0000
ENDCHAR

STARTCHAR rgull
ENCODING 230
SWIDTH 576 0
DWIDTH 6 0
BBX 6 10 0 -2
BITMAP
F000
1000
1000
1000
6000
1000
1000
1000
F000
0000
ENDCHAR

STARTCHAR localize
ENCODING 231
SWIDTH 576 0
DWIDTH 6 0
BBX 6 10 0 -2
BITMAP
0000
0000
1000
0800
0C00
0800
1000
0000
0000
0000
ENDCHAR

STARTCHAR alpha
ENCODING 232
SWIDTH 576 0
DWIDTH 6 0
BBX 6 10 0 -2
BITMAP
0000
6800
9000
9000
9000
9000
9000
6800
0000
0000
ENDCHAR

STARTCHAR beta
ENCODING 233
SWIDTH 576 0
DWIDTH 6 0
BBX 6 10 0 -2
BITMAP
0000
6000
9000
9000
B000
8800
C800
B000
8000
0000
ENDCHAR

STARTCHAR gamma
ENCODING 234
SWIDTH 576 0
DWIDTH 6 0
BBX 6 10 0 -2
BITMAP
0000
8800
8800
5000
2000
5000
8800
7000
0000
0000
ENDCHAR

STARTCHAR delta
ENCODING 235
SWIDTH 576 0
DWIDTH 6 0
BBX 6 10 0 -2
BITMAP
0000
F000
8800
6000
9000
8800
8800
7000
0000
0000
ENDCHAR

STARTCHAR epsilon
ENCODING 236
SWIDTH 576 0
DWIDTH 6 0
BBX 6 10 0 -2
BITMAP
0000
7000
8800
8000
6000
8000
8800
7000
0000
0000
ENDCHAR

STARTCHAR zeta
ENCODING 237
SWIDTH 576 0
DWIDTH 6 0
BBX 6 10 0 -2
BITMAP
0000
F800
8800
1000
0000
4000
8800
F800
0000
0000
ENDCHAR

STARTCHAR eta
ENCODING 238
SWIDTH 576 0
DWIDTH 6 0
BBX 6 10 0 -2
BITMAP
0000
B000
C800
8800
8800
8800
0800
0800
0800
0000
ENDCHAR

STARTCHAR theta
ENCODING 239
SWIDTH 576 0
DWIDTH 6 0
BBX 6 10 0 -2
BITMAP
0000
3000
4800
4800
FC00
4800
4800
3000
0000
0000
ENDCHAR

STARTCHAR iota
ENCODING 240
SWIDTH 576 0
DWIDTH 6 0
BBX 6 10 0 -2
BITMAP
0000
2000
6000
A000
2000
2800
3000
2000
0000
0000
ENDCHAR

STARTCHAR kappa
ENCODING 241
SWIDTH 576 0
DWIDTH 6 0
BBX 6 10 0 -2
BITMAP
0000
8000
4000
4800
5000
7000
9000
1000
0800
0000
ENDCHAR

STARTCHAR lambda
ENCODING 242
SWIDTH 576 0
DWIDTH 6 0
BBX 6 10 0 -2
BITMAP
0000
4000
2000
2000
5000
5000
8800
8800
0800
0000
ENDCHAR

STARTCHAR mu
ENCODING 243
SWIDTH 576 0
DWIDTH 6 0
BBX 6 10 0 -2
BITMAP
0000
8800
8800
8800
F000
8000
8000
8000
0000
0000
ENDCHAR

STARTCHAR nu
ENCODING 244
SWIDTH 576 0
DWIDTH 6 0
BBX 6 10 0 -2
BITMAP
0000
8800
8800
9000
A000
C000
8000
8000
0000
0000
ENDCHAR

STARTCHAR xi
ENCODING 245
SWIDTH 576 0
DWIDTH 6 0
BBX 6 10 0 -2
BITMAP
0000
F800
0000
0000
7000
0000
0000
F800
0000
0000
ENDCHAR

STARTCHAR omicron
ENCODING 246
SWIDTH 576 0
DWIDTH 6 0
BBX 6 10 0 -2
BITMAP
0000
6000
8000
8800
8800
8800
0800
3000
0000
0000
ENDCHAR

STARTCHAR pi
ENCODING 247
SWIDTH 576 0
DWIDTH 6 0
BBX 6 10 0 -2
BITMAP
0000
FC00
4800
4800
4800
4800
4800
4800
0000
0000
ENDCHAR

STARTCHAR rho
ENCODING 248
SWIDTH 576 0
DWIDTH 6 0
BBX 6 10 0 -2
BITMAP
0000
7000
8800
8800
8800
F000
8000
8000
4000
0000
ENDCHAR

STARTCHAR sigma
ENCODING 249
SWIDTH 576 0
DWIDTH 6 0
BBX 6 10 0 -2
BITMAP
0000
1800
6000
9000
8800
8800
8800
7000
0000
0000
ENDCHAR

STARTCHAR tau
ENCODING 250
SWIDTH 576 0
DWIDTH 6 0
BBX 6 10 0 -2
BITMAP
0000
F800
1000
2000
4000
4000
4800
3000
0000
0000
ENDCHAR

STARTCHAR upsilon
ENCODING 251
SWIDTH 576 0
DWIDTH 6 0
BBX 6 10 0 -2
BITMAP
0000
7000
A800
A800
A800
A800
2000
2000
2000
0000
ENDCHAR

STARTCHAR phi
ENCODING 252
SWIDTH 576 0
DWIDTH 6 0
BBX 6 10 0 -2
BITMAP
0000
2000
7000
A800
A800
A800
7000
2000
2000
0000
ENDCHAR

STARTCHAR chi
ENCODING 253
SWIDTH 576 0
DWIDTH 6 0
BBX 6 10 0 -2
BITMAP
0000
0800
8800
5000
2000
5000
8800
8000
8000
0000
ENDCHAR

STARTCHAR psi
ENCODING 254
SWIDTH 576 0
DWIDTH 6 0
BBX 6 10 0 -2
BITMAP
0000
A800
A800
A800
A800
7000
2000
2000
2000
0000
ENDCHAR

STARTCHAR omega
ENCODING 255
SWIDTH 576 0
DWIDTH 6 0
BBX 6 10 0 -2
BITMAP
0000
7000
8800
8800
8800
8800
5000
5000
8800
0000
ENDCHAR

ENDFONT
