STARTFONT 2.1
FONT -Shrike-Fixed-Medium-R-Normal--10-100-75-75-C-60-iso8859-1
SIZE 10 75 75
FONTBOUNDINGBOX 6 10 0 -2

STARTPROPERTIES 23
FONTNAME_REGISTRY ""
FOUNDRY "Shrike"
FAMILY_NAME "Fixed"
WEIGHT_NAME "Medium"
SLANT "R"
SETWIDTH_NAME "Normal"
ADD_STYLE_NAME ""
PIXEL_SIZE "10"
POINT_SIZE "100"
RESOLUTION_X "75"
RESOLUTION_Y "75"
SPACING "C"
AVERAGE_WIDTH "60"
CHARSET_REGISTRY "iso8859"
CHARSET_ENCODING "1"
COPYRIGHT "none"
CAP_HEIGHT 7
X_HEIGHT 5
WEIGHT 10
RESOLUTION 103
QUAD_WIDTH 6
FONT_ASCENT 8
FONT_DESCENT 2
ENDPROPERTIES

CHARS 256

STARTCHAR null
ENCODING 0
SWIDTH 576 0
DWIDTH 6 0
BBX 6 10 0 -2
BITMAP
0000
0000
0000
0000
0000
0000
0000
0000
0000
0000
ENDCHAR

STARTCHAR char1
ENCODING 1
SWIDTH 576 0
DWIDTH 6 0
BBX 6 10 0 -2
BITMAP
0000
0000
0000
0000
0000
0000
0000
0000
0000
0000
ENDCHAR

STARTCHAR char2
ENCODING 2
SWIDTH 576 0
DWIDTH 6 0
BBX 6 10 0 -2
BITMAP
0000
0000
0000
0000
0000
0000
0000
0000
0000
0000
ENDCHAR

STARTCHAR char3
ENCODING 3
SWIDTH 576 0
DWIDTH 6 0
BBX 6 10 0 -2
BITMAP
0000
0000
0000
0000
0000
0000
0000
0000
0000
0000
ENDCHAR

STARTCHAR char4
ENCODING 4
SWIDTH 576 0
DWIDTH 6 0
BBX 6 10 0 -2
BITMAP
0000
0000
0000
0000
0000
0000
0000
0000
0000
0000
ENDCHAR

STARTCHAR char5
ENCODING 5
SWIDTH 576 0
DWIDTH 6 0
BBX 6 10 0 -2
BITMAP
0000
0000
0000
0000
0000
0000
0000
0000
0000
0000
ENDCHAR

STARTCHAR char6
ENCODING 6
SWIDTH 576 0
DWIDTH 6 0
BBX 6 10 0 -2
BITMAP
0000
0000
0000
0000
0000
0000
0000
0000
0000
0000
ENDCHAR

STARTCHAR char7
ENCODING 7
SWIDTH 576 0
DWIDTH 6 0
BBX 6 10 0 -2
BITMAP
0000
0000
0000
0000
0000
0000
0000
0000
0000
0000
ENDCHAR

STARTCHAR del
ENCODING 8
SWIDTH 576 0
DWIDTH 6 0
BBX 6 10 0 -2
BITMAP
0000
0000
0000
0000
0000
0000
0000
0000
0000
0000
ENDCHAR

STARTCHAR tab
ENCODING 9
SWIDTH 576 0
DWIDTH 6 0
BBX 6 10 0 -2
BITMAP
0000
0000
0000
0000
0000
0000
0000
0000
0000
0000
ENDCHAR

STARTCHAR return
ENCODING 10
SWIDTH 576 0
DWIDTH 6 0
BBX 6 10 0 -2
BITMAP
0000
0000
0000
0000
0000
0000
0000
0000
0000
0000
ENDCHAR

STARTCHAR char11
ENCODING 11
SWIDTH 576 0
DWIDTH 6 0
BBX 6 10 0 -2
BITMAP
0000
0000
0000
0000
0000
0000
0000
0000
0000
0000
ENDCHAR

STARTCHAR char12
ENCODING 12
SWIDTH 576 0
DWIDTH 6 0
BBX 6 10 0 -2
BITMAP
0000
0000
0000
0000
0000
0000
0000
0000
0000
0000
ENDCHAR

STARTCHAR enter
ENCODING 13
SWIDTH 576 0
DWIDTH 6 0
BBX 6 10 0 -2
BITMAP
0000
0000
0000
0000
0000
0000
0000
0000
0000
0000
ENDCHAR

STARTCHAR char14
ENCODING 14
SWIDTH 576 0
DWIDTH 6 0
BBX 6 10 0 -2
BITMAP
0000
0000
0000
0000
0000
0000
0000
0000
0000
0000
ENDCHAR

STARTCHAR char15
ENCODING 15
SWIDTH 576 0
DWIDTH 6 0
BBX 6 10 0 -2
BITMAP
0000
0000
0000
0000
0000
0000
0000
0000
0000
0000
ENDCHAR

STARTCHAR char16
ENCODING 16
SWIDTH 576 0
DWIDTH 6 0
BBX 6 10 0 -2
BITMAP
0000
0000
0000
0000
0000
0000
0000
0000
0000
0000
ENDCHAR

STARTCHAR char17
ENCODING 17
SWIDTH 576 0
DWIDTH 6 0
BBX 6 10 0 -2
BITMAP
0000
0000
0000
0000
0000
0000
0000
0000
0000
0000
ENDCHAR

STARTCHAR char18
ENCODING 18
SWIDTH 576 0
DWIDTH 6 0
BBX 6 10 0 -2
BITMAP
0000
0000
0000
0000
0000
0000
0000
0000
0000
0000
ENDCHAR

STARTCHAR char19
ENCODING 19
SWIDTH 576 0
DWIDTH 6 0
BBX 6 10 0 -2
BITMAP
0000
0000
0000
0000
0000
0000
0000
0000
0000
0000
ENDCHAR

STARTCHAR char20
ENCODING 20
SWIDTH 576 0
DWIDTH 6 0
BBX 6 10 0 -2
BITMAP
0000
0000
0000
0000
0000
0000
0000
0000
0000
0000
ENDCHAR

STARTCHAR char21
ENCODING 21
SWIDTH 576 0
DWIDTH 6 0
BBX 6 10 0 -2
BITMAP
0000
0000
0000
0000
0000
0000
0000
0000
0000
0000
ENDCHAR

STARTCHAR char22
ENCODING 22
SWIDTH 576 0
DWIDTH 6 0
BBX 6 10 0 -2
BITMAP
0000
0000
0000
0000
0000
0000
0000
0000
0000
0000
ENDCHAR

STARTCHAR char23
ENCODING 23
SWIDTH 576 0
DWIDTH 6 0
BBX 6 10 0 -2
BITMAP
0000
0000
0000
0000
0000
0000
0000
0000
0000
0000
ENDCHAR

STARTCHAR char24
ENCODING 24
SWIDTH 576 0
DWIDTH 6 0
BBX 6 10 0 -2
BITMAP
0000
0000
0000
0000
0000
0000
0000
0000
0000
0000
ENDCHAR

STARTCHAR char25
ENCODING 25
SWIDTH 576 0
DWIDTH 6 0
BBX 6 10 0 -2
BITMAP
0000
0000
0000
0000
0000
0000
0000
0000
0000
0000
ENDCHAR

STARTCHAR char26
ENCODING 26
SWIDTH 576 0
DWIDTH 6 0
BBX 6 10 0 -2
BITMAP
0000
0000
0000
0000
0000
0000
0000
0000
0000
0000
ENDCHAR

STARTCHAR escape
ENCODING 27
SWIDTH 576 0
DWIDTH 6 0
BBX 6 10 0 -2
BITMAP
0000
0000
0000
0000
0000
0000
0000
0000
0000
0000
ENDCHAR

STARTCHAR char28
ENCODING 28
SWIDTH 576 0
DWIDTH 6 0
BBX 6 10 0 -2
BITMAP
0000
0000
0000
0000
0000
0000
0000
0000
0000
0000
ENDCHAR

STARTCHAR group
ENCODING 29
SWIDTH 576 0
DWIDTH 6 0
BBX 6 10 0 -2
BITMAP
0000
001C
001C
001C
0000
001C
001C
001C
0000
0000
ENDCHAR

STARTCHAR char30
ENCODING 30
SWIDTH 576 0
DWIDTH 6 0
BBX 6 10 0 -2
BITMAP
0000
0000
0000
0000
0000
0000
0000
0000
0000
0000
ENDCHAR

STARTCHAR field
ENCODING 31
SWIDTH 576 0
DWIDTH 6 0
BBX 6 10 0 -2
BITMAP
0000
001C
0020
0038
003C
001E
000E
0002
001C
0000
ENDCHAR

STARTCHAR space
ENCODING 32
SWIDTH 576 0
DWIDTH 6 0
BBX 6 10 0 -2
BITMAP
0000
0000
0000
0000
0000
0000
0000
0000
0000
0000
ENDCHAR

STARTCHAR exclam
ENCODING 33
SWIDTH 576 0
DWIDTH 6 0
BBX 6 10 0 -2
BITMAP
0000
0008
0008
0008
0008
0000
0000
001C
0000
0000
ENDCHAR

STARTCHAR dquote
ENCODING 34
SWIDTH 576 0
DWIDTH 6 0
BBX 6 10 0 -2
BITMAP
0000
0014
0014
0014
0000
0000
0000
0000
0000
0000
ENDCHAR

STARTCHAR numbersign
ENCODING 35
SWIDTH 576 0
DWIDTH 6 0
BBX 6 10 0 -2
BITMAP
0000
0014
0014
003E
0014
003E
0014
0014
0000
0000
ENDCHAR

STARTCHAR dollar
ENCODING 36
SWIDTH 576 0
DWIDTH 6 0
BBX 6 10 0 -2
BITMAP
0000
0008
001C
0028
001C
000A
001C
0008
0000
0000
ENDCHAR

STARTCHAR percent
ENCODING 37
SWIDTH 576 0
DWIDTH 6 0
BBX 6 10 0 -2
BITMAP
0000
0012
002A
0014
0008
0014
002A
0024
0000
0000
ENDCHAR

STARTCHAR ampersand
ENCODING 38
SWIDTH 576 0
DWIDTH 6 0
BBX 6 10 0 -2
BITMAP
0000
0010
0028
0028
0010
002A
0024
001A
0000
0000
ENDCHAR

STARTCHAR squote
ENCODING 39
SWIDTH 576 0
DWIDTH 6 0
BBX 6 10 0 -2
BITMAP
0000
0008
0008
0008
0000
0000
0000
0000
0000
0000
ENDCHAR

STARTCHAR parenleft
ENCODING 40
SWIDTH 576 0
DWIDTH 6 0
BBX 6 10 0 -2
BITMAP
0000
0004
0008
0010
0010
0010
0008
0004
0000
0000
ENDCHAR

STARTCHAR parenright
ENCODING 41
SWIDTH 576 0
DWIDTH 6 0
BBX 6 10 0 -2
BITMAP
0000
0010
0008
0004
0004
0004
0008
0010
0000
0000
ENDCHAR

STARTCHAR asterisk
ENCODING 42
SWIDTH 576 0
DWIDTH 6 0
BBX 6 10 0 -2
BITMAP
0000
0000
0022
0014
003E
0014
0022
0000
0000
0000
ENDCHAR

STARTCHAR plus
ENCODING 43
SWIDTH 576 0
DWIDTH 6 0
BBX 6 10 0 -2
BITMAP
0000
0000
0008
0008
003E
0008
0008
0000
0000
0000
ENDCHAR

STARTCHAR comma
ENCODING 44
SWIDTH 576 0
DWIDTH 6 0
BBX 6 10 0 -2
BITMAP
0000
0000
0000
0000
0000
0008
000C
0008
0010
0000
ENDCHAR

STARTCHAR hyphen
ENCODING 45
SWIDTH 576 0
DWIDTH 6 0
BBX 6 10 0 -2
BITMAP
0000
0000
0000
0000
003E
0000
0000
0000
0000
0000
ENDCHAR

STARTCHAR period
ENCODING 46
SWIDTH 576 0
DWIDTH 6 0
BBX 6 10 0 -2
BITMAP
0000
0000
0000
0000
0000
0000
0008
001C
0008
0000
ENDCHAR

STARTCHAR slash
ENCODING 47
SWIDTH 576 0
DWIDTH 6 0
BBX 6 10 0 -2
BITMAP
0000
0002
0002
0004
0008
0010
0020
0020
0000
0000
ENDCHAR

STARTCHAR zero
ENCODING 48
SWIDTH 576 0
DWIDTH 6 0
BBX 6 10 0 -2
BITMAP
0000
001C
0022
002A
002A
002A
0022
001C
0000
0000
ENDCHAR

STARTCHAR one
ENCODING 49
SWIDTH 576 0
DWIDTH 6 0
BBX 6 10 0 -2
BITMAP
0000
0008
0018
0028
0008
0008
0008
003E
0000
0000
ENDCHAR

STARTCHAR two
ENCODING 50
SWIDTH 576 0
DWIDTH 6 0
BBX 6 10 0 -2
BITMAP
0000
001C
0022
0002
000C
0010
0020
003E
0000
0000
ENDCHAR

STARTCHAR three
ENCODING 51
SWIDTH 576 0
DWIDTH 6 0
BBX 6 10 0 -2
BITMAP
0000
003E
0004
0008
001C
0002
0022
001C
0000
0000
ENDCHAR

STARTCHAR four
ENCODING 52
SWIDTH 576 0
DWIDTH 6 0
BBX 6 10 0 -2
BITMAP
0000
0002
0022
0022
003E
0002
0002
0002
0000
0000
ENDCHAR

STARTCHAR five
ENCODING 53
SWIDTH 576 0
DWIDTH 6 0
BBX 6 10 0 -2
BITMAP
0000
003E
0020
002C
0032
0002
0022
001C
0000
0000
ENDCHAR

STARTCHAR six
ENCODING 54
SWIDTH 576 0
DWIDTH 6 0
BBX 6 10 0 -2
BITMAP
0000
000C
0010
0020
002C
0032
0022
001C
0000
0000
ENDCHAR

STARTCHAR seven
ENCODING 55
SWIDTH 576 0
DWIDTH 6 0
BBX 6 10 0 -2
BITMAP
0000
003E
0002
0004
0008
0008
0010
0010
0000
0000
ENDCHAR

STARTCHAR eight
ENCODING 56
SWIDTH 576 0
DWIDTH 6 0
BBX 6 10 0 -2
BITMAP
0000
001C
0022
0022
001C
0022
0022
001C
0000
0000
ENDCHAR

STARTCHAR nine
ENCODING 57
SWIDTH 576 0
DWIDTH 6 0
BBX 6 10 0 -2
BITMAP
0000
001C
0022
0026
001A
0002
0004
0018
0000
0000
ENDCHAR

STARTCHAR colon
ENCODING 58
SWIDTH 576 0
DWIDTH 6 0
BBX 6 10 0 -2
BITMAP
0000
0008
001C
0008
0000
0008
001C
0008
0000
0000
ENDCHAR

STARTCHAR semicolon
ENCODING 59
SWIDTH 576 0
DWIDTH 6 0
BBX 6 10 0 -2
BITMAP
0000
0008
001C
0008
0000
0008
000C
0008
0010
0000
ENDCHAR

STARTCHAR lt
ENCODING 60
SWIDTH 576 0
DWIDTH 6 0
BBX 6 10 0 -2
BITMAP
0000
0002
0004
0008
0010
0008
0004
0002
0000
0000
ENDCHAR

STARTCHAR eq
ENCODING 61
SWIDTH 576 0
DWIDTH 6 0
BBX 6 10 0 -2
BITMAP
0000
0000
0000
003E
0000
003E
0000
0000
0000
0000
ENDCHAR

STARTCHAR gt
ENCODING 62
SWIDTH 576 0
DWIDTH 6 0
BBX 6 10 0 -2
BITMAP
0000
0010
0008
0004
0002
0004
0008
0010
0000
0000
ENDCHAR

STARTCHAR question
ENCODING 63
SWIDTH 576 0
DWIDTH 6 0
BBX 6 10 0 -2
BITMAP
0000
001C
0022
0004
0008
0000
0000
001C
0000
0000
ENDCHAR

STARTCHAR at
ENCODING 64
SWIDTH 576 0
DWIDTH 6 0
BBX 6 10 0 -2
BITMAP
0000
001C
0022
0026
002A
002C
0020
001C
0000
0000
ENDCHAR

STARTCHAR A
ENCODING 65
SWIDTH 576 0
DWIDTH 6 0
BBX 6 10 0 -2
BITMAP
0000
0008
0014
0022
0022
003E
0022
0022
0000
0000
ENDCHAR

STARTCHAR B
ENCODING 66
SWIDTH 576 0
DWIDTH 6 0
BBX 6 10 0 -2
BITMAP
0000
003C
0012
0012
001C
0012
0012
003C
0000
0000
ENDCHAR

STARTCHAR C
ENCODING 67
SWIDTH 576 0
DWIDTH 6 0
BBX 6 10 0 -2
BITMAP
0000
001C
0022
0020
0020
0020
0022
001C
0000
0000
ENDCHAR

STARTCHAR D
ENCODING 68
SWIDTH 576 0
DWIDTH 6 0
BBX 6 10 0 -2
BITMAP
0000
003C
0012
0012
0012
0012
0012
003C
0000
0000
ENDCHAR

STARTCHAR E
ENCODING 69
SWIDTH 576 0
DWIDTH 6 0
BBX 6 10 0 -2
BITMAP
0000
003E
0020
0020
003C
0020
0020
003E
0000
0000
ENDCHAR

STARTCHAR F
ENCODING 70
SWIDTH 576 0
DWIDTH 6 0
BBX 6 10 0 -2
BITMAP
0000
003E
0020
0020
003C
0020
0020
0020
0000
0000
ENDCHAR

STARTCHAR G
ENCODING 71
SWIDTH 576 0
DWIDTH 6 0
BBX 6 10 0 -2
BITMAP
0000
001C
0022
0020
0020
0026
0022
001C
0000
0000
ENDCHAR

STARTCHAR H
ENCODING 72
SWIDTH 576 0
DWIDTH 6 0
BBX 6 10 0 -2
BITMAP
0000
0022
0022
0022
003E
0022
0022
0022
0000
0000
ENDCHAR

STARTCHAR I
ENCODING 73
SWIDTH 576 0
DWIDTH 6 0
BBX 6 10 0 -2
BITMAP
0000
003E
0008
0008
0008
0008
0008
003E
0000
0000
ENDCHAR

STARTCHAR J
ENCODING 74
SWIDTH 576 0
DWIDTH 6 0
BBX 6 10 0 -2
BITMAP
0000
003E
0004
0004
0004
0004
0024
0018
0000
0000
ENDCHAR

STARTCHAR K
ENCODING 75
SWIDTH 576 0
DWIDTH 6 0
BBX 6 10 0 -2
BITMAP
0000
0022
0024
0028
0030
0028
0024
0022
0000
0000
ENDCHAR

STARTCHAR L
ENCODING 76
SWIDTH 576 0
DWIDTH 6 0
BBX 6 10 0 -2
BITMAP
0000
0020
0020
0020
0020
0020
0020
003E
0000
0000
ENDCHAR

STARTCHAR M
ENCODING 77
SWIDTH 576 0
DWIDTH 6 0
BBX 6 10 0 -2
BITMAP
0000
0022
0022
0036
002A
0022
0022
0022
0000
0000
ENDCHAR

STARTCHAR N
ENCODING 78
SWIDTH 576 0
DWIDTH 6 0
BBX 6 10 0 -2
BITMAP
0000
0022
0022
0032
002A
0026
0022
0022
0000
0000
ENDCHAR

STARTCHAR O
ENCODING 79
SWIDTH 576 0
DWIDTH 6 0
BBX 6 10 0 -2
BITMAP
0000
001C
0022
0022
0022
0022
0022
001C
0000
0000
ENDCHAR

STARTCHAR P
ENCODING 80
SWIDTH 576 0
DWIDTH 6 0
BBX 6 10 0 -2
BITMAP
0000
003C
0022
0022
003C
0020
0020
0020
0000
0000
ENDCHAR

STARTCHAR Q
ENCODING 81
SWIDTH 576 0
DWIDTH 6 0
BBX 6 10 0 -2
BITMAP
0000
001C
0022
0022
0022
0022
002A
001C
0002
0000
ENDCHAR

STARTCHAR R
ENCODING 82
SWIDTH 576 0
DWIDTH 6 0
BBX 6 10 0 -2
BITMAP
0000
003C
0022
0022
003C
0028
0024
0022
0000
0000
ENDCHAR

STARTCHAR S
ENCODING 83
SWIDTH 576 0
DWIDTH 6 0
BBX 6 10 0 -2
BITMAP
0000
001C
0022
0020
001C
0002
0022
001C
0000
0000
ENDCHAR

STARTCHAR T
ENCODING 84
SWIDTH 576 0
DWIDTH 6 0
BBX 6 10 0 -2
BITMAP
0000
003E
0008
0008
0008
0008
0008
0008
0000
0000
ENDCHAR

STARTCHAR U
ENCODING 85
SWIDTH 576 0
DWIDTH 6 0
BBX 6 10 0 -2
BITMAP
0000
0022
0022
0022
0022
0022
0022
001C
0000
0000
ENDCHAR

STARTCHAR V
ENCODING 86
SWIDTH 576 0
DWIDTH 6 0
BBX 6 10 0 -2
BITMAP
0000
0022
0022
0022
0014
0014
0014
0008
0000
0000
ENDCHAR

STARTCHAR W
ENCODING 87
SWIDTH 576 0
DWIDTH 6 0
BBX 6 10 0 -2
BITMAP
0000
0022
0022
0022
002A
002A
0036
0022
0000
0000
ENDCHAR

STARTCHAR X
ENCODING 88
SWIDTH 576 0
DWIDTH 6 0
BBX 6 10 0 -2
BITMAP
0000
0022
0022
0014
0008
0014
0022
0022
0000
0000
ENDCHAR

STARTCHAR Y
ENCODING 89
SWIDTH 576 0
DWIDTH 6 0
BBX 6 10 0 -2
BITMAP
0000
0022
0022
0014
0008
0008
0008
0008
0000
0000
ENDCHAR

STARTCHAR Z
ENCODING 90
SWIDTH 576 0
DWIDTH 6 0
BBX 6 10 0 -2
BITMAP
0000
003E
0002
0004
0008
0010
0020
003E
0000
0000
ENDCHAR

STARTCHAR bracketleft
ENCODING 91
SWIDTH 576 0
DWIDTH 6 0
BBX 6 10 0 -2
BITMAP
0000
001C
0010
0010
0010
0010
0010
001C
0000
0000
ENDCHAR

STARTCHAR bslash
ENCODING 92
SWIDTH 576 0
DWIDTH 6 0
BBX 6 10 0 -2
BITMAP
0000
0020
0020
0010
0008
0004
0002
0002
0000
0000
ENDCHAR

STARTCHAR bracketright
ENCODING 93
SWIDTH 576 0
DWIDTH 6 0
BBX 6 10 0 -2
BITMAP
0000
001C
0004
0004
0004
0004
0004
001C
0000
0000
ENDCHAR

STARTCHAR asciicircum
ENCODING 94
SWIDTH 576 0
DWIDTH 6 0
BBX 6 10 0 -2
BITMAP
0000
0008
0014
0022
0000
0000
0000
0000
0000
0000
ENDCHAR

STARTCHAR underscore
ENCODING 95
SWIDTH 576 0
DWIDTH 6 0
BBX 6 10 0 -2
BITMAP
0000
0000
0000
0000
0000
0000
0000
0000
003E
0000
ENDCHAR

STARTCHAR half-long
ENCODING 96
SWIDTH 576 0
DWIDTH 6 0
BBX 6 10 0 -2
BITMAP
0000
0000
003E
001C
0008
0000
0000
0000
0000
0000
ENDCHAR

STARTCHAR a
ENCODING 97
SWIDTH 576 0
DWIDTH 6 0
BBX 6 10 0 -2
BITMAP
0000
0000
0000
001C
0002
001E
0022
001E
0000
0000
ENDCHAR

STARTCHAR b
ENCODING 98
SWIDTH 576 0
DWIDTH 6 0
BBX 6 10 0 -2
BITMAP
0000
0020
0020
003C
0022
0022
0022
001C
0000
0000
ENDCHAR

STARTCHAR c
ENCODING 99
SWIDTH 576 0
DWIDTH 6 0
BBX 6 10 0 -2
BITMAP
0000
0000
0000
001C
0022
0020
0022
001C
0000
0000
ENDCHAR

STARTCHAR d
ENCODING 100
SWIDTH 576 0
DWIDTH 6 0
BBX 6 10 0 -2
BITMAP
0000
0002
0002
001E
0022
0022
0022
001C
0000
0000
ENDCHAR

STARTCHAR e
ENCODING 101
SWIDTH 576 0
DWIDTH 6 0
BBX 6 10 0 -2
BITMAP
0000
0000
0000
001C
0022
003E
0020
001C
0000
0000
ENDCHAR

STARTCHAR f
ENCODING 102
SWIDTH 576 0
DWIDTH 6 0
BBX 6 10 0 -2
BITMAP
0000
000C
0012
0010
003C
0010
0010
0010
0000
0000
ENDCHAR

STARTCHAR g
ENCODING 103
SWIDTH 576 0
DWIDTH 6 0
BBX 6 10 0 -2
BITMAP
0000
0000
0000
001C
0022
0022
001E
0002
0002
001C
ENDCHAR

STARTCHAR h
ENCODING 104
SWIDTH 576 0
DWIDTH 6 0
BBX 6 10 0 -2
BITMAP
0000
0020
0020
003C
0022
0022
0022
0022
0000
0000
ENDCHAR

STARTCHAR i
ENCODING 105
SWIDTH 576 0
DWIDTH 6 0
BBX 6 10 0 -2
BITMAP
0008
0010
0000
0008
0008
0008
0008
001C
0000
0000
ENDCHAR

STARTCHAR j
ENCODING 106
SWIDTH 576 0
DWIDTH 6 0
BBX 6 10 0 -2
BITMAP
0002
0004
0000
0002
0002
0002
0002
0012
0012
000C
ENDCHAR

STARTCHAR k
ENCODING 107
SWIDTH 576 0
DWIDTH 6 0
BBX 6 10 0 -2
BITMAP
0000
0010
0020
0020
0026
0028
0034
0022
0000
0000
ENDCHAR

STARTCHAR l
ENCODING 108
SWIDTH 576 0
DWIDTH 6 0
BBX 6 10 0 -2
BITMAP
0000
0010
0018
0010
0010
0010
0012
000C
0000
0000
ENDCHAR

STARTCHAR m
ENCODING 109
SWIDTH 576 0
DWIDTH 6 0
BBX 6 10 0 -2
BITMAP
0000
0000
0000
0014
002A
002A
0022
0022
0000
0000
ENDCHAR

STARTCHAR n
ENCODING 110
SWIDTH 576 0
DWIDTH 6 0
BBX 6 10 0 -2
BITMAP
0000
0000
0000
001C
0022
0022
0022
0022
0000
0000
ENDCHAR

STARTCHAR o
ENCODING 111
SWIDTH 576 0
DWIDTH 6 0
BBX 6 10 0 -2
BITMAP
0000
0000
0008
001C
002A
0022
0022
001C
0000
0000
ENDCHAR

STARTCHAR p
ENCODING 112
SWIDTH 576 0
DWIDTH 6 0
BBX 6 10 0 -2
BITMAP
0000
0000
0000
001C
0022
0022
0022
003C
0020
0020
ENDCHAR

STARTCHAR q
ENCODING 113
SWIDTH 576 0
DWIDTH 6 0
BBX 6 10 0 -2
BITMAP
0000
0000
0000
001C
0022
0022
0022
001E
0002
0002
ENDCHAR

STARTCHAR r
ENCODING 114
SWIDTH 576 0
DWIDTH 6 0
BBX 6 10 0 -2
BITMAP
0000
0000
0000
001C
0022
0020
0020
0020
0000
0000
ENDCHAR

STARTCHAR s
ENCODING 115
SWIDTH 576 0
DWIDTH 6 0
BBX 6 10 0 -2
BITMAP
0000
0000
0000
001C
0020
001C
0002
003C
0000
0000
ENDCHAR

STARTCHAR t
ENCODING 116
SWIDTH 576 0
DWIDTH 6 0
BBX 6 10 0 -2
BITMAP
0000
0014
0000
003E
0008
0010
0012
000C
0000
0000
ENDCHAR

STARTCHAR u
ENCODING 117
SWIDTH 576 0
DWIDTH 6 0
BBX 6 10 0 -2
BITMAP
0000
0000
0000
0022
0022
0022
0022
001C
0000
0000
ENDCHAR

STARTCHAR v
ENCODING 118
SWIDTH 576 0
DWIDTH 6 0
BBX 6 10 0 -2
BITMAP
0000
0000
0000
0022
0022
0014
0014
0008
0000
0000
ENDCHAR

STARTCHAR w
ENCODING 119
SWIDTH 576 0
DWIDTH 6 0
BBX 6 10 0 -2
BITMAP
0000
0000
0000
0022
0022
002A
002A
0014
0000
0000
ENDCHAR

STARTCHAR x
ENCODING 120
SWIDTH 576 0
DWIDTH 6 0
BBX 6 10 0 -2
BITMAP
0000
0000
0000
0022
0014
0008
0014
0022
0000
0000
ENDCHAR

STARTCHAR y
ENCODING 121
SWIDTH 576 0
DWIDTH 6 0
BBX 6 10 0 -2
BITMAP
0000
0000
0000
0022
0022
0022
001E
0002
0002
001C
ENDCHAR

STARTCHAR z
ENCODING 122
SWIDTH 576 0
DWIDTH 6 0
BBX 6 10 0 -2
BITMAP
0000
0000
0000
003E
0004
0008
0010
003E
0000
0000
ENDCHAR

STARTCHAR braceleft
ENCODING 123
SWIDTH 576 0
DWIDTH 6 0
BBX 6 10 0 -2
BITMAP
0000
0006
0008
0004
0018
0004
0008
0006
0000
0000
ENDCHAR

STARTCHAR pipe
ENCODING 124
SWIDTH 576 0
DWIDTH 6 0
BBX 6 10 0 -2
BITMAP
0000
0008
0008
0008
0000
0008
0008
0008
0000
0000
ENDCHAR

STARTCHAR braceright
ENCODING 125
SWIDTH 576 0
DWIDTH 6 0
BBX 6 10 0 -2
BITMAP
0000
0018
0004
0008
0006
0008
0004
0018
0000
0000
ENDCHAR

STARTCHAR tilda
ENCODING 126
SWIDTH 576 0
DWIDTH 6 0
BBX 6 10 0 -2
BITMAP
0000
0000
0000
0012
002A
0024
0000
0000
0000
0000
ENDCHAR

STARTCHAR bs
ENCODING 127
SWIDTH 576 0
DWIDTH 6 0
BBX 6 10 0 -2
BITMAP
0000
0000
0000
000C
001E
001E
000C
0000
0000
0000
ENDCHAR

STARTCHAR wall_horz
ENCODING 128
SWIDTH 576 0
DWIDTH 6 0
BBX 6 10 0 -2
BITMAP
0000
0000
0000
0000
003F
0000
0000
0000
0000
0000
ENDCHAR

STARTCHAR wall_vert
ENCODING 129
SWIDTH 576 0
DWIDTH 6 0
BBX 6 10 0 -2
BITMAP
0008
0008
0008
0008
0008
0008
0008
0008
0008
0008
ENDCHAR

STARTCHAR left_down
ENCODING 130
SWIDTH 576 0
DWIDTH 6 0
BBX 6 10 0 -2
BITMAP
0000
0000
0000
0000
0030
0008
0008
0008
0008
0008
ENDCHAR

STARTCHAR up_right
ENCODING 131
SWIDTH 576 0
DWIDTH 6 0
BBX 6 10 0 -2
BITMAP
0000
0000
0000
0000
0007
0008
0008
0008
0008
0008
ENDCHAR

STARTCHAR down_right
ENCODING 132
SWIDTH 576 0
DWIDTH 6 0
BBX 6 10 0 -2
BITMAP
0008
0008
0008
0008
0007
0000
0000
0000
0000
0000
ENDCHAR

STARTCHAR down_left
ENCODING 133
SWIDTH 576 0
DWIDTH 6 0
BBX 6 10 0 -2
BITMAP
0008
0008
0008
0008
0030
0000
0000
0000
0000
0000
ENDCHAR

STARTCHAR left_t
ENCODING 134
SWIDTH 576 0
DWIDTH 6 0
BBX 6 10 0 -2
BITMAP
0008
0008
0008
0010
0020
0010
0008
0008
0008
0008
ENDCHAR

STARTCHAR right_t
ENCODING 135
SWIDTH 576 0
DWIDTH 6 0
BBX 6 10 0 -2
BITMAP
0008
0008
0008
0004
0003
0004
0008
0008
0008
0008
ENDCHAR

STARTCHAR up_t
ENCODING 136
SWIDTH 576 0
DWIDTH 6 0
BBX 6 10 0 -2
BITMAP
0008
0008
0008
0014
0023
0000
0000
0000
0000
0000
ENDCHAR

STARTCHAR down_t
ENCODING 137
SWIDTH 576 0
DWIDTH 6 0
BBX 6 10 0 -2
BITMAP
0000
0000
0000
0000
0023
0014
0008
0008
0008
0008
ENDCHAR

STARTCHAR fourway
ENCODING 138
SWIDTH 576 0
DWIDTH 6 0
BBX 6 10 0 -2
BITMAP
0008
0008
0008
0014
0023
0014
0008
0008
0008
0008
ENDCHAR

STARTCHAR vert_open
ENCODING 139
SWIDTH 576 0
DWIDTH 6 0
BBX 6 10 0 -2
BITMAP
001C
0000
0000
0000
0000
0000
0000
0000
001C
0008
ENDCHAR

STARTCHAR vert_win
ENCODING 140
SWIDTH 576 0
DWIDTH 6 0
BBX 6 10 0 -2
BITMAP
0000
0000
0008
0000
0000
0008
0000
0000
0008
0000
ENDCHAR

STARTCHAR vert_door1
ENCODING 141
SWIDTH 576 0
DWIDTH 6 0
BBX 6 10 0 -2
BITMAP
0008
0008
0004
0002
0000
0020
0010
0008
0008
0008
ENDCHAR

STARTCHAR vert_door2
ENCODING 142
SWIDTH 576 0
DWIDTH 6 0
BBX 6 10 0 -2
BITMAP
0008
0008
0010
0020
0000
0002
0004
0008
0008
0008
ENDCHAR

STARTCHAR result
ENCODING 143
SWIDTH 576 0
DWIDTH 6 0
BBX 6 10 0 -2
BITMAP
0000
0000
0000
0008
0000
0014
0000
0000
0000
0000
ENDCHAR

STARTCHAR horz_open1
ENCODING 144
SWIDTH 576 0
DWIDTH 6 0
BBX 6 10 0 -2
BITMAP
0000
0000
0000
0010
0030
0010
0000
0000
0000
0000
ENDCHAR

STARTCHAR horz_open2
ENCODING 145
SWIDTH 576 0
DWIDTH 6 0
BBX 6 10 0 -2
BITMAP
0000
0000
0000
0002
0003
0002
0000
0000
0000
0000
ENDCHAR

STARTCHAR door_down1
ENCODING 146
SWIDTH 576 0
DWIDTH 6 0
BBX 6 10 0 -2
BITMAP
0000
0000
0000
0000
0030
0008
0004
0002
0000
0000
ENDCHAR

STARTCHAR door_down2
ENCODING 147
SWIDTH 576 0
DWIDTH 6 0
BBX 6 10 0 -2
BITMAP
0000
0010
0008
0004
0003
0000
0000
0000
0000
0000
ENDCHAR

STARTCHAR half_top
ENCODING 148
SWIDTH 576 0
DWIDTH 6 0
BBX 6 10 0 -2
BITMAP
0008
0008
0008
0008
001C
0000
0000
0000
0000
0000
ENDCHAR

STARTCHAR half_bot
ENCODING 149
SWIDTH 576 0
DWIDTH 6 0
BBX 6 10 0 -2
BITMAP
0000
0000
0000
0000
001C
0008
0008
0008
0008
0008
ENDCHAR

STARTCHAR door_up1
ENCODING 150
SWIDTH 576 0
DWIDTH 6 0
BBX 6 10 0 -2
BITMAP
0000
0002
0004
0008
0030
0000
0000
0000
0000
0000
ENDCHAR

STARTCHAR door_up2
ENCODING 151
SWIDTH 576 0
DWIDTH 6 0
BBX 6 10 0 -2
BITMAP
0000
0000
0000
0000
0003
0004
0008
0010
0000
0000
ENDCHAR

STARTCHAR plusminus
ENCODING 152
SWIDTH 576 0
DWIDTH 6 0
BBX 6 10 0 -2
BITMAP
0000
0008
0008
003E
0008
0008
0000
003E
0000
0000
ENDCHAR

STARTCHAR infinity
ENCODING 153
SWIDTH 576 0
DWIDTH 6 0
BBX 6 10 0 -2
BITMAP
0000
001C
0022
0014
0008
0008
0014
0022
001C
0000
ENDCHAR

STARTCHAR function
ENCODING 154
SWIDTH 576 0
DWIDTH 6 0
BBX 6 10 0 -2
BITMAP
0006
0008
0008
0008
003E
0008
0008
0008
0030
0000
ENDCHAR

STARTCHAR dslash
ENCODING 155
SWIDTH 576 0
DWIDTH 6 0
BBX 6 10 0 -2
BITMAP
0000
0002
0004
0008
0012
0004
0008
0010
0000
0000
ENDCHAR

STARTCHAR tooth_up
ENCODING 156
SWIDTH 576 0
DWIDTH 6 0
BBX 6 10 0 -2
BITMAP
0000
0000
001E
0012
003F
0000
0000
0000
0000
0000
ENDCHAR

STARTCHAR tooth_down
ENCODING 157
SWIDTH 576 0
DWIDTH 6 0
BBX 6 10 0 -2
BITMAP
0000
0000
0000
0000
003F
0012
001E
0000
0000
0000
ENDCHAR

STARTCHAR tooth_right
ENCODING 158
SWIDTH 576 0
DWIDTH 6 0
BBX 6 10 0 -2
BITMAP
0008
000E
000A
000A
000E
0008
000E
000A
000A
000E
ENDCHAR

STARTCHAR tooth_left
ENCODING 159
SWIDTH 576 0
DWIDTH 6 0
BBX 6 10 0 -2
BITMAP
0008
0038
0028
0028
0038
0008
0038
0028
0028
0038
ENDCHAR

STARTCHAR empty
ENCODING 160
SWIDTH 576 0
DWIDTH 6 0
BBX 6 10 0 -2
BITMAP
0000
0000
0008
0022
0000
0022
0008
0000
0000
0000
ENDCHAR

STARTCHAR rexclam
ENCODING 161
SWIDTH 576 0
DWIDTH 6 0
BBX 6 10 0 -2
BITMAP
0000
001C
0000
0000
0008
0008
0008
0008
0000
0000
ENDCHAR

STARTCHAR rquest
ENCODING 162
SWIDTH 576 0
DWIDTH 6 0
BBX 6 10 0 -2
BITMAP
0000
001C
0000
0000
0008
0010
0022
001C
0000
0000
ENDCHAR

STARTCHAR null
ENCODING 163
SWIDTH 576 0
DWIDTH 6 0
BBX 6 10 0 -2
BITMAP
0000
001C
0022
0026
002A
0032
0022
001C
0000
0000
ENDCHAR

STARTCHAR place
ENCODING 164
SWIDTH 576 0
DWIDTH 6 0
BBX 6 10 0 -2
BITMAP
0000
0000
0022
001C
0014
001C
0022
0000
0000
0000
ENDCHAR

STARTCHAR escape
ENCODING 165
SWIDTH 576 0
DWIDTH 6 0
BBX 6 10 0 -2
BITMAP
0000
0022
0022
0014
003E
0008
0008
0008
0000
0000
ENDCHAR

STARTCHAR return
ENCODING 166
SWIDTH 576 0
DWIDTH 6 0
BBX 6 10 0 -2
BITMAP
0000
001E
002A
002A
001A
000A
000A
000A
0000
0000
ENDCHAR

STARTCHAR field
ENCODING 167
SWIDTH 576 0
DWIDTH 6 0
BBX 6 10 0 -2
BITMAP
0000
001C
0022
0038
0024
0012
000E
0022
001C
0000
ENDCHAR

STARTCHAR group
ENCODING 168
SWIDTH 576 0
DWIDTH 6 0
BBX 6 10 0 -2
BITMAP
0000
0014
0014
0014
0000
0014
0014
0014
0000
0000
ENDCHAR

STARTCHAR diamond
ENCODING 169
SWIDTH 576 0
DWIDTH 6 0
BBX 6 10 0 -2
BITMAP
0000
0008
0008
0014
0022
0014
0008
0008
0000
0000
ENDCHAR

STARTCHAR break
ENCODING 170
SWIDTH 576 0
DWIDTH 6 0
BBX 6 10 0 -2
BITMAP
0000
001C
0022
0022
001C
0008
0008
003E
0000
0000
ENDCHAR

STARTCHAR long
ENCODING 171
SWIDTH 576 0
DWIDTH 6 0
BBX 6 10 0 -2
BITMAP
0000
003E
001C
0008
0000
0008
001C
003E
0000
0000
ENDCHAR

STARTCHAR mask
ENCODING 172
SWIDTH 576 0
DWIDTH 6 0
BBX 6 10 0 -2
BITMAP
0000
0012
0024
0008
0012
0024
0008
0012
0024
0000
ENDCHAR

STARTCHAR display
ENCODING 173
SWIDTH 576 0
DWIDTH 6 0
BBX 6 10 0 -2
BITMAP
0000
002D
001E
0021
000C
001E
000C
0000
0000
0000
ENDCHAR

STARTCHAR summary
ENCODING 174
SWIDTH 576 0
DWIDTH 6 0
BBX 6 10 0 -2
BITMAP
0000
003E
0010
0008
0004
0008
0010
003E
0000
0000
ENDCHAR

STARTCHAR system
ENCODING 175
SWIDTH 576 0
DWIDTH 6 0
BBX 6 10 0 -2
BITMAP
0000
002A
002A
002A
001C
002A
002A
002A
0000
0000
ENDCHAR

STARTCHAR redact
ENCODING 176
SWIDTH 576 0
DWIDTH 6 0
BBX 6 10 0 -2
BITMAP
0000
003E
003E
003E
003E
003E
003E
003E
003E
0000
ENDCHAR

STARTCHAR bump
ENCODING 177
SWIDTH 576 0
DWIDTH 6 0
BBX 6 10 0 -2
BITMAP
0000
0000
0000
0000
0000
0008
001C
003E
0000
0000
ENDCHAR

STARTCHAR storage
ENCODING 178
SWIDTH 576 0
DWIDTH 6 0
BBX 6 10 0 -2
BITMAP
0000
0000
0000
0000
0012
0000
0000
0000
0000
0000
ENDCHAR

STARTCHAR halt
ENCODING 179
SWIDTH 576 0
DWIDTH 6 0
BBX 6 10 0 -2
BITMAP
0000
0000
0000
001E
001E
001E
001E
0000
0000
0000
ENDCHAR

STARTCHAR bigdot
ENCODING 180
SWIDTH 576 0
DWIDTH 6 0
BBX 6 10 0 -2
BITMAP
0000
0000
0000
000C
001E
000C
0000
0000
0000
0000
ENDCHAR

STARTCHAR dbslash
ENCODING 181
SWIDTH 576 0
DWIDTH 6 0
BBX 6 10 0 -2
BITMAP
0000
0010
0008
0004
0012
0008
0004
0002
0000
0000
ENDCHAR

STARTCHAR ddquote
ENCODING 182
SWIDTH 576 0
DWIDTH 6 0
BBX 6 10 0 -2
BITMAP
0000
000A
000A
000A
0000
0010
0008
0004
0002
0000
ENDCHAR

STARTCHAR space
ENCODING 183
SWIDTH 576 0
DWIDTH 6 0
BBX 6 10 0 -2
BITMAP
0000
0000
0000
0000
0008
0000
0000
0000
0000
0000
ENDCHAR

STARTCHAR slparen
ENCODING 184
SWIDTH 576 0
DWIDTH 6 0
BBX 6 10 0 -2
BITMAP
0006
0008
0018
0014
0004
0014
0018
0008
0006
0000
ENDCHAR

STARTCHAR srparen
ENCODING 185
SWIDTH 576 0
DWIDTH 6 0
BBX 6 10 0 -2
BITMAP
0030
0008
000C
0014
0010
0014
000C
0008
0030
0000
ENDCHAR

STARTCHAR slbrack
ENCODING 186
SWIDTH 576 0
DWIDTH 6 0
BBX 6 10 0 -2
BITMAP
001E
0010
0008
0004
0004
0004
0008
0010
001E
0000
ENDCHAR

STARTCHAR srbrack
ENCODING 187
SWIDTH 576 0
DWIDTH 6 0
BBX 6 10 0 -2
BITMAP
003C
0004
0008
0010
0010
0010
0008
0004
003C
0000
ENDCHAR

STARTCHAR slchev
ENCODING 188
SWIDTH 576 0
DWIDTH 6 0
BBX 6 10 0 -2
BITMAP
0000
0010
0018
001C
001E
001C
0018
0010
0000
0000
ENDCHAR

STARTCHAR srchev
ENCODING 189
SWIDTH 576 0
DWIDTH 6 0
BBX 6 10 0 -2
BITMAP
0000
0004
000C
001C
003C
001C
000C
0004
0000
0000
ENDCHAR

STARTCHAR del
ENCODING 190
SWIDTH 576 0
DWIDTH 6 0
BBX 6 10 0 -2
BITMAP
0000
0010
0018
0014
0012
0014
0018
0010
0000
0000
ENDCHAR

STARTCHAR bs
ENCODING 191
SWIDTH 576 0
DWIDTH 6 0
BBX 6 10 0 -2
BITMAP
0000
0002
0006
000A
0012
000A
0006
0002
0000
0000
ENDCHAR

STARTCHAR sub0
ENCODING 192
SWIDTH 576 0
DWIDTH 6 0
BBX 6 10 0 -2
BITMAP
0000
0000
0000
0000
0018
0024
0024
0024
0018
0000
ENDCHAR

STARTCHAR sub1
ENCODING 193
SWIDTH 576 0
DWIDTH 6 0
BBX 6 10 0 -2
BITMAP
0000
0000
0000
0000
0008
0018
0008
0008
001C
0000
ENDCHAR

STARTCHAR sub2
ENCODING 194
SWIDTH 576 0
DWIDTH 6 0
BBX 6 10 0 -2
BITMAP
0000
0000
0000
0000
0018
0024
0008
0010
003C
0000
ENDCHAR

STARTCHAR sub3
ENCODING 195
SWIDTH 576 0
DWIDTH 6 0
BBX 6 10 0 -2
BITMAP
0000
0000
0000
0000
0038
0004
0018
0004
0038
0000
ENDCHAR

STARTCHAR sub4
ENCODING 196
SWIDTH 576 0
DWIDTH 6 0
BBX 6 10 0 -2
BITMAP
0000
0000
0000
0000
0024
0024
003C
0004
0004
0000
ENDCHAR

STARTCHAR subn
ENCODING 197
SWIDTH 576 0
DWIDTH 6 0
BBX 6 10 0 -2
BITMAP
0000
0000
0000
0000
0018
0024
0024
0024
0024
0000
ENDCHAR

STARTCHAR pow2
ENCODING 198
SWIDTH 576 0
DWIDTH 6 0
BBX 6 10 0 -2
BITMAP
0018
0024
0008
0010
003C
0000
0000
0000
0000
0000
ENDCHAR

STARTCHAR pow3
ENCODING 199
SWIDTH 576 0
DWIDTH 6 0
BBX 6 10 0 -2
BITMAP
0038
0004
0018
0004
0038
0000
0000
0000
0000
0000
ENDCHAR

STARTCHAR pow4
ENCODING 200
SWIDTH 576 0
DWIDTH 6 0
BBX 6 10 0 -2
BITMAP
0024
0024
003C
0004
0004
0000
0000
0000
0000
0000
ENDCHAR

STARTCHAR powx
ENCODING 201
SWIDTH 576 0
DWIDTH 6 0
BBX 6 10 0 -2
BITMAP
0024
0024
0018
0024
0024
0000
0000
0000
0000
0000
ENDCHAR

STARTCHAR powy
ENCODING 202
SWIDTH 576 0
DWIDTH 6 0
BBX 6 10 0 -2
BITMAP
0024
0024
0018
0010
0020
0000
0000
0000
0000
0000
ENDCHAR

STARTCHAR sci-note
ENCODING 203
SWIDTH 576 0
DWIDTH 6 0
BBX 6 10 0 -2
BITMAP
0000
0000
0000
0000
0012
0012
000C
0012
0012
0000
ENDCHAR

STARTCHAR degree
ENCODING 204
SWIDTH 576 0
DWIDTH 6 0
BBX 6 10 0 -2
BITMAP
0018
0024
0024
0018
0000
0000
0000
0000
0000
0000
ENDCHAR

STARTCHAR radian
ENCODING 205
SWIDTH 576 0
DWIDTH 6 0
BBX 6 10 0 -2
BITMAP
000C
0012
0010
0010
0000
0000
0000
0000
0000
0000
ENDCHAR

STARTCHAR sqrt
ENCODING 206
SWIDTH 576 0
DWIDTH 6 0
BBX 6 10 0 -2
BITMAP
000E
0008
0028
0018
0008
0000
0000
0000
0000
0000
ENDCHAR

STARTCHAR hugedot
ENCODING 207
SWIDTH 576 0
DWIDTH 6 0
BBX 6 10 0 -2
BITMAP
0000
0000
001C
003E
003E
003E
001C
0000
0000
0000
ENDCHAR

STARTCHAR and
ENCODING 208
SWIDTH 576 0
DWIDTH 6 0
BBX 6 10 0 -2
BITMAP
0000
0008
0000
0008
0014
0022
0000
0000
0000
0000
ENDCHAR

STARTCHAR or
ENCODING 209
SWIDTH 576 0
DWIDTH 6 0
BBX 6 10 0 -2
BITMAP
0000
0000
0000
0022
0014
0008
0000
0008
0000
0000
ENDCHAR

STARTCHAR xor
ENCODING 210
SWIDTH 576 0
DWIDTH 6 0
BBX 6 10 0 -2
BITMAP
0000
0000
0000
0022
0014
0008
0000
003E
0000
0000
ENDCHAR

STARTCHAR iff/xnor
ENCODING 211
SWIDTH 576 0
DWIDTH 6 0
BBX 6 10 0 -2
BITMAP
0000
003E
0000
0008
0014
0022
0000
0000
0000
0000
ENDCHAR

STARTCHAR up/nand
ENCODING 212
SWIDTH 576 0
DWIDTH 6 0
BBX 6 10 0 -2
BITMAP
0000
0000
0008
001C
002A
0008
0008
0000
0000
0000
ENDCHAR

STARTCHAR down/nor
ENCODING 213
SWIDTH 576 0
DWIDTH 6 0
BBX 6 10 0 -2
BITMAP
0000
0000
0008
0008
002A
001C
0008
0000
0000
0000
ENDCHAR

STARTCHAR right/prove
ENCODING 214
SWIDTH 576 0
DWIDTH 6 0
BBX 6 10 0 -2
BITMAP
0000
0000
0008
0004
003E
0004
0008
0000
0000
0000
ENDCHAR

STARTCHAR left/contrib
ENCODING 215
SWIDTH 576 0
DWIDTH 6 0
BBX 6 10 0 -2
BITMAP
0000
0000
0008
0010
003E
0010
0008
0000
0000
0000
ENDCHAR

STARTCHAR unlikely
ENCODING 216
SWIDTH 576 0
DWIDTH 6 0
BBX 6 10 0 -2
BITMAP
0000
0000
0014
0014
0014
0014
003E
0000
0000
0000
ENDCHAR

STARTCHAR likely
ENCODING 217
SWIDTH 576 0
DWIDTH 6 0
BBX 6 10 0 -2
BITMAP
0000
0000
0020
003E
0020
003E
0020
0000
0000
0000
ENDCHAR

STARTCHAR false
ENCODING 218
SWIDTH 576 0
DWIDTH 6 0
BBX 6 10 0 -2
BITMAP
0000
0000
0008
0008
0008
0008
003E
0000
0000
0000
ENDCHAR

STARTCHAR true
ENCODING 219
SWIDTH 576 0
DWIDTH 6 0
BBX 6 10 0 -2
BITMAP
0000
0000
0020
0020
003E
0020
0020
0000
0000
0000
ENDCHAR

STARTCHAR less_or_eq
ENCODING 220
SWIDTH 576 0
DWIDTH 6 0
BBX 6 10 0 -2
BITMAP
0000
0002
0004
0008
0010
0008
0024
0032
0000
0000
ENDCHAR

STARTCHAR great_or_eq
ENCODING 221
SWIDTH 576 0
DWIDTH 6 0
BBX 6 10 0 -2
BITMAP
0000
0020
0010
0008
0004
0008
0012
0026
0000
0000
ENDCHAR

STARTCHAR not_eq
ENCODING 222
SWIDTH 576 0
DWIDTH 6 0
BBX 6 10 0 -2
BITMAP
0000
0002
0004
003E
0008
003E
0010
0020
0000
0000
ENDCHAR

STARTCHAR approx
ENCODING 223
SWIDTH 576 0
DWIDTH 6 0
BBX 6 10 0 -2
BITMAP
0000
0000
0010
002A
0004
0010
002A
0004
0000
0000
ENDCHAR

STARTCHAR equivalent
ENCODING 224
SWIDTH 576 0
DWIDTH 6 0
BBX 6 10 0 -2
BITMAP
0000
0000
003E
0000
003E
0000
003E
0000
0000
0000
ENDCHAR

STARTCHAR pointer
ENCODING 225
SWIDTH 576 0
DWIDTH 6 0
BBX 6 10 0 -2
BITMAP
0000
0000
0000
000C
0012
000C
0000
0000
0000
0000
ENDCHAR

STARTCHAR subset
ENCODING 226
SWIDTH 576 0
DWIDTH 6 0
BBX 6 10 0 -2
BITMAP
0000
0000
001E
0001
0001
0001
001E
0000
0000
0000
ENDCHAR

STARTCHAR membership
ENCODING 227
SWIDTH 576 0
DWIDTH 6 0
BBX 6 10 0 -2
BITMAP
0000
0000
001E
0001
001F
0001
001E
0000
0000
0000
ENDCHAR

STARTCHAR for_each
ENCODING 228
SWIDTH 576 0
DWIDTH 6 0
BBX 6 10 0 -2
BITMAP
0000
0000
0022
0022
003E
0014
0008
0000
0000
0000
ENDCHAR

STARTCHAR left_gull
ENCODING 229
SWIDTH 576 0
DWIDTH 6 0
BBX 6 10 0 -2
BITMAP
001E
0010
0010
0010
000C
0010
0010
0010
001E
0000
ENDCHAR

STARTCHAR right_gull
ENCODING 230
SWIDTH 576 0
DWIDTH 6 0
BBX 6 10 0 -2
BITMAP
003C
0004
0004
0004
0018
0004
0004
0004
003C
0000
ENDCHAR

STARTCHAR localize
ENCODING 231
SWIDTH 576 0
DWIDTH 6 0
BBX 6 10 0 -2
BITMAP
0000
0000
0004
0002
0003
0002
0004
0000
0000
0000
ENDCHAR

STARTCHAR alpha
ENCODING 232
SWIDTH 576 0
DWIDTH 6 0
BBX 6 10 0 -2
BITMAP
0000
001A
0024
0024
0024
0024
0024
001A
0000
0000
ENDCHAR

STARTCHAR beta
ENCODING 233
SWIDTH 576 0
DWIDTH 6 0
BBX 6 10 0 -2
BITMAP
0000
0018
0024
0024
002C
0022
0032
002C
0020
0000
ENDCHAR

STARTCHAR gamma
ENCODING 234
SWIDTH 576 0
DWIDTH 6 0
BBX 6 10 0 -2
BITMAP
0000
0022
0022
0014
0008
0014
0022
001C
0000
0000
ENDCHAR

STARTCHAR delta
ENCODING 235
SWIDTH 576 0
DWIDTH 6 0
BBX 6 10 0 -2
BITMAP
0000
003C
0022
0018
0024
0022
0022
001C
0000
0000
ENDCHAR

STARTCHAR epsilon
ENCODING 236
SWIDTH 576 0
DWIDTH 6 0
BBX 6 10 0 -2
BITMAP
0000
001C
0022
0020
0018
0020
0022
001C
0000
0000
ENDCHAR

STARTCHAR zeta
ENCODING 237
SWIDTH 576 0
DWIDTH 6 0
BBX 6 10 0 -2
BITMAP
0000
003E
0022
0004
0000
0010
0022
003E
0000
0000
ENDCHAR

STARTCHAR eta
ENCODING 238
SWIDTH 576 0
DWIDTH 6 0
BBX 6 10 0 -2
BITMAP
0000
002C
0032
0022
0022
0022
0002
0002
0002
0000
ENDCHAR

STARTCHAR theta
ENCODING 239
SWIDTH 576 0
DWIDTH 6 0
BBX 6 10 0 -2
BITMAP
0000
000C
0012
0012
003F
0012
0012
000C
0000
0000
ENDCHAR

STARTCHAR iota
ENCODING 240
SWIDTH 576 0
DWIDTH 6 0
BBX 6 10 0 -2
BITMAP
0000
0008
0018
0028
0008
000A
000C
0008
0000
0000
ENDCHAR

STARTCHAR lllllllllllllll
ENCODING 241
SWIDTH 576 0
DWIDTH 6 0
BBX 6 10 0 -2
BITMAP
0000
0020
0010
0012
0014
001C
0024
0004
0002
0000
ENDCHAR

STARTCHAR lambda
ENCODING 242
SWIDTH 576 0
DWIDTH 6 0
BBX 6 10 0 -2
BITMAP
0000
0010
0008
0008
0014
0014
0022
0022
0002
0000
ENDCHAR

STARTCHAR lllllmahhhhhhhh
ENCODING 243
SWIDTH 576 0
DWIDTH 6 0
BBX 6 10 0 -2
BITMAP
0000
0022
0022
0022
003C
0020
0020
0020
0000
0000
ENDCHAR

STARTCHAR nu
ENCODING 244
SWIDTH 576 0
DWIDTH 6 0
BBX 6 10 0 -2
BITMAP
0000
0022
0022
0024
0028
0030
0020
0020
0000
0000
ENDCHAR

STARTCHAR hhhhhhhhhhhhhhh
ENCODING 245
SWIDTH 576 0
DWIDTH 6 0
BBX 6 10 0 -2
BITMAP
0000
003E
0000
0000
001C
0000
0000
003E
0000
0000
ENDCHAR

STARTCHAR omicron
ENCODING 246
SWIDTH 576 0
DWIDTH 6 0
BBX 6 10 0 -2
BITMAP
0000
0018
0020
0022
0022
0022
0002
000C
0000
0000
ENDCHAR

STARTCHAR hhhhhhhhhhhhhhh
ENCODING 247
SWIDTH 576 0
DWIDTH 6 0
BBX 6 10 0 -2
BITMAP
0000
003F
0012
0012
0012
0012
0012
0012
0000
0000
ENDCHAR

STARTCHAR rho
ENCODING 248
SWIDTH 576 0
DWIDTH 6 0
BBX 6 10 0 -2
BITMAP
0000
001C
0022
0022
0022
003C
0020
0020
0010
0000
ENDCHAR

STARTCHAR hhhhhhhhhhhhhhh
ENCODING 249
SWIDTH 576 0
DWIDTH 6 0
BBX 6 10 0 -2
BITMAP
0000
0006
0018
0024
0022
0022
0022
001C
0000
0000
ENDCHAR

STARTCHAR tau
ENCODING 250
SWIDTH 576 0
DWIDTH 6 0
BBX 6 10 0 -2
BITMAP
0000
003E
0004
0008
0010
0010
0012
000C
0000
0000
ENDCHAR

STARTCHAR hhhhhhhhmb'a
ENCODING 251
SWIDTH 576 0
DWIDTH 6 0
BBX 6 10 0 -2
BITMAP
0000
001C
002A
002A
002A
002A
0008
0008
0008
0000
ENDCHAR

STARTCHAR phi
ENCODING 252
SWIDTH 576 0
DWIDTH 6 0
BBX 6 10 0 -2
BITMAP
0000
0008
001C
002A
002A
002A
001C
0008
0008
0000
ENDCHAR

STARTCHAR ===============
ENCODING 253
SWIDTH 576 0
DWIDTH 6 0
BBX 6 10 0 -2
BITMAP
0000
0002
0022
0014
0008
0014
0022
0020
0020
0000
ENDCHAR

STARTCHAR psi
ENCODING 254
SWIDTH 576 0
DWIDTH 6 0
BBX 6 10 0 -2
BITMAP
0000
002A
002A
002A
002A
001C
0008
0008
0008
0000
ENDCHAR

STARTCHAR ========
ENCODING 255
SWIDTH 576 0
DWIDTH 6 0
BBX 6 10 0 -2
BITMAP
0000
001C
0022
0022
0022
0022
0014
0014
0022
0000
ENDCHAR

ENDFONT
