STARTFONT 2.1
FONT -heatherly-square-medium-r-normal--9-90-75-75-c-60-iso8859-1
SIZE 9 75 75
FONTBOUNDINGBOX 9 9 0 -1

STARTPROPERTIES 23
  FONTNAME_REGISTRY ""
  FOUNDRY           "heatherly"
  FAMILY_NAME       "square"
  WEIGHT_NAME       "medium"
  SLANT             "r"
  SETWIDTH_NAME     "normal"
  ADD_STYLE_NAME    ""
  PIXEL_SIZE        "9"
  POINT_SIZE        "90"
  RESOLUTION_X      "75"
  RESOLUTION_Y      "75"
  SPACING           "c"
  AVERAGE_WIDTH     "60"
  CHARSET_REGISTRY  "iso8859"
  CHARSET_ENCODING  "1"
  COPYRIGHT         "none"
  CAP_HEIGHT        7
  X_HEIGHT          5
  WEIGHT            9
  RESOLUTION        103
  QUAD_WIDTH        9
  FONT_ASCENT       8
  FONT_DESCENT      1
ENDPROPERTIES

CHARS 256

STARTCHAR NUL
ENCODING 0
SWIDTH 864 0
DWIDTH 9 0
BBX 9 9 0 -1
BITMAP
0000
0000
0000
0000
0000
0000
0000
0000
0000
ENDCHAR

STARTCHAR SCH
ENCODING 1
SWIDTH 864 0
DWIDTH 9 0
BBX 9 9 0 -1
BITMAP
0000
0000
0000
0000
0000
0000
0000
0000
0000
ENDCHAR

STARTCHAR STX
ENCODING 2
SWIDTH 864 0
DWIDTH 9 0
BBX 9 9 0 -1
BITMAP
0000
0000
0000
0000
0000
0000
0000
0000
0000
ENDCHAR

STARTCHAR ETX
ENCODING 3
SWIDTH 864 0
DWIDTH 9 0
BBX 9 9 0 -1
BITMAP
0000
0000
0000
0000
0000
0000
0000
0000
0000
ENDCHAR

STARTCHAR EOT
ENCODING 4
SWIDTH 864 0
DWIDTH 9 0
BBX 9 9 0 -1
BITMAP
0000
0000
0000
0000
0000
0000
0000
0000
0000
ENDCHAR

STARTCHAR ENQ
ENCODING 5
SWIDTH 864 0
DWIDTH 9 0
BBX 9 9 0 -1
BITMAP
0000
0000
0000
0000
0000
0000
0000
0000
0000
ENDCHAR

STARTCHAR ACK
ENCODING 6
SWIDTH 864 0
DWIDTH 9 0
BBX 9 9 0 -1
BITMAP
0000
0000
0000
0000
0000
0000
0000
0000
0000
ENDCHAR

STARTCHAR BEL
ENCODING 7
SWIDTH 864 0
DWIDTH 9 0
BBX 9 9 0 -1
BITMAP
0000
0000
0000
0000
0000
0000
0000
0000
0000
ENDCHAR

STARTCHAR BS
ENCODING 8
SWIDTH 864 0
DWIDTH 9 0
BBX 9 9 0 -1
BITMAP
0000
0000
0000
0000
0000
0000
0000
0000
0000
ENDCHAR

STARTCHAR tab
ENCODING 9
SWIDTH 864 0
DWIDTH 9 0
BBX 9 9 0 -1
BITMAP
0000
0000
0000
0000
0000
0000
0000
0000
0000
ENDCHAR

STARTCHAR return
ENCODING 10
SWIDTH 864 0
DWIDTH 9 0
BBX 9 9 0 -1
BITMAP
0000
0000
0000
0000
0000
0000
0000
0000
0000
ENDCHAR

STARTCHAR VT
ENCODING 11
SWIDTH 864 0
DWIDTH 9 0
BBX 9 9 0 -1
BITMAP
0000
0000
0000
0000
0000
0000
0000
0000
0000
ENDCHAR

STARTCHAR FF
ENCODING 12
SWIDTH 864 0
DWIDTH 9 0
BBX 9 9 0 -1
BITMAP
0000
0000
0000
0000
0000
0000
0000
0000
0000
ENDCHAR

STARTCHAR enter
ENCODING 13
SWIDTH 864 0
DWIDTH 9 0
BBX 9 9 0 -1
BITMAP
0000
0000
0000
0000
0000
0000
0000
0000
0000
ENDCHAR

STARTCHAR SO
ENCODING 14
SWIDTH 864 0
DWIDTH 9 0
BBX 9 9 0 -1
BITMAP
0000
0000
0000
0000
0000
0000
0000
0000
0000
ENDCHAR

STARTCHAR SI
ENCODING 15
SWIDTH 864 0
DWIDTH 9 0
BBX 9 9 0 -1
BITMAP
0000
0000
0000
0000
0000
0000
0000
0000
0000
ENDCHAR

STARTCHAR DLE
ENCODING 16
SWIDTH 864 0
DWIDTH 9 0
BBX 9 9 0 -1
BITMAP
0000
0000
0000
0000
0000
0000
0000
0000
0000
ENDCHAR

STARTCHAR DC1
ENCODING 17
SWIDTH 864 0
DWIDTH 9 0
BBX 9 9 0 -1
BITMAP
0000
0000
0000
0000
0000
0000
0000
0000
0000
ENDCHAR

STARTCHAR DC2
ENCODING 18
SWIDTH 864 0
DWIDTH 9 0
BBX 9 9 0 -1
BITMAP
0000
0000
0000
0000
0000
0000
0000
0000
0000
ENDCHAR

STARTCHAR DC3
ENCODING 19
SWIDTH 864 0
DWIDTH 9 0
BBX 9 9 0 -1
BITMAP
0000
0000
0000
0000
0000
0000
0000
0000
0000
ENDCHAR

STARTCHAR DC4
ENCODING 20
SWIDTH 864 0
DWIDTH 9 0
BBX 9 9 0 -1
BITMAP
0000
0000
0000
0000
0000
0000
0000
0000
0000
ENDCHAR

STARTCHAR NAK
ENCODING 21
SWIDTH 864 0
DWIDTH 9 0
BBX 9 9 0 -1
BITMAP
0000
0000
0000
0000
0000
0000
0000
0000
0000
ENDCHAR

STARTCHAR SYN
ENCODING 22
SWIDTH 864 0
DWIDTH 9 0
BBX 9 9 0 -1
BITMAP
0000
0000
0000
0000
0000
0000
0000
0000
0000
ENDCHAR

STARTCHAR ETB
ENCODING 23
SWIDTH 864 0
DWIDTH 9 0
BBX 9 9 0 -1
BITMAP
0000
0000
0000
0000
0000
0000
0000
0000
0000
ENDCHAR

STARTCHAR CAN
ENCODING 24
SWIDTH 864 0
DWIDTH 9 0
BBX 9 9 0 -1
BITMAP
0000
0000
0000
0000
0000
0000
0000
0000
0000
ENDCHAR

STARTCHAR EM
ENCODING 25
SWIDTH 864 0
DWIDTH 9 0
BBX 9 9 0 -1
BITMAP
0000
0000
0000
0000
0000
0000
0000
0000
0000
ENDCHAR

STARTCHAR SUB
ENCODING 26
SWIDTH 864 0
DWIDTH 9 0
BBX 9 9 0 -1
BITMAP
0000
0000
0000
0000
0000
0000
0000
0000
0000
ENDCHAR

STARTCHAR escape
ENCODING 27
SWIDTH 864 0
DWIDTH 9 0
BBX 9 9 0 -1
BITMAP
0000
0000
0000
0000
0000
0000
0000
0000
0000
ENDCHAR

STARTCHAR file
ENCODING 28
SWIDTH 864 0
DWIDTH 9 0
BBX 9 9 0 -1
BITMAP
0000
0000
0000
0000
0000
0000
0000
0000
0000
ENDCHAR

STARTCHAR group
ENCODING 29
SWIDTH 864 0
DWIDTH 9 0
BBX 9 9 0 -1
BITMAP
0000
0000
0000
0000
0000
0000
0000
0000
0000
ENDCHAR

STARTCHAR record
ENCODING 30
SWIDTH 864 0
DWIDTH 9 0
BBX 9 9 0 -1
BITMAP
0000
0000
0000
0000
0000
0000
0000
0000
0000
ENDCHAR

STARTCHAR field
ENCODING 31
SWIDTH 864 0
DWIDTH 9 0
BBX 9 9 0 -1
BITMAP
0000
0000
0000
0000
0000
0000
0000
0000
0000
ENDCHAR

STARTCHAR space
ENCODING 32
SWIDTH 864 0
DWIDTH 9 0
BBX 9 9 0 -1
BITMAP
0000
0000
0000
0000
0000
0000
0000
0000
0000
ENDCHAR

STARTCHAR exclam
ENCODING 33
SWIDTH 864 0
DWIDTH 9 0
BBX 9 9 0 -1
BITMAP
0000
0800
0800
0800
0800
0000
0000
3E00
0000
ENDCHAR

STARTCHAR dquote
ENCODING 34
SWIDTH 864 0
DWIDTH 9 0
BBX 9 9 0 -1
BITMAP
0000
1400
1400
1400
0000
0000
0000
0000
0000
ENDCHAR

STARTCHAR numbersignt
ENCODING 35
SWIDTH 864 0
DWIDTH 9 0
BBX 9 9 0 -1
BITMAP
0000
1400
1400
7F00
1400
7F00
1400
1400
0000
ENDCHAR

STARTCHAR dollar
ENCODING 36
SWIDTH 864 0
DWIDTH 9 0
BBX 9 9 0 -1
BITMAP
0000
0800
3F00
4800
3E00
0900
7E00
0800
0000
ENDCHAR

STARTCHAR percent
ENCODING 37
SWIDTH 864 0
DWIDTH 9 0
BBX 9 9 0 -1
BITMAP
0000
2200
5200
2400
0800
1200
2500
2200
0000
ENDCHAR

STARTCHAR ampersand
ENCODING 38
SWIDTH 864 0
DWIDTH 9 0
BBX 9 9 0 -1
BITMAP
0000
3000
4800
4800
3800
4500
4200
3D00
0000
ENDCHAR

STARTCHAR squote
ENCODING 39
SWIDTH 864 0
DWIDTH 9 0
BBX 9 9 0 -1
BITMAP
0000
0800
0800
0800
0000
0000
0000
0000
0000
ENDCHAR

STARTCHAR parenleftft
ENCODING 40
SWIDTH 864 0
DWIDTH 9 0
BBX 9 9 0 -1
BITMAP
0000
0E00
1000
2000
2000
2000
1000
0E00
0000
ENDCHAR

STARTCHAR parenright
ENCODING 41
SWIDTH 864 0
DWIDTH 9 0
BBX 9 9 0 -1
BITMAP
0000
3800
0400
0200
0200
0200
0400
3800
0000
ENDCHAR

STARTCHAR asterisk
ENCODING 42
SWIDTH 864 0
DWIDTH 9 0
BBX 9 9 0 -1
BITMAP
0000
0000
2200
1400
7F00
1400
2200
0000
0000
ENDCHAR

STARTCHAR plus
ENCODING 43
SWIDTH 864 0
DWIDTH 9 0
BBX 9 9 0 -1
BITMAP
0000
0000
0800
0800
3E00
0800
0800
0000
0000
ENDCHAR

STARTCHAR comma
ENCODING 44
SWIDTH 864 0
DWIDTH 9 0
BBX 9 9 0 -1
BITMAP
0000
0000
0000
0000
0000
0800
0C00
0800
1000
ENDCHAR

STARTCHAR hyphen
ENCODING 45
SWIDTH 864 0
DWIDTH 9 0
BBX 9 9 0 -1
BITMAP
0000
0000
0000
0000
3E00
0000
0000
0000
0000
ENDCHAR

STARTCHAR period
ENCODING 46
SWIDTH 864 0
DWIDTH 9 0
BBX 9 9 0 -1
BITMAP
0000
0000
0000
0000
0000
0800
1C00
0800
0000
ENDCHAR

STARTCHAR slash
ENCODING 47
SWIDTH 864 0
DWIDTH 9 0
BBX 9 9 0 -1
BITMAP
0000
0200
0200
0400
0800
1000
2000
2000
0000
ENDCHAR

STARTCHAR zero
ENCODING 48
SWIDTH 864 0
DWIDTH 9 0
BBX 9 9 0 -1
BITMAP
0000
3E00
4100
4900
4900
4900
4100
3E00
0000
ENDCHAR

STARTCHAR one
ENCODING 49
SWIDTH 864 0
DWIDTH 9 0
BBX 9 9 0 -1
BITMAP
0000
0800
1800
2800
0800
0800
0800
7F00
0000
ENDCHAR

STARTCHAR two
ENCODING 50
SWIDTH 864 0
DWIDTH 9 0
BBX 9 9 0 -1
BITMAP
0000
3E00
4100
0100
3E00
4000
4000
7F00
0000
ENDCHAR

STARTCHAR three
ENCODING 51
SWIDTH 864 0
DWIDTH 9 0
BBX 9 9 0 -1
BITMAP
0000
7F00
0200
0400
0E00
0100
4100
3E00
0000
ENDCHAR

STARTCHAR four
ENCODING 52
SWIDTH 864 0
DWIDTH 9 0
BBX 9 9 0 -1
BITMAP
0000
0100
4100
4100
7F00
0100
0100
0100
0000
ENDCHAR

STARTCHAR five
ENCODING 53
SWIDTH 864 0
DWIDTH 9 0
BBX 9 9 0 -1
BITMAP
0000
7E00
4000
5E00
6100
0100
4100
3E00
0000
ENDCHAR

STARTCHAR six
ENCODING 54
SWIDTH 864 0
DWIDTH 9 0
BBX 9 9 0 -1
BITMAP
0000
3E00
4100
4000
5E00
6100
4100
3E00
0000
ENDCHAR

STARTCHAR seven
ENCODING 55
SWIDTH 864 0
DWIDTH 9 0
BBX 9 9 0 -1
BITMAP
0000
7F00
0200
0400
1C00
0800
0800
0800
0000
ENDCHAR

STARTCHAR eight
ENCODING 56
SWIDTH 864 0
DWIDTH 9 0
BBX 9 9 0 -1
BITMAP
0000
3E00
4100
4100
3E00
4100
4100
3E00
0000
ENDCHAR

STARTCHAR nine
ENCODING 57
SWIDTH 864 0
DWIDTH 9 0
BBX 9 9 0 -1
BITMAP
0000
3E00
4100
4300
3D00
0100
4100
3E00
0000
ENDCHAR

STARTCHAR colon
ENCODING 58
SWIDTH 864 0
DWIDTH 9 0
BBX 9 9 0 -1
BITMAP
0000
0800
1C00
0800
0000
0800
1C00
0800
0000
ENDCHAR

STARTCHAR semicolon
ENCODING 59
SWIDTH 864 0
DWIDTH 9 0
BBX 9 9 0 -1
BITMAP
0000
0800
1C00
0800
0000
0800
0C00
0800
1000
ENDCHAR

STARTCHAR lesserthan
ENCODING 60
SWIDTH 864 0
DWIDTH 9 0
BBX 9 9 0 -1
BITMAP
0000
0200
0400
0800
3000
0800
0400
0200
0000
ENDCHAR

STARTCHAR equal
ENCODING 61
SWIDTH 864 0
DWIDTH 9 0
BBX 9 9 0 -1
BITMAP
0000
0000
0000
3E00
0000
3E00
0000
0000
0000
ENDCHAR

STARTCHAR greaterthan
ENCODING 62
SWIDTH 864 0
DWIDTH 9 0
BBX 9 9 0 -1
BITMAP
0000
2000
1000
0800
0600
0800
1000
2000
0000
ENDCHAR

STARTCHAR question
ENCODING 63
SWIDTH 864 0
DWIDTH 9 0
BBX 9 9 0 -1
BITMAP
0000
1C00
2200
0400
0800
0000
0000
3E00
0000
ENDCHAR

STARTCHAR at
ENCODING 64
SWIDTH 864 0
DWIDTH 9 0
BBX 9 9 0 -1
BITMAP
0000
3E00
4500
4900
4E00
4000
4000
3C00
0000
ENDCHAR

STARTCHAR A
ENCODING 65
SWIDTH 864 0
DWIDTH 9 0
BBX 9 9 0 -1
BITMAP
0000
1C00
2200
4100
4100
4F00
4100
4100
0000
ENDCHAR

STARTCHAR B
ENCODING 66
SWIDTH 864 0
DWIDTH 9 0
BBX 9 9 0 -1
BITMAP
0000
7E00
4100
4100
4E00
4100
4100
7E00
0000
ENDCHAR

STARTCHAR C
ENCODING 67
SWIDTH 864 0
DWIDTH 9 0
BBX 9 9 0 -1
BITMAP
0000
3E00
4100
4000
4000
4000
4100
3E00
0000
ENDCHAR

STARTCHAR D
ENCODING 68
SWIDTH 864 0
DWIDTH 9 0
BBX 9 9 0 -1
BITMAP
0000
7E00
4100
4100
4100
4100
4100
7E00
0000
ENDCHAR

STARTCHAR E
ENCODING 69
SWIDTH 864 0
DWIDTH 9 0
BBX 9 9 0 -1
BITMAP
0000
7F00
0000
4000
7E00
4000
4000
7F00
0000
ENDCHAR

STARTCHAR F
ENCODING 70
SWIDTH 864 0
DWIDTH 9 0
BBX 9 9 0 -1
BITMAP
0000
7F00
0000
4000
7E00
4000
4000
4000
0000
ENDCHAR

STARTCHAR G
ENCODING 71
SWIDTH 864 0
DWIDTH 9 0
BBX 9 9 0 -1
BITMAP
0000
3E00
0100
4000
4000
4700
4100
3E00
0000
ENDCHAR

STARTCHAR H
ENCODING 72
SWIDTH 864 0
DWIDTH 9 0
BBX 9 9 0 -1
BITMAP
0000
4100
4100
4100
4F00
4100
4100
4100
0000
ENDCHAR

STARTCHAR I
ENCODING 73
SWIDTH 864 0
DWIDTH 9 0
BBX 9 9 0 -1
BITMAP
0000
7F00
0000
0800
0800
0800
0800
7F00
0000
ENDCHAR

STARTCHAR J
ENCODING 74
SWIDTH 864 0
DWIDTH 9 0
BBX 9 9 0 -1
BITMAP
0000
7F00
0000
0200
0200
0200
4200
3C00
0000
ENDCHAR

STARTCHAR K
ENCODING 75
SWIDTH 864 0
DWIDTH 9 0
BBX 9 9 0 -1
BITMAP
0000
4100
4200
4400
4800
4400
4200
4100
0000
ENDCHAR

STARTCHAR L
ENCODING 76
SWIDTH 864 0
DWIDTH 9 0
BBX 9 9 0 -1
BITMAP
0000
4000
4000
4000
4000
4000
4000
7F00
0000
ENDCHAR

STARTCHAR M
ENCODING 77
SWIDTH 864 0
DWIDTH 9 0
BBX 9 9 0 -1
BITMAP
0000
4100
6300
5500
4900
4100
4100
4100
0000
ENDCHAR

STARTCHAR N
ENCODING 78
SWIDTH 864 0
DWIDTH 9 0
BBX 9 9 0 -1
BITMAP
0000
4100
6100
5100
4900
4500
4300
4100
0000
ENDCHAR

STARTCHAR O
ENCODING 79
SWIDTH 864 0
DWIDTH 9 0
BBX 9 9 0 -1
BITMAP
0000
3E00
4100
4100
4100
4100
4100
3E00
0000
ENDCHAR

STARTCHAR P
ENCODING 80
SWIDTH 864 0
DWIDTH 9 0
BBX 9 9 0 -1
BITMAP
0000
7E00
4100
4100
4E00
4000
4000
4000
0000
ENDCHAR

STARTCHAR Q
ENCODING 81
SWIDTH 864 0
DWIDTH 9 0
BBX 9 9 0 -1
BITMAP
0000
3E00
4100
4100
4100
4900
4400
3C00
0000
ENDCHAR

STARTCHAR R
ENCODING 82
SWIDTH 864 0
DWIDTH 9 0
BBX 9 9 0 -1
BITMAP
0000
7E00
4100
4100
4E00
4400
4200
4100
0000
ENDCHAR

STARTCHAR S
ENCODING 83
SWIDTH 864 0
DWIDTH 9 0
BBX 9 9 0 -1
BITMAP
0000
3E00
4100
4000
3E00
0100
4100
3E00
0000
ENDCHAR

STARTCHAR T
ENCODING 84
SWIDTH 864 0
DWIDTH 9 0
BBX 9 9 0 -1
BITMAP
0000
7F00
0000
0800
0800
0800
0800
0800
0000
ENDCHAR

STARTCHAR U
ENCODING 85
SWIDTH 864 0
DWIDTH 9 0
BBX 9 9 0 -1
BITMAP
0000
4100
4100
4100
4100
4100
4100
3E00
0000
ENDCHAR

STARTCHAR V
ENCODING 86
SWIDTH 864 0
DWIDTH 9 0
BBX 9 9 0 -1
BITMAP
0000
4100
4100
2200
2200
1400
1400
0800
0000
ENDCHAR

STARTCHAR W
ENCODING 87
SWIDTH 864 0
DWIDTH 9 0
BBX 9 9 0 -1
BITMAP
0000
4100
4100
4100
4900
5500
6300
4100
0000
ENDCHAR

STARTCHAR X
ENCODING 88
SWIDTH 864 0
DWIDTH 9 0
BBX 9 9 0 -1
BITMAP
0000
4100
4100
2200
1400
2200
4100
4100
0000
ENDCHAR

STARTCHAR Y
ENCODING 89
SWIDTH 864 0
DWIDTH 9 0
BBX 9 9 0 -1
BITMAP
0000
4100
4100
2200
1C00
0800
0800
0800
0000
ENDCHAR

STARTCHAR Z
ENCODING 90
SWIDTH 864 0
DWIDTH 9 0
BBX 9 9 0 -1
BITMAP
0000
7F00
0200
0400
0800
1000
2000
7F00
0000
ENDCHAR

STARTCHAR bracketleft
ENCODING 91
SWIDTH 864 0
DWIDTH 9 0
BBX 9 9 0 -1
BITMAP
0000
3E00
2000
2000
2000
2000
2000
3E00
0000
ENDCHAR

STARTCHAR bslash
ENCODING 92
SWIDTH 864 0
DWIDTH 9 0
BBX 9 9 0 -1
BITMAP
0000
2000
2000
1000
0800
0400
0200
0200
0000
ENDCHAR

STARTCHAR bracketright
ENCODING 93
SWIDTH 864 0
DWIDTH 9 0
BBX 9 9 0 -1
BITMAP
0000
3E00
0200
0200
0200
0200
0200
3E00
0000
ENDCHAR

STARTCHAR asciicircum
ENCODING 94
SWIDTH 864 0
DWIDTH 9 0
BBX 9 9 0 -1
BITMAP
0000
0800
1400
2200
0000
0000
0000
0000
0000
ENDCHAR

STARTCHAR underscore
ENCODING 95
SWIDTH 864 0
DWIDTH 9 0
BBX 9 9 0 -1
BITMAP
0000
0000
0000
0000
0000
0000
0000
0000
FF80
ENDCHAR

STARTCHAR halflong
ENCODING 96
SWIDTH 864 0
DWIDTH 9 0
BBX 9 9 0 -1
BITMAP
0000
3E00
1C00
0800
0000
0000
0000
0000
0000
ENDCHAR

STARTCHAR a
ENCODING 97
SWIDTH 864 0
DWIDTH 9 0
BBX 9 9 0 -1
BITMAP
0000
0000
3C00
0200
3E00
4200
3E00
0000
0000
ENDCHAR

STARTCHAR b
ENCODING 98
SWIDTH 864 0
DWIDTH 9 0
BBX 9 9 0 -1
BITMAP
4000
4000
7E00
4100
4100
4100
7E00
0000
0000
ENDCHAR

STARTCHAR c
ENCODING 99
SWIDTH 864 0
DWIDTH 9 0
BBX 9 9 0 -1
BITMAP
0000
0000
3E00
4100
4000
4100
3E00
0000
0000
ENDCHAR

STARTCHAR d
ENCODING 100
SWIDTH 864 0
DWIDTH 9 0
BBX 9 9 0 -1
BITMAP
0100
0100
3F00
4100
4100
4100
3F00
0000
0000
ENDCHAR

STARTCHAR e
ENCODING 101
SWIDTH 864 0
DWIDTH 9 0
BBX 9 9 0 -1
BITMAP
0000
0000
3E00
4100
7E00
4000
3E00
0000
0000
ENDCHAR

STARTCHAR f
ENCODING 102
SWIDTH 864 0
DWIDTH 9 0
BBX 9 9 0 -1
BITMAP
0E00
1100
1000
7C00
1000
1000
1000
0000
0000
ENDCHAR

STARTCHAR g
ENCODING 103
SWIDTH 864 0
DWIDTH 9 0
BBX 9 9 0 -1
BITMAP
0000
0000
3E00
4100
4100
3F00
0100
3E00
0000
ENDCHAR

STARTCHAR h
ENCODING 104
SWIDTH 864 0
DWIDTH 9 0
BBX 9 9 0 -1
BITMAP
4000
4000
5E00
6100
4100
4100
4100
0000
0000
ENDCHAR

STARTCHAR i
ENCODING 105
SWIDTH 864 0
DWIDTH 9 0
BBX 9 9 0 -1
BITMAP
0800
1000
0000
0800
0800
0800
0800
0000
0000
ENDCHAR

STARTCHAR j
ENCODING 106
SWIDTH 864 0
DWIDTH 9 0
BBX 9 9 0 -1
BITMAP
0100
0200
0000
0100
0100
0100
4100
3E00
0000
ENDCHAR

STARTCHAR k
ENCODING 107
SWIDTH 864 0
DWIDTH 9 0
BBX 9 9 0 -1
BITMAP
2000
4600
4800
5000
6800
4400
4200
0100
0000
ENDCHAR

STARTCHAR l
ENCODING 108
SWIDTH 864 0
DWIDTH 9 0
BBX 9 9 0 -1
BITMAP
4000
6000
4000
4000
4000
4100
3E00
0000
0000
ENDCHAR

STARTCHAR m
ENCODING 109
SWIDTH 864 0
DWIDTH 9 0
BBX 9 9 0 -1
BITMAP
0000
0000
3600
4900
4100
4100
4100
0000
0000
ENDCHAR

STARTCHAR n
ENCODING 110
SWIDTH 864 0
DWIDTH 9 0
BBX 9 9 0 -1
BITMAP
0000
0000
3E00
4100
4100
4100
4100
0000
0000
ENDCHAR

STARTCHAR o
ENCODING 111
SWIDTH 864 0
DWIDTH 9 0
BBX 9 9 0 -1
BITMAP
0000
0800
3E00
4900
4100
4100
3E00
0000
0000
ENDCHAR

STARTCHAR p
ENCODING 112
SWIDTH 864 0
DWIDTH 9 0
BBX 9 9 0 -1
BITMAP
0000
0000
3E00
4100
4100
7E00
4000
4000
0000
ENDCHAR

STARTCHAR q
ENCODING 113
SWIDTH 864 0
DWIDTH 9 0
BBX 9 9 0 -1
BITMAP
0000
0000
3E00
4100
4100
3F00
0100
0100
0000
ENDCHAR

STARTCHAR r
ENCODING 114
SWIDTH 864 0
DWIDTH 9 0
BBX 9 9 0 -1
BITMAP
0000
0000
3E00
4100
4000
4000
4000
0000
0000
ENDCHAR

STARTCHAR s
ENCODING 115
SWIDTH 864 0
DWIDTH 9 0
BBX 9 9 0 -1
BITMAP
0000
0000
3F00
4000
3E00
0100
7E00
0000
0000
ENDCHAR

STARTCHAR t
ENCODING 116
SWIDTH 864 0
DWIDTH 9 0
BBX 9 9 0 -1
BITMAP
6600
0000
7F00
0800
1000
2200
1C00
0000
0000
ENDCHAR

STARTCHAR u
ENCODING 117
SWIDTH 864 0
DWIDTH 9 0
BBX 9 9 0 -1
BITMAP
0000
0000
4100
4100
4100
4100
3E00
0000
0000
ENDCHAR

STARTCHAR v
ENCODING 118
SWIDTH 864 0
DWIDTH 9 0
BBX 9 9 0 -1
BITMAP
0000
0000
4100
4100
2200
1400
0800
0000
0000
ENDCHAR

STARTCHAR w
ENCODING 119
SWIDTH 864 0
DWIDTH 9 0
BBX 9 9 0 -1
BITMAP
0000
0000
4100
4100
4100
4900
3600
0000
0000
ENDCHAR

STARTCHAR x
ENCODING 120
SWIDTH 864 0
DWIDTH 9 0
BBX 9 9 0 -1
BITMAP
0000
0000
4100
2200
1400
2200
4100
0000
0000
ENDCHAR

STARTCHAR y
ENCODING 121
SWIDTH 864 0
DWIDTH 9 0
BBX 9 9 0 -1
BITMAP
0000
0000
4100
4100
4100
3F00
0100
3E00
0000
ENDCHAR

STARTCHAR z
ENCODING 122
SWIDTH 864 0
DWIDTH 9 0
BBX 9 9 0 -1
BITMAP
0000
0000
7F00
0200
0800
2000
7F00
0000
0000
ENDCHAR

STARTCHAR braceleft
ENCODING 123
SWIDTH 864 0
DWIDTH 9 0
BBX 9 9 0 -1
BITMAP
0000
0E00
1000
0800
3000
0800
1000
0E00
0000
ENDCHAR

STARTCHAR pipe
ENCODING 124
SWIDTH 864 0
DWIDTH 9 0
BBX 9 9 0 -1
BITMAP
0000
0800
0800
0800
0000
0800
0800
0800
0000
ENDCHAR

STARTCHAR braceright
ENCODING 125
SWIDTH 864 0
DWIDTH 9 0
BBX 9 9 0 -1
BITMAP
0000
3800
0400
0800
0600
0800
0400
3800
0000
ENDCHAR

STARTCHAR tilda
ENCODING 126
SWIDTH 864 0
DWIDTH 9 0
BBX 9 9 0 -1
BITMAP
0000
0000
0000
1200
2A00
2400
0000
0000
0000
ENDCHAR

STARTCHAR del
ENCODING 127
SWIDTH 864 0
DWIDTH 9 0
BBX 9 9 0 -1
BITMAP
0000
0000
0000
0000
0000
0000
0000
0000
0000
ENDCHAR

STARTCHAR wall_horz
ENCODING 128
SWIDTH 864 0
DWIDTH 9 0
BBX 9 9 0 -1
BITMAP
0000
0000
0000
0000
FF80
0000
0000
0000
0000
ENDCHAR

STARTCHAR wall_vert
ENCODING 129
SWIDTH 864 0
DWIDTH 9 0
BBX 9 9 0 -1
BITMAP
0800
0800
0800
0800
0800
0800
0800
0800
0800
ENDCHAR

STARTCHAR left_down
ENCODING 130
SWIDTH 864 0
DWIDTH 9 0
BBX 9 9 0 -1
BITMAP
0000
0000
0000
0000
F000
0800
0800
0800
0800
ENDCHAR

STARTCHAR up_right
ENCODING 131
SWIDTH 864 0
DWIDTH 9 0
BBX 9 9 0 -1
BITMAP
0000
0000
0000
0000
0780
0800
0800
0800
0800
ENDCHAR

STARTCHAR down_right
ENCODING 132
SWIDTH 864 0
DWIDTH 9 0
BBX 9 9 0 -1
BITMAP
0800
0800
0800
0800
0780
0000
0000
0000
0000
ENDCHAR

STARTCHAR down_left
ENCODING 133
SWIDTH 864 0
DWIDTH 9 0
BBX 9 9 0 -1
BITMAP
0800
0800
0800
0800
F000
0000
0000
0000
0000
ENDCHAR

STARTCHAR left_t
ENCODING 134
SWIDTH 864 0
DWIDTH 9 0
BBX 9 9 0 -1
BITMAP
0800
0800
0800
1000
E000
1000
0800
0800
0800
ENDCHAR

STARTCHAR right_t
ENCODING 135
SWIDTH 864 0
DWIDTH 9 0
BBX 9 9 0 -1
BITMAP
0800
0800
0800
0400
0380
0400
0800
0800
0800
ENDCHAR

STARTCHAR up_t
ENCODING 136
SWIDTH 864 0
DWIDTH 9 0
BBX 9 9 0 -1
BITMAP
0800
0800
0800
1400
E380
0000
0000
0000
0000
ENDCHAR

STARTCHAR down_t
ENCODING 137
SWIDTH 864 0
DWIDTH 9 0
BBX 9 9 0 -1
BITMAP
0000
0000
0000
0000
E380
1400
0800
0800
0800
ENDCHAR

STARTCHAR fourway
ENCODING 138
SWIDTH 864 0
DWIDTH 9 0
BBX 9 9 0 -1
BITMAP
0800
0800
0800
1400
E380
1400
0800
0800
0800
ENDCHAR

STARTCHAR vert_open
ENCODING 139
SWIDTH 864 0
DWIDTH 9 0
BBX 9 9 0 -1
BITMAP
1C00
0000
0000
0000
0000
0000
0000
0000
1C00
ENDCHAR

STARTCHAR vert_win
ENCODING 140
SWIDTH 864 0
DWIDTH 9 0
BBX 9 9 0 -1
BITMAP
0000
0800
0000
0800
0000
0800
0000
0800
0000
ENDCHAR

STARTCHAR vert_door1
ENCODING 141
SWIDTH 864 0
DWIDTH 9 0
BBX 9 9 0 -1
BITMAP
0800
0800
0400
0200
0000
2000
1000
0800
0800
ENDCHAR

STARTCHAR vert_door2
ENCODING 142
SWIDTH 864 0
DWIDTH 9 0
BBX 9 9 0 -1
BITMAP
0800
0800
1000
2000
0000
0200
0400
0800
0800
ENDCHAR

STARTCHAR result
ENCODING 143
SWIDTH 864 0
DWIDTH 9 0
BBX 9 9 0 -1
BITMAP
0000
0000
0000
0800
0000
2200
0000
0000
0000
ENDCHAR

STARTCHAR horz_open1
ENCODING 144
SWIDTH 864 0
DWIDTH 9 0
BBX 9 9 0 -1
BITMAP
0000
0000
0000
8080
8080
8080
0000
0000
0000
ENDCHAR

STARTCHAR horz_open2
ENCODING 145
SWIDTH 864 0
DWIDTH 9 0
BBX 9 9 0 -1
BITMAP
0000
0000
0000
0000
5500
0000
0000
0000
0000
ENDCHAR

STARTCHAR door_down1
ENCODING 146
SWIDTH 864 0
DWIDTH 9 0
BBX 9 9 0 -1
BITMAP
0000
0000
0400
0200
C180
2000
1000
0000
0000
ENDCHAR

STARTCHAR door_down2
ENCODING 147
SWIDTH 864 0
DWIDTH 9 0
BBX 9 9 0 -1
BITMAP
0000
0000
1000
2000
C180
0200
0400
0000
0000
ENDCHAR

STARTCHAR half_top
ENCODING 148
SWIDTH 864 0
DWIDTH 9 0
BBX 9 9 0 -1
BITMAP
0800
0800
0800
0800
1C00
0000
0000
0000
0000
ENDCHAR

STARTCHAR half_bot
ENCODING 149
SWIDTH 864 0
DWIDTH 9 0
BBX 9 9 0 -1
BITMAP
0000
0000
0000
0000
1C00
0800
0800
0800
0800
ENDCHAR

STARTCHAR door_up1
ENCODING 150
SWIDTH 864 0
DWIDTH 9 0
BBX 9 9 0 -1
BITMAP
0000
0000
0000
0800
F800
0800
0000
0000
0000
ENDCHAR

STARTCHAR door_up2
ENCODING 151
SWIDTH 864 0
DWIDTH 9 0
BBX 9 9 0 -1
BITMAP
0000
0000
0000
0800
0F80
0800
0000
0000
0000
ENDCHAR

STARTCHAR plusminus
ENCODING 152
SWIDTH 864 0
DWIDTH 9 0
BBX 9 9 0 -1
BITMAP
0000
0800
0800
3E00
0800
0800
0000
3E00
0000
ENDCHAR

STARTCHAR infinity
ENCODING 153
SWIDTH 864 0
DWIDTH 9 0
BBX 9 9 0 -1
BITMAP
0000
3E00
4100
2200
1400
2200
4100
3E00
0000
ENDCHAR

STARTCHAR function
ENCODING 154
SWIDTH 864 0
DWIDTH 9 0
BBX 9 9 0 -1
BITMAP
0000
0700
0800
0800
3E00
0800
0800
7000
0000
ENDCHAR

STARTCHAR dslash
ENCODING 155
SWIDTH 864 0
DWIDTH 9 0
BBX 9 9 0 -1
BITMAP
0000
0400
0800
1000
2200
0400
0800
1000
0000
ENDCHAR

STARTCHAR tooth_up
ENCODING 156
SWIDTH 864 0
DWIDTH 9 0
BBX 9 9 0 -1
BITMAP
0000
6300
9480
9480
FF80
0000
0000
0000
0000
ENDCHAR

STARTCHAR tooth_down
ENCODING 157
SWIDTH 864 0
DWIDTH 9 0
BBX 9 9 0 -1
BITMAP
0000
0000
0000
0000
FF80
9480
9480
6300
0000
ENDCHAR

STARTCHAR tooth_right
ENCODING 158
SWIDTH 864 0
DWIDTH 9 0
BBX 9 9 0 -1
BITMAP
0E00
0900
0900
0E00
0800
0E00
0900
0900
0E00
ENDCHAR

STARTCHAR tooth_left
ENCODING 159
SWIDTH 864 0
DWIDTH 9 0
BBX 9 9 0 -1
BITMAP
3800
4800
4800
3800
0800
3800
4800
4800
3800
ENDCHAR

STARTCHAR empty
ENCODING 160
SWIDTH 864 0
DWIDTH 9 0
BBX 9 9 0 -1
BITMAP
0000
0000
0800
4100
0000
4100
0800
0000
0000
ENDCHAR

STARTCHAR rexclam
ENCODING 161
SWIDTH 864 0
DWIDTH 9 0
BBX 9 9 0 -1
BITMAP
0000
3E00
0000
0000
0800
0800
0800
0800
0000
ENDCHAR

STARTCHAR rquest
ENCODING 162
SWIDTH 864 0
DWIDTH 9 0
BBX 9 9 0 -1
BITMAP
0000
3E00
0000
0000
0800
1000
2200
1C00
0000
ENDCHAR

STARTCHAR null
ENCODING 163
SWIDTH 864 0
DWIDTH 9 0
BBX 9 9 0 -1
BITMAP
0000
3E00
4300
4500
4900
5100
6100
3E00
0000
ENDCHAR

STARTCHAR place
ENCODING 164
SWIDTH 864 0
DWIDTH 9 0
BBX 9 9 0 -1
BITMAP
0000
0000
2200
1C00
1400
1C00
2200
0000
0000
ENDCHAR

STARTCHAR escape
ENCODING 165
SWIDTH 864 0
DWIDTH 9 0
BBX 9 9 0 -1
BITMAP
0000
2200
2200
1400
3E00
0800
0800
0800
0000
ENDCHAR

STARTCHAR return
ENCODING 166
SWIDTH 864 0
DWIDTH 9 0
BBX 9 9 0 -1
BITMAP
0000
3E00
4A00
4A00
3A00
0A00
0A00
0A00
0000
ENDCHAR

STARTCHAR field
ENCODING 167
SWIDTH 864 0
DWIDTH 9 0
BBX 9 9 0 -1
BITMAP
0000
1E00
2100
3C00
1200
0E00
4200
3C00
0000
ENDCHAR

STARTCHAR group
ENCODING 168
SWIDTH 864 0
DWIDTH 9 0
BBX 9 9 0 -1
BITMAP
0000
1400
1400
1400
0000
1400
1400
1400
0000
ENDCHAR

STARTCHAR diamond
ENCODING 169
SWIDTH 864 0
DWIDTH 9 0
BBX 9 9 0 -1
BITMAP
0000
0000
0800
1400
2200
1400
0800
0000
0000
ENDCHAR

STARTCHAR break
ENCODING 170
SWIDTH 864 0
DWIDTH 9 0
BBX 9 9 0 -1
BITMAP
0000
1C00
2200
2200
1C00
0800
0800
3E00
0000
ENDCHAR

STARTCHAR long
ENCODING 171
SWIDTH 864 0
DWIDTH 9 0
BBX 9 9 0 -1
BITMAP
0000
3E00
1C00
0800
0000
0800
1C00
3E00
0000
ENDCHAR

STARTCHAR mask
ENCODING 172
SWIDTH 864 0
DWIDTH 9 0
BBX 9 9 0 -1
BITMAP
0000
2480
4900
9200
2480
4900
9200
2480
0000
ENDCHAR

STARTCHAR display
ENCODING 173
SWIDTH 864 0
DWIDTH 9 0
BBX 9 9 0 -1
BITMAP
0000
0800
5D00
2200
0800
1C00
0800
0000
0000
ENDCHAR

STARTCHAR summary
ENCODING 174
SWIDTH 864 0
DWIDTH 9 0
BBX 9 9 0 -1
BITMAP
0000
7F00
2000
1000
0800
1000
2000
7F00
0000
ENDCHAR

STARTCHAR system
ENCODING 175
SWIDTH 864 0
DWIDTH 9 0
BBX 9 9 0 -1
BITMAP
0000
4900
4900
4900
3E00
4900
4900
4900
0000
ENDCHAR

STARTCHAR redact
ENCODING 176
SWIDTH 864 0
DWIDTH 9 0
BBX 9 9 0 -1
BITMAP
0000
7F00
7F00
7F00
7F00
7F00
7F00
7F00
0000
ENDCHAR

STARTCHAR bump
ENCODING 177
SWIDTH 864 0
DWIDTH 9 0
BBX 9 9 0 -1
BITMAP
0000
0000
0000
0000
0000
0800
1C00
3E00
0000
ENDCHAR

STARTCHAR storage
ENCODING 178
SWIDTH 864 0
DWIDTH 9 0
BBX 9 9 0 -1
BITMAP
0000
0000
0000
0000
2200
0000
0000
0000
0000
ENDCHAR

STARTCHAR halt
ENCODING 179
SWIDTH 864 0
DWIDTH 9 0
BBX 9 9 0 -1
BITMAP
0000
0000
3E00
3E00
3E00
3E00
3E00
0000
0000
ENDCHAR

STARTCHAR bigdot
ENCODING 180
SWIDTH 864 0
DWIDTH 9 0
BBX 9 9 0 -1
BITMAP
0000
0000
0000
0800
1C00
0800
0000
0000
0000
ENDCHAR

STARTCHAR dbslash
ENCODING 181
SWIDTH 864 0
DWIDTH 9 0
BBX 9 9 0 -1
BITMAP
0000
1000
0800
0400
2200
1000
0800
0400
0000
ENDCHAR

STARTCHAR ddquote
ENCODING 182
SWIDTH 864 0
DWIDTH 9 0
BBX 9 9 0 -1
BITMAP
0000
0A00
0A00
0A00
2000
1000
0800
0400
0000
ENDCHAR

STARTCHAR space
ENCODING 183
SWIDTH 864 0
DWIDTH 9 0
BBX 9 9 0 -1
BITMAP
0000
0000
0000
0000
0800
0000
0000
0000
0000
ENDCHAR

STARTCHAR slparen
ENCODING 184
SWIDTH 864 0
DWIDTH 9 0
BBX 9 9 0 -1
BITMAP
0E00
1000
3000
0800
0800
0800
3000
1000
0E00
ENDCHAR

STARTCHAR srparen
ENCODING 185
SWIDTH 864 0
DWIDTH 9 0
BBX 9 9 0 -1
BITMAP
3800
0400
0600
0800
0800
0800
0600
0400
3800
ENDCHAR

STARTCHAR slbrack
ENCODING 186
SWIDTH 864 0
DWIDTH 9 0
BBX 9 9 0 -1
BITMAP
3E00
2000
1000
0800
0800
0800
1000
2000
3E00
ENDCHAR

STARTCHAR srbrack
ENCODING 187
SWIDTH 864 0
DWIDTH 9 0
BBX 9 9 0 -1
BITMAP
3E00
0200
0400
0800
0800
0800
0400
0200
3E00
ENDCHAR

STARTCHAR slchev
ENCODING 188
SWIDTH 864 0
DWIDTH 9 0
BBX 9 9 0 -1
BITMAP
0000
3000
3800
3C00
3E00
3C00
3800
3000
0000
ENDCHAR

STARTCHAR srchev
ENCODING 189
SWIDTH 864 0
DWIDTH 9 0
BBX 9 9 0 -1
BITMAP
0000
0600
0E00
1E00
3E00
1E00
0E00
0600
0000
ENDCHAR

STARTCHAR del
ENCODING 190
SWIDTH 864 0
DWIDTH 9 0
BBX 9 9 0 -1
BITMAP
0000
3000
2800
2400
2200
2400
2800
3000
0000
ENDCHAR

STARTCHAR bs
ENCODING 191
SWIDTH 864 0
DWIDTH 9 0
BBX 9 9 0 -1
BITMAP
0000
0600
0A00
1200
2200
1200
0A00
0600
0000
ENDCHAR

STARTCHAR sub0
ENCODING 192
SWIDTH 864 0
DWIDTH 9 0
BBX 9 9 0 -1
BITMAP
0000
0000
0000
0000
3800
4400
4400
4400
3800
ENDCHAR

STARTCHAR sub1
ENCODING 193
SWIDTH 864 0
DWIDTH 9 0
BBX 9 9 0 -1
BITMAP
0000
0000
0000
0000
1000
3000
1000
1000
7C00
ENDCHAR

STARTCHAR sub2
ENCODING 194
SWIDTH 864 0
DWIDTH 9 0
BBX 9 9 0 -1
BITMAP
0000
0000
0000
0000
3800
4400
0800
1000
7C00
ENDCHAR

STARTCHAR sub3
ENCODING 195
SWIDTH 864 0
DWIDTH 9 0
BBX 9 9 0 -1
BITMAP
0000
0000
0000
0000
7800
0400
1800
0400
7800
ENDCHAR

STARTCHAR sub4
ENCODING 196
SWIDTH 864 0
DWIDTH 9 0
BBX 9 9 0 -1
BITMAP
0000
0000
0000
0000
4400
4400
7C00
0400
0400
ENDCHAR

STARTCHAR subn
ENCODING 197
SWIDTH 864 0
DWIDTH 9 0
BBX 9 9 0 -1
BITMAP
0000
0000
0000
0000
3800
4400
4400
4400
4400
ENDCHAR

STARTCHAR pow2
ENCODING 198
SWIDTH 864 0
DWIDTH 9 0
BBX 9 9 0 -1
BITMAP
3800
4400
0800
1000
7C00
0000
0000
0000
0000
ENDCHAR

STARTCHAR pow3
ENCODING 199
SWIDTH 864 0
DWIDTH 9 0
BBX 9 9 0 -1
BITMAP
7800
0400
1800
0400
7800
0000
0000
0000
0000
ENDCHAR

STARTCHAR pow4
ENCODING 200
SWIDTH 864 0
DWIDTH 9 0
BBX 9 9 0 -1
BITMAP
4400
4400
7C00
0400
0400
0000
0000
0000
0000
ENDCHAR

STARTCHAR powx
ENCODING 201
SWIDTH 864 0
DWIDTH 9 0
BBX 9 9 0 -1
BITMAP
4400
2800
1000
2800
4400
0000
0000
0000
0000
ENDCHAR

STARTCHAR powy
ENCODING 202
SWIDTH 864 0
DWIDTH 9 0
BBX 9 9 0 -1
BITMAP
4400
4400
3800
1000
1000
0000
0000
0000
0000
ENDCHAR

STARTCHAR sci_note
ENCODING 203
SWIDTH 864 0
DWIDTH 9 0
BBX 9 9 0 -1
BITMAP
0000
0000
0000
0000
2200
1400
0800
1400
2200
ENDCHAR

STARTCHAR degree
ENCODING 204
SWIDTH 864 0
DWIDTH 9 0
BBX 9 9 0 -1
BITMAP
3800
4400
4400
4400
3800
0000
0000
0000
0000
ENDCHAR

STARTCHAR radian
ENCODING 205
SWIDTH 864 0
DWIDTH 9 0
BBX 9 9 0 -1
BITMAP
3800
4400
4000
4000
4000
0000
0000
0000
0000
ENDCHAR

STARTCHAR sqrt
ENCODING 206
SWIDTH 864 0
DWIDTH 9 0
BBX 9 9 0 -1
BITMAP
3800
2000
A000
6000
2000
0000
0000
0000
0000
ENDCHAR

STARTCHAR hugedot
ENCODING 207
SWIDTH 864 0
DWIDTH 9 0
BBX 9 9 0 -1
BITMAP
0000
0000
1C00
3E00
3E00
3E00
1C00
0000
0000
ENDCHAR

STARTCHAR and
ENCODING 208
SWIDTH 864 0
DWIDTH 9 0
BBX 9 9 0 -1
BITMAP
0000
0000
0000
0000
0000
0000
0000
0000
0000
ENDCHAR

STARTCHAR or
ENCODING 209
SWIDTH 864 0
DWIDTH 9 0
BBX 9 9 0 -1
BITMAP
0000
0000
0000
0000
0000
0000
0000
0000
0000
ENDCHAR

STARTCHAR xor
ENCODING 210
SWIDTH 864 0
DWIDTH 9 0
BBX 9 9 0 -1
BITMAP
0000
0000
0000
0000
0000
0000
0000
0000
0000
ENDCHAR

STARTCHAR iff_xnor
ENCODING 211
SWIDTH 864 0
DWIDTH 9 0
BBX 9 9 0 -1
BITMAP
0000
0000
0000
0000
0000
0000
0000
0000
0000
ENDCHAR

STARTCHAR up_nand
ENCODING 212
SWIDTH 864 0
DWIDTH 9 0
BBX 9 9 0 -1
BITMAP
0000
0000
0000
0000
0000
0000
0000
0000
0000
ENDCHAR

STARTCHAR down_nor
ENCODING 213
SWIDTH 864 0
DWIDTH 9 0
BBX 9 9 0 -1
BITMAP
0000
0000
0000
0000
0000
0000
0000
0000
0000
ENDCHAR

STARTCHAR right_prove
ENCODING 214
SWIDTH 864 0
DWIDTH 9 0
BBX 9 9 0 -1
BITMAP
0000
0000
0000
0000
0000
0000
0000
0000
0000
ENDCHAR

STARTCHAR left_contrib
ENCODING 215
SWIDTH 864 0
DWIDTH 9 0
BBX 9 9 0 -1
BITMAP
0000
0000
0000
0000
0000
0000
0000
0000
0000
ENDCHAR

STARTCHAR unlikely
ENCODING 216
SWIDTH 864 0
DWIDTH 9 0
BBX 9 9 0 -1
BITMAP
0000
0000
0000
0000
0000
0000
0000
0000
0000
ENDCHAR

STARTCHAR likely
ENCODING 217
SWIDTH 864 0
DWIDTH 9 0
BBX 9 9 0 -1
BITMAP
0000
0000
0000
0000
0000
0000
0000
0000
0000
ENDCHAR

STARTCHAR false
ENCODING 218
SWIDTH 864 0
DWIDTH 9 0
BBX 9 9 0 -1
BITMAP
0000
0000
0000
0000
0000
0000
0000
0000
0000
ENDCHAR

STARTCHAR true
ENCODING 219
SWIDTH 864 0
DWIDTH 9 0
BBX 9 9 0 -1
BITMAP
0000
0000
0000
0000
0000
0000
0000
0000
0000
ENDCHAR

STARTCHAR less_or_eq
ENCODING 220
SWIDTH 864 0
DWIDTH 9 0
BBX 9 9 0 -1
BITMAP
0000
0000
0000
0000
0000
0000
0000
0000
0000
ENDCHAR

STARTCHAR great_or_eq
ENCODING 221
SWIDTH 864 0
DWIDTH 9 0
BBX 9 9 0 -1
BITMAP
0000
0000
0000
0000
0000
0000
0000
0000
0000
ENDCHAR

STARTCHAR not_eq
ENCODING 222
SWIDTH 864 0
DWIDTH 9 0
BBX 9 9 0 -1
BITMAP
0000
0000
0000
0000
0000
0000
0000
0000
0000
ENDCHAR

STARTCHAR approx
ENCODING 223
SWIDTH 864 0
DWIDTH 9 0
BBX 9 9 0 -1
BITMAP
0000
0000
0000
0000
0000
0000
0000
0000
0000
ENDCHAR

STARTCHAR equivalent
ENCODING 224
SWIDTH 864 0
DWIDTH 9 0
BBX 9 9 0 -1
BITMAP
0000
0000
0000
0000
0000
0000
0000
0000
0000
ENDCHAR

STARTCHAR pointer
ENCODING 225
SWIDTH 864 0
DWIDTH 9 0
BBX 9 9 0 -1
BITMAP
0000
0000
0000
0000
0000
0000
0000
0000
0000
ENDCHAR

STARTCHAR subset
ENCODING 226
SWIDTH 864 0
DWIDTH 9 0
BBX 9 9 0 -1
BITMAP
0000
0000
0000
0000
0000
0000
0000
0000
0000
ENDCHAR

STARTCHAR membership
ENCODING 227
SWIDTH 864 0
DWIDTH 9 0
BBX 9 9 0 -1
BITMAP
0000
0000
0000
0000
0000
0000
0000
0000
0000
ENDCHAR

STARTCHAR for_each
ENCODING 228
SWIDTH 864 0
DWIDTH 9 0
BBX 9 9 0 -1
BITMAP
0000
0000
0000
0000
0000
0000
0000
0000
0000
ENDCHAR

STARTCHAR left_gull
ENCODING 229
SWIDTH 864 0
DWIDTH 9 0
BBX 9 9 0 -1
BITMAP
0000
0000
0000
0000
0000
0000
0000
0000
0000
ENDCHAR

STARTCHAR right_gull
ENCODING 230
SWIDTH 864 0
DWIDTH 9 0
BBX 9 9 0 -1
BITMAP
0000
0000
0000
0000
0000
0000
0000
0000
0000
ENDCHAR

STARTCHAR localize
ENCODING 231
SWIDTH 864 0
DWIDTH 9 0
BBX 9 9 0 -1
BITMAP
0000
0000
0000
0000
0000
0000
0000
0000
0000
ENDCHAR

STARTCHAR alpha
ENCODING 232
SWIDTH 864 0
DWIDTH 9 0
BBX 9 9 0 -1
BITMAP
0000
0000
0000
0000
0000
0000
0000
0000
0000
ENDCHAR

STARTCHAR beta
ENCODING 233
SWIDTH 864 0
DWIDTH 9 0
BBX 9 9 0 -1
BITMAP
0000
0000
0000
0000
0000
0000
0000
0000
0000
ENDCHAR

STARTCHAR gamma
ENCODING 234
SWIDTH 864 0
DWIDTH 9 0
BBX 9 9 0 -1
BITMAP
0000
0000
0000
0000
0000
0000
0000
0000
0000
ENDCHAR

STARTCHAR delta
ENCODING 235
SWIDTH 864 0
DWIDTH 9 0
BBX 9 9 0 -1
BITMAP
0000
0000
0000
0000
0000
0000
0000
0000
0000
ENDCHAR

STARTCHAR epsilon
ENCODING 236
SWIDTH 864 0
DWIDTH 9 0
BBX 9 9 0 -1
BITMAP
0000
0000
0000
0000
0000
0000
0000
0000
0000
ENDCHAR

STARTCHAR zeta
ENCODING 237
SWIDTH 864 0
DWIDTH 9 0
BBX 9 9 0 -1
BITMAP
0000
0000
0000
0000
0000
0000
0000
0000
0000
ENDCHAR

STARTCHAR eta
ENCODING 238
SWIDTH 864 0
DWIDTH 9 0
BBX 9 9 0 -1
BITMAP
0000
0000
0000
0000
0000
0000
0000
0000
0000
ENDCHAR

STARTCHAR theta
ENCODING 239
SWIDTH 864 0
DWIDTH 9 0
BBX 9 9 0 -1
BITMAP
0000
0000
0000
0000
0000
0000
0000
0000
0000
ENDCHAR

STARTCHAR iota
ENCODING 240
SWIDTH 864 0
DWIDTH 9 0
BBX 9 9 0 -1
BITMAP
0000
0000
0000
0000
0000
0000
0000
0000
0000
ENDCHAR

STARTCHAR kappa
ENCODING 241
SWIDTH 864 0
DWIDTH 9 0
BBX 9 9 0 -1
BITMAP
0000
0000
0000
0000
0000
0000
0000
0000
0000
ENDCHAR

STARTCHAR lambda
ENCODING 242
SWIDTH 864 0
DWIDTH 9 0
BBX 9 9 0 -1
BITMAP
0000
0000
0000
0000
0000
0000
0000
0000
0000
ENDCHAR

STARTCHAR mu
ENCODING 243
SWIDTH 864 0
DWIDTH 9 0
BBX 9 9 0 -1
BITMAP
0000
0000
0000
0000
0000
0000
0000
0000
0000
ENDCHAR

STARTCHAR nu
ENCODING 244
SWIDTH 864 0
DWIDTH 9 0
BBX 9 9 0 -1
BITMAP
0000
0000
0000
0000
0000
0000
0000
0000
0000
ENDCHAR

STARTCHAR xi
ENCODING 245
SWIDTH 864 0
DWIDTH 9 0
BBX 9 9 0 -1
BITMAP
0000
0000
0000
0000
0000
0000
0000
0000
0000
ENDCHAR

STARTCHAR omicron
ENCODING 246
SWIDTH 864 0
DWIDTH 9 0
BBX 9 9 0 -1
BITMAP
0000
0000
0000
0000
0000
0000
0000
0000
0000
ENDCHAR

STARTCHAR pi
ENCODING 247
SWIDTH 864 0
DWIDTH 9 0
BBX 9 9 0 -1
BITMAP
0000
0000
0000
0000
0000
0000
0000
0000
0000
ENDCHAR

STARTCHAR rho
ENCODING 248
SWIDTH 864 0
DWIDTH 9 0
BBX 9 9 0 -1
BITMAP
0000
0000
0000
0000
0000
0000
0000
0000
0000
ENDCHAR

STARTCHAR sigma
ENCODING 249
SWIDTH 864 0
DWIDTH 9 0
BBX 9 9 0 -1
BITMAP
0000
0000
0000
0000
0000
0000
0000
0000
0000
ENDCHAR

STARTCHAR tau
ENCODING 250
SWIDTH 864 0
DWIDTH 9 0
BBX 9 9 0 -1
BITMAP
0000
0000
0000
0000
0000
0000
0000
0000
0000
ENDCHAR

STARTCHAR upsilon
ENCODING 251
SWIDTH 864 0
DWIDTH 9 0
BBX 9 9 0 -1
BITMAP
0000
0000
0000
0000
0000
0000
0000
0000
0000
ENDCHAR

STARTCHAR phi
ENCODING 252
SWIDTH 864 0
DWIDTH 9 0
BBX 9 9 0 -1
BITMAP
0000
0000
0000
0000
0000
0000
0000
0000
0000
ENDCHAR

STARTCHAR chi
ENCODING 253
SWIDTH 864 0
DWIDTH 9 0
BBX 9 9 0 -1
BITMAP
0000
0000
0000
0000
0000
0000
0000
0000
0000
ENDCHAR

STARTCHAR psi
ENCODING 254
SWIDTH 864 0
DWIDTH 9 0
BBX 9 9 0 -1
BITMAP
0000
0000
0000
0000
0000
0000
0000
0000
0000
ENDCHAR

STARTCHAR omega
ENCODING 255
SWIDTH 864 0
DWIDTH 9 0
BBX 9 9 0 -1
BITMAP
0000
0000
0000
0000
0000
0000
0000
0000
0000
ENDCHAR

ENDFONT
