STARTFONT 2.1
FONT -Square-Fixed-Medium-R-Normal--9-90-75-75-C-60-iso8859-1
SIZE 9 75 75
FONTBOUNDINGBOX 9 9 0 -1

STARTPROPERTIES 23
FONTNAME_REGISTRY ""
FOUNDRY "Square"
FAMILY_NAME "Fixed"
WEIGHT_NAME "Medium"
SLANT "R"
SETWIDTH_NAME "Normal"
ADD_STYLE_NAME ""
PIXEL_SIZE "9"
POINT_SIZE "90"
RESOLUTION_X "75"
RESOLUTION_Y "75"
SPACING "C"
AVERAGE_WIDTH "60"
CHARSET_REGISTRY "iso8859"
CHARSET_ENCODING "1"
COPYRIGHT "none"
CAP_HEIGHT 7
X_HEIGHT 5
WEIGHT 9
RESOLUTION 103
QUAD_WIDTH 9
FONT_ASCENT 8
FONT_DESCENT 1
ENDPROPERTIES

CHARS 256

STARTCHAR 00
ENCODING 0
SWIDTH 864 0
DWIDTH 9 0
BBX 9 9 0 -1
BITMAP
0000
0000
0000
0000
0000
0000
0000
0000
0000
ENDCHAR

STARTCHAR 01
ENCODING 1
SWIDTH 864 0
DWIDTH 9 0
BBX 9 9 0 -1
BITMAP
0000
0000
0000
0000
0000
0000
0000
0000
0000
ENDCHAR

STARTCHAR 02
ENCODING 2
SWIDTH 864 0
DWIDTH 9 0
BBX 9 9 0 -1
BITMAP
0000
0000
0000
0000
0000
0000
0000
0000
0000
ENDCHAR

STARTCHAR 03
ENCODING 3
SWIDTH 864 0
DWIDTH 9 0
BBX 9 9 0 -1
BITMAP
0000
0000
0000
0000
0000
0000
0000
0000
0000
ENDCHAR

STARTCHAR 04
ENCODING 4
SWIDTH 864 0
DWIDTH 9 0
BBX 9 9 0 -1
BITMAP
0000
0000
0000
0000
0000
0000
0000
0000
0000
ENDCHAR

STARTCHAR 05
ENCODING 5
SWIDTH 864 0
DWIDTH 9 0
BBX 9 9 0 -1
BITMAP
0000
0000
0000
0000
0000
0000
0000
0000
0000
ENDCHAR

STARTCHAR 06
ENCODING 6
SWIDTH 864 0
DWIDTH 9 0
BBX 9 9 0 -1
BITMAP
0000
0000
0000
0000
0000
0000
0000
0000
0000
ENDCHAR

STARTCHAR 07
ENCODING 7
SWIDTH 864 0
DWIDTH 9 0
BBX 9 9 0 -1
BITMAP
0000
0000
0000
0000
0000
0000
0000
0000
0000
ENDCHAR

STARTCHAR del
ENCODING 8
SWIDTH 864 0
DWIDTH 9 0
BBX 9 9 0 -1
BITMAP
0000
0000
0000
0000
0000
0000
0000
0000
0000
ENDCHAR

STARTCHAR tab
ENCODING 9
SWIDTH 864 0
DWIDTH 9 0
BBX 9 9 0 -1
BITMAP
0000
0000
0000
0000
0000
0000
0000
0000
0000
ENDCHAR

STARTCHAR return
ENCODING 10
SWIDTH 864 0
DWIDTH 9 0
BBX 9 9 0 -1
BITMAP
0000
0000
0000
0000
0000
0000
0000
0000
0000
ENDCHAR

STARTCHAR 0b
ENCODING 11
SWIDTH 864 0
DWIDTH 9 0
BBX 9 9 0 -1
BITMAP
0000
0000
0000
0000
0000
0000
0000
0000
0000
ENDCHAR

STARTCHAR 0c
ENCODING 12
SWIDTH 864 0
DWIDTH 9 0
BBX 9 9 0 -1
BITMAP
0000
0000
0000
0000
0000
0000
0000
0000
0000
ENDCHAR

STARTCHAR enter
ENCODING 13
SWIDTH 864 0
DWIDTH 9 0
BBX 9 9 0 -1
BITMAP
0000
0000
0000
0000
0000
0000
0000
0000
0000
ENDCHAR

STARTCHAR 0e
ENCODING 14
SWIDTH 864 0
DWIDTH 9 0
BBX 9 9 0 -1
BITMAP
0000
0000
0000
0000
0000
0000
0000
0000
0000
ENDCHAR

STARTCHAR 0f
ENCODING 15
SWIDTH 864 0
DWIDTH 9 0
BBX 9 9 0 -1
BITMAP
0000
0000
0000
0000
0000
0000
0000
0000
0000
ENDCHAR

STARTCHAR 10
ENCODING 16
SWIDTH 864 0
DWIDTH 9 0
BBX 9 9 0 -1
BITMAP
0000
0000
0000
0000
0000
0000
0000
0000
0000
ENDCHAR

STARTCHAR 11
ENCODING 17
SWIDTH 864 0
DWIDTH 9 0
BBX 9 9 0 -1
BITMAP
0000
0000
0000
0000
0000
0000
0000
0000
0000
ENDCHAR

STARTCHAR 12
ENCODING 18
SWIDTH 864 0
DWIDTH 9 0
BBX 9 9 0 -1
BITMAP
0000
0000
0000
0000
0000
0000
0000
0000
0000
ENDCHAR

STARTCHAR 13
ENCODING 19
SWIDTH 864 0
DWIDTH 9 0
BBX 9 9 0 -1
BITMAP
0000
0000
0000
0000
0000
0000
0000
0000
0000
ENDCHAR

STARTCHAR 14
ENCODING 20
SWIDTH 864 0
DWIDTH 9 0
BBX 9 9 0 -1
BITMAP
0000
0000
0000
0000
0000
0000
0000
0000
0000
ENDCHAR

STARTCHAR 15
ENCODING 21
SWIDTH 864 0
DWIDTH 9 0
BBX 9 9 0 -1
BITMAP
0000
0000
0000
0000
0000
0000
0000
0000
0000
ENDCHAR

STARTCHAR 16
ENCODING 22
SWIDTH 864 0
DWIDTH 9 0
BBX 9 9 0 -1
BITMAP
0000
0000
0000
0000
0000
0000
0000
0000
0000
ENDCHAR

STARTCHAR 17
ENCODING 23
SWIDTH 864 0
DWIDTH 9 0
BBX 9 9 0 -1
BITMAP
0000
0000
0000
0000
0000
0000
0000
0000
0000
ENDCHAR

STARTCHAR 18
ENCODING 24
SWIDTH 864 0
DWIDTH 9 0
BBX 9 9 0 -1
BITMAP
0000
0000
0000
0000
0000
0000
0000
0000
0000
ENDCHAR

STARTCHAR 19
ENCODING 25
SWIDTH 864 0
DWIDTH 9 0
BBX 9 9 0 -1
BITMAP
0000
0000
0000
0000
0000
0000
0000
0000
0000
ENDCHAR

STARTCHAR 1a
ENCODING 26
SWIDTH 864 0
DWIDTH 9 0
BBX 9 9 0 -1
BITMAP
0000
0000
0000
0000
0000
0000
0000
0000
0000
ENDCHAR

STARTCHAR escape
ENCODING 27
SWIDTH 864 0
DWIDTH 9 0
BBX 9 9 0 -1
BITMAP
0000
0000
0000
0000
0000
0000
0000
0000
0000
ENDCHAR

STARTCHAR 1c
ENCODING 28
SWIDTH 864 0
DWIDTH 9 0
BBX 9 9 0 -1
BITMAP
0000
0000
0000
0000
0000
0000
0000
0000
0000
ENDCHAR

STARTCHAR group
ENCODING 29
SWIDTH 864 0
DWIDTH 9 0
BBX 9 9 0 -1
BITMAP
0000
0000
0000
0000
0000
0000
0000
0000
0000
ENDCHAR

STARTCHAR 1e
ENCODING 30
SWIDTH 864 0
DWIDTH 9 0
BBX 9 9 0 -1
BITMAP
0000
0000
0000
0000
0000
0000
0000
0000
0000
ENDCHAR

STARTCHAR field
ENCODING 31
SWIDTH 864 0
DWIDTH 9 0
BBX 9 9 0 -1
BITMAP
0000
0000
0000
0000
0000
0000
0000
0000
0000
ENDCHAR

STARTCHAR space
ENCODING 32
SWIDTH 864 0
DWIDTH 9 0
BBX 9 9 0 -1
BITMAP
0000
0000
0000
0000
0000
0000
0000
0000
0000
ENDCHAR

STARTCHAR exclam
ENCODING 33
SWIDTH 864 0
DWIDTH 9 0
BBX 9 9 0 -1
BITMAP
0000
0010
0010
0010
0010
0000
0000
007C
0000
ENDCHAR

STARTCHAR dquote
ENCODING 34
SWIDTH 864 0
DWIDTH 9 0
BBX 9 9 0 -1
BITMAP
0000
0028
0028
0028
0000
0000
0000
0000
0000
ENDCHAR

STARTCHAR numbersignt
ENCODING 35
SWIDTH 864 0
DWIDTH 9 0
BBX 9 9 0 -1
BITMAP
0000
0028
0028
00FE
0028
00FE
0028
0028
0000
ENDCHAR

STARTCHAR dollar
ENCODING 36
SWIDTH 864 0
DWIDTH 9 0
BBX 9 9 0 -1
BITMAP
0000
0010
007E
0090
007C
0012
00FC
0010
0000
ENDCHAR

STARTCHAR percent
ENCODING 37
SWIDTH 864 0
DWIDTH 9 0
BBX 9 9 0 -1
BITMAP
0000
0044
00A4
0048
0010
0024
004A
0044
0000
ENDCHAR

STARTCHAR ampersand
ENCODING 38
SWIDTH 864 0
DWIDTH 9 0
BBX 9 9 0 -1
BITMAP
0000
0060
0090
0090
0070
008A
0084
007A
0000
ENDCHAR

STARTCHAR squote
ENCODING 39
SWIDTH 864 0
DWIDTH 9 0
BBX 9 9 0 -1
BITMAP
0000
0010
0010
0010
0000
0000
0000
0000
0000
ENDCHAR

STARTCHAR parenleftft
ENCODING 40
SWIDTH 864 0
DWIDTH 9 0
BBX 9 9 0 -1
BITMAP
0000
001C
0020
0040
0040
0040
0020
001C
0000
ENDCHAR

STARTCHAR parenright
ENCODING 41
SWIDTH 864 0
DWIDTH 9 0
BBX 9 9 0 -1
BITMAP
0000
0070
0008
0004
0004
0004
0008
0070
0000
ENDCHAR

STARTCHAR asterisk
ENCODING 42
SWIDTH 864 0
DWIDTH 9 0
BBX 9 9 0 -1
BITMAP
0000
0000
0044
0028
00FE
0028
0044
0000
0000
ENDCHAR

STARTCHAR plus
ENCODING 43
SWIDTH 864 0
DWIDTH 9 0
BBX 9 9 0 -1
BITMAP
0000
0000
0010
0010
007C
0010
0010
0000
0000
ENDCHAR

STARTCHAR comma
ENCODING 44
SWIDTH 864 0
DWIDTH 9 0
BBX 9 9 0 -1
BITMAP
0000
0000
0000
0000
0000
0010
0018
0010
0020
ENDCHAR

STARTCHAR hyphen
ENCODING 45
SWIDTH 864 0
DWIDTH 9 0
BBX 9 9 0 -1
BITMAP
0000
0000
0000
0000
007C
0000
0000
0000
0000
ENDCHAR

STARTCHAR period
ENCODING 46
SWIDTH 864 0
DWIDTH 9 0
BBX 9 9 0 -1
BITMAP
0000
0000
0000
0000
0000
0010
0038
0010
0000
ENDCHAR

STARTCHAR slash
ENCODING 47
SWIDTH 864 0
DWIDTH 9 0
BBX 9 9 0 -1
BITMAP
0000
0004
0004
0008
0010
0020
0040
0040
0000
ENDCHAR

STARTCHAR zero
ENCODING 48
SWIDTH 864 0
DWIDTH 9 0
BBX 9 9 0 -1
BITMAP
0000
007C
0082
0092
0092
0092
0082
007C
0000
ENDCHAR

STARTCHAR one
ENCODING 49
SWIDTH 864 0
DWIDTH 9 0
BBX 9 9 0 -1
BITMAP
0000
0010
0030
0050
0010
0010
0010
00FE
0000
ENDCHAR

STARTCHAR two
ENCODING 50
SWIDTH 864 0
DWIDTH 9 0
BBX 9 9 0 -1
BITMAP
0000
007C
0082
0002
007C
0080
0080
00FE
0000
ENDCHAR

STARTCHAR three
ENCODING 51
SWIDTH 864 0
DWIDTH 9 0
BBX 9 9 0 -1
BITMAP
0000
00FE
0004
0008
001C
0002
0082
007C
0000
ENDCHAR

STARTCHAR four
ENCODING 52
SWIDTH 864 0
DWIDTH 9 0
BBX 9 9 0 -1
BITMAP
0000
0002
0082
0082
00FE
0002
0002
0002
0000
ENDCHAR

STARTCHAR five
ENCODING 53
SWIDTH 864 0
DWIDTH 9 0
BBX 9 9 0 -1
BITMAP
0000
00FC
0080
00BC
00C2
0002
0082
007C
0000
ENDCHAR

STARTCHAR six
ENCODING 54
SWIDTH 864 0
DWIDTH 9 0
BBX 9 9 0 -1
BITMAP
0000
003E
0040
0080
00BC
00C2
0082
007C
0000
ENDCHAR

STARTCHAR seven
ENCODING 55
SWIDTH 864 0
DWIDTH 9 0
BBX 9 9 0 -1
BITMAP
0000
00FE
0004
0008
0038
0010
0020
0020
0000
ENDCHAR

STARTCHAR eight
ENCODING 56
SWIDTH 864 0
DWIDTH 9 0
BBX 9 9 0 -1
BITMAP
0000
007C
0082
0082
007C
0082
0082
007C
0000
ENDCHAR

STARTCHAR nine
ENCODING 57
SWIDTH 864 0
DWIDTH 9 0
BBX 9 9 0 -1
BITMAP
0000
007C
0082
0086
007A
0002
0004
00F8
0000
ENDCHAR

STARTCHAR colon
ENCODING 58
SWIDTH 864 0
DWIDTH 9 0
BBX 9 9 0 -1
BITMAP
0000
0010
0038
0010
0000
0010
0038
0010
0000
ENDCHAR

STARTCHAR semicolon
ENCODING 59
SWIDTH 864 0
DWIDTH 9 0
BBX 9 9 0 -1
BITMAP
0000
0010
0038
0010
0000
0010
0018
0010
0020
ENDCHAR

STARTCHAR lesserthan
ENCODING 60
SWIDTH 864 0
DWIDTH 9 0
BBX 9 9 0 -1
BITMAP
0000
0004
0008
0010
0060
0010
0008
0004
0000
ENDCHAR

STARTCHAR equal
ENCODING 61
SWIDTH 864 0
DWIDTH 9 0
BBX 9 9 0 -1
BITMAP
0000
0000
0000
007C
0000
007C
0000
0000
0000
ENDCHAR

STARTCHAR greaterthan
ENCODING 62
SWIDTH 864 0
DWIDTH 9 0
BBX 9 9 0 -1
BITMAP
0000
0040
0020
0010
000C
0010
0020
0040
0000
ENDCHAR

STARTCHAR question
ENCODING 63
SWIDTH 864 0
DWIDTH 9 0
BBX 9 9 0 -1
BITMAP
0000
0038
0044
0008
0010
0000
0000
007C
0000
ENDCHAR

STARTCHAR at
ENCODING 64
SWIDTH 864 0
DWIDTH 9 0
BBX 9 9 0 -1
BITMAP
0000
007C
008A
0092
009C
0080
0080
0078
0000
ENDCHAR

STARTCHAR A
ENCODING 65
SWIDTH 864 0
DWIDTH 9 0
BBX 9 9 0 -1
BITMAP
0000
0038
0044
0082
0082
009E
0082
0082
0000
ENDCHAR

STARTCHAR B
ENCODING 66
SWIDTH 864 0
DWIDTH 9 0
BBX 9 9 0 -1
BITMAP
0000
00FC
0082
0082
009C
0082
0082
00FC
0000
ENDCHAR

STARTCHAR C
ENCODING 67
SWIDTH 864 0
DWIDTH 9 0
BBX 9 9 0 -1
BITMAP
0000
007C
0082
0080
0080
0080
0082
007C
0000
ENDCHAR

STARTCHAR D
ENCODING 68
SWIDTH 864 0
DWIDTH 9 0
BBX 9 9 0 -1
BITMAP
0000
00FC
0082
0082
0082
0082
0082
00FC
0000
ENDCHAR

STARTCHAR E
ENCODING 69
SWIDTH 864 0
DWIDTH 9 0
BBX 9 9 0 -1
BITMAP
0000
00FE
0000
0080
00FC
0080
0080
00FE
0000
ENDCHAR

STARTCHAR F
ENCODING 70
SWIDTH 864 0
DWIDTH 9 0
BBX 9 9 0 -1
BITMAP
0000
00FE
0000
0080
00FC
0080
0080
0080
0000
ENDCHAR

STARTCHAR G
ENCODING 71
SWIDTH 864 0
DWIDTH 9 0
BBX 9 9 0 -1
BITMAP
0000
007C
0002
0080
0080
008E
0082
007C
0000
ENDCHAR

STARTCHAR H
ENCODING 72
SWIDTH 864 0
DWIDTH 9 0
BBX 9 9 0 -1
BITMAP
0000
0082
0082
0082
009E
0082
0082
0082
0000
ENDCHAR

STARTCHAR I
ENCODING 73
SWIDTH 864 0
DWIDTH 9 0
BBX 9 9 0 -1
BITMAP
0000
00FE
0000
0010
0010
0010
0010
00FE
0000
ENDCHAR

STARTCHAR J
ENCODING 74
SWIDTH 864 0
DWIDTH 9 0
BBX 9 9 0 -1
BITMAP
0000
00FE
0000
0004
0004
0004
0084
0078
0000
ENDCHAR

STARTCHAR K
ENCODING 75
SWIDTH 864 0
DWIDTH 9 0
BBX 9 9 0 -1
BITMAP
0000
0082
0084
0088
0090
0088
0084
0082
0000
ENDCHAR

STARTCHAR L
ENCODING 76
SWIDTH 864 0
DWIDTH 9 0
BBX 9 9 0 -1
BITMAP
0000
0080
0080
0080
0080
0080
0080
00FE
0000
ENDCHAR

STARTCHAR M
ENCODING 77
SWIDTH 864 0
DWIDTH 9 0
BBX 9 9 0 -1
BITMAP
0000
0082
00C6
00AA
0092
0082
0082
0082
0000
ENDCHAR

STARTCHAR N
ENCODING 78
SWIDTH 864 0
DWIDTH 9 0
BBX 9 9 0 -1
BITMAP
0000
0082
00C2
00A2
0092
008A
0086
0082
0000
ENDCHAR

STARTCHAR O
ENCODING 79
SWIDTH 864 0
DWIDTH 9 0
BBX 9 9 0 -1
BITMAP
0000
007C
0082
0082
0082
0082
0082
007C
0000
ENDCHAR

STARTCHAR P
ENCODING 80
SWIDTH 864 0
DWIDTH 9 0
BBX 9 9 0 -1
BITMAP
0000
00FC
0082
0082
009C
0080
0080
0080
0000
ENDCHAR

STARTCHAR Q
ENCODING 81
SWIDTH 864 0
DWIDTH 9 0
BBX 9 9 0 -1
BITMAP
0000
007C
0082
0082
0082
0092
0088
0078
0000
ENDCHAR

STARTCHAR R
ENCODING 82
SWIDTH 864 0
DWIDTH 9 0
BBX 9 9 0 -1
BITMAP
0000
00FC
0082
0082
009C
0088
0084
0082
0000
ENDCHAR

STARTCHAR S
ENCODING 83
SWIDTH 864 0
DWIDTH 9 0
BBX 9 9 0 -1
BITMAP
0000
007C
0082
0080
007C
0002
0082
007C
0000
ENDCHAR

STARTCHAR T
ENCODING 84
SWIDTH 864 0
DWIDTH 9 0
BBX 9 9 0 -1
BITMAP
0000
00FE
0000
0010
0010
0010
0010
0010
0000
ENDCHAR

STARTCHAR U
ENCODING 85
SWIDTH 864 0
DWIDTH 9 0
BBX 9 9 0 -1
BITMAP
0000
0082
0082
0082
0082
0082
0082
007C
0000
ENDCHAR

STARTCHAR V
ENCODING 86
SWIDTH 864 0
DWIDTH 9 0
BBX 9 9 0 -1
BITMAP
0000
0082
0082
0044
0044
0028
0028
0010
0000
ENDCHAR

STARTCHAR W
ENCODING 87
SWIDTH 864 0
DWIDTH 9 0
BBX 9 9 0 -1
BITMAP
0000
0082
0082
0082
0092
00AA
00C6
0082
0000
ENDCHAR

STARTCHAR X
ENCODING 88
SWIDTH 864 0
DWIDTH 9 0
BBX 9 9 0 -1
BITMAP
0000
0082
0082
0044
0028
0044
0082
0082
0000
ENDCHAR

STARTCHAR Y
ENCODING 89
SWIDTH 864 0
DWIDTH 9 0
BBX 9 9 0 -1
BITMAP
0000
0082
0082
0044
0038
0010
0010
0010
0000
ENDCHAR

STARTCHAR Z
ENCODING 90
SWIDTH 864 0
DWIDTH 9 0
BBX 9 9 0 -1
BITMAP
0000
00FE
0004
0008
0010
0020
0040
00FE
0000
ENDCHAR

STARTCHAR bracketl   eft
ENCODING 91
SWIDTH 864 0
DWIDTH 9 0
BBX 9 9 0 -1
BITMAP
0000
007C
0040
0040
0040
0040
0040
007C
0000
ENDCHAR

STARTCHAR bslash
ENCODING 92
SWIDTH 864 0
DWIDTH 9 0
BBX 9 9 0 -1
BITMAP
0000
0040
0040
0020
0010
0008
0004
0004
0000
ENDCHAR

STARTCHAR bracketr   ight
ENCODING 93
SWIDTH 864 0
DWIDTH 9 0
BBX 9 9 0 -1
BITMAP
0000
007C
0004
0004
0004
0004
0004
007C
0000
ENDCHAR

STARTCHAR asciicir   cum
ENCODING 94
SWIDTH 864 0
DWIDTH 9 0
BBX 9 9 0 -1
BITMAP
0000
0010
0028
0044
0000
0000
0000
0000
0000
ENDCHAR

STARTCHAR undersco   re
ENCODING 95
SWIDTH 864 0
DWIDTH 9 0
BBX 9 9 0 -1
BITMAP
0000
0000
0000
0000
0000
0000
0000
0000
01FF
ENDCHAR

STARTCHAR half-long
ENCODING 96
SWIDTH 864 0
DWIDTH 9 0
BBX 9 9 0 -1
BITMAP
0000
007C
0038
0010
0000
0000
0000
0000
0000
ENDCHAR

STARTCHAR a
ENCODING 97
SWIDTH 864 0
DWIDTH 9 0
BBX 9 9 0 -1
BITMAP
0000
0000
0078
0004
007C
0084
007C
0000
0000
ENDCHAR

STARTCHAR b
ENCODING 98
SWIDTH 864 0
DWIDTH 9 0
BBX 9 9 0 -1
BITMAP
0080
0080
00FC
0082
0082
0082
00FC
0000
0000
ENDCHAR

STARTCHAR c
ENCODING 99
SWIDTH 864 0
DWIDTH 9 0
BBX 9 9 0 -1
BITMAP
0000
0000
007C
0082
0080
0082
007C
0000
0000
ENDCHAR

STARTCHAR d
ENCODING 100
SWIDTH 864 0
DWIDTH 9 0
BBX 9 9 0 -1
BITMAP
0002
0002
007E
0082
0082
0082
007E
0000
0000
ENDCHAR

STARTCHAR e
ENCODING 101
SWIDTH 864 0
DWIDTH 9 0
BBX 9 9 0 -1
BITMAP
0000
0000
007C
0082
00FC
0080
007C
0000
0000
ENDCHAR

STARTCHAR f
ENCODING 102
SWIDTH 864 0
DWIDTH 9 0
BBX 9 9 0 -1
BITMAP
001C
0022
0020
00F8
0020
0020
0020
0000
0000
ENDCHAR

STARTCHAR g
ENCODING 103
SWIDTH 864 0
DWIDTH 9 0
BBX 9 9 0 -1
BITMAP
0000
0000
007C
0082
0082
007E
0002
007C
0000
ENDCHAR

STARTCHAR h
ENCODING 104
SWIDTH 864 0
DWIDTH 9 0
BBX 9 9 0 -1
BITMAP
0080
0080
00BC
00C2
0082
0082
0082
0000
0000
ENDCHAR

STARTCHAR i
ENCODING 105
SWIDTH 864 0
DWIDTH 9 0
BBX 9 9 0 -1
BITMAP
0010
0020
0000
0010
0010
0010
0010
0000
0000
ENDCHAR

STARTCHAR j
ENCODING 106
SWIDTH 864 0
DWIDTH 9 0
BBX 9 9 0 -1
BITMAP
0002
0004
0000
0002
0002
0002
0082
007C
0000
ENDCHAR

STARTCHAR k
ENCODING 107
SWIDTH 864 0
DWIDTH 9 0
BBX 9 9 0 -1
BITMAP
0040
008C
0090
00A0
00D0
0088
0084
0002
0000
ENDCHAR

STARTCHAR l
ENCODING 108
SWIDTH 864 0
DWIDTH 9 0
BBX 9 9 0 -1
BITMAP
0080
00C0
0080
0080
0080
0082
007C
0000
0000
ENDCHAR

STARTCHAR m
ENCODING 109
SWIDTH 864 0
DWIDTH 9 0
BBX 9 9 0 -1
BITMAP
0000
0000
006C
0092
0082
0082
0082
0000
0000
ENDCHAR

STARTCHAR n
ENCODING 110
SWIDTH 864 0
DWIDTH 9 0
BBX 9 9 0 -1
BITMAP
0000
0000
007C
0082
0082
0082
0082
0000
0000
ENDCHAR

STARTCHAR o
ENCODING 111
SWIDTH 864 0
DWIDTH 9 0
BBX 9 9 0 -1
BITMAP
0000
0010
007C
0092
0082
0082
007C
0000
0000
ENDCHAR

STARTCHAR p
ENCODING 112
SWIDTH 864 0
DWIDTH 9 0
BBX 9 9 0 -1
BITMAP
0000
0000
007C
0082
0082
00FC
0080
0080
0000
ENDCHAR

STARTCHAR q
ENCODING 113
SWIDTH 864 0
DWIDTH 9 0
BBX 9 9 0 -1
BITMAP
0000
0000
007C
0082
0082
007E
0002
0002
0000
ENDCHAR

STARTCHAR r
ENCODING 114
SWIDTH 864 0
DWIDTH 9 0
BBX 9 9 0 -1
BITMAP
0000
0000
007C
0082
0080
0080
0080
0000
0000
ENDCHAR

STARTCHAR s
ENCODING 115
SWIDTH 864 0
DWIDTH 9 0
BBX 9 9 0 -1
BITMAP
0000
0000
007E
0080
007C
0002
00FC
0000
0000
ENDCHAR

STARTCHAR t
ENCODING 116
SWIDTH 864 0
DWIDTH 9 0
BBX 9 9 0 -1
BITMAP
00CC
0000
00FE
0010
0020
0044
0038
0000
0000
ENDCHAR

STARTCHAR u
ENCODING 117
SWIDTH 864 0
DWIDTH 9 0
BBX 9 9 0 -1
BITMAP
0000
0000
0082
0082
0082
0082
007C
0000
0000
ENDCHAR

STARTCHAR v
ENCODING 118
SWIDTH 864 0
DWIDTH 9 0
BBX 9 9 0 -1
BITMAP
0000
0000
0082
0082
0044
0028
0010
0000
0000
ENDCHAR

STARTCHAR w
ENCODING 119
SWIDTH 864 0
DWIDTH 9 0
BBX 9 9 0 -1
BITMAP
0000
0000
0082
0082
0082
0092
006C
0000
0000
ENDCHAR

STARTCHAR x
ENCODING 120
SWIDTH 864 0
DWIDTH 9 0
BBX 9 9 0 -1
BITMAP
0000
0000
0082
0044
0028
0044
0082
0000
0000
ENDCHAR

STARTCHAR y
ENCODING 121
SWIDTH 864 0
DWIDTH 9 0
BBX 9 9 0 -1
BITMAP
0000
0000
0082
0082
0082
007E
0002
007C
0000
ENDCHAR

STARTCHAR z
ENCODING 122
SWIDTH 864 0
DWIDTH 9 0
BBX 9 9 0 -1
BITMAP
0000
0000
00FE
0004
0010
0040
00FE
0000
0000
ENDCHAR

STARTCHAR braceleft
ENCODING 123
SWIDTH 864 0
DWIDTH 9 0
BBX 9 9 0 -1
BITMAP
0000
001C
0020
0010
0060
0010
0020
001C
0000
ENDCHAR

STARTCHAR pipe
ENCODING 124
SWIDTH 864 0
DWIDTH 9 0
BBX 9 9 0 -1
BITMAP
0000
0010
0010
0010
0000
0010
0010
0010
0000
ENDCHAR

STARTCHAR braceright
ENCODING 125
SWIDTH 864 0
DWIDTH 9 0
BBX 9 9 0 -1
BITMAP
0000
0070
0008
0010
000C
0010
0008
0070
0000
ENDCHAR

STARTCHAR tilda
ENCODING 126
SWIDTH 864 0
DWIDTH 9 0
BBX 9 9 0 -1
BITMAP
0000
0000
0000
0024
0054
0048
0000
0000
0000
ENDCHAR

STARTCHAR bs
ENCODING 127
SWIDTH 864 0
DWIDTH 9 0
BBX 9 9 0 -1
BITMAP
0000
0000
0000
0000
0000
0000
0000
0000
0000
ENDCHAR

STARTCHAR wall_horz
ENCODING 128
SWIDTH 864 0
DWIDTH 9 0
BBX 9 9 0 -1
BITMAP
0000
0000
0000
0000
01FF
0000
0000
0000
0000
ENDCHAR

STARTCHAR wall_vert
ENCODING 129
SWIDTH 864 0
DWIDTH 9 0
BBX 9 9 0 -1
BITMAP
0010
0010
0010
0010
0010
0010
0010
0010
0010
ENDCHAR

STARTCHAR left_down
ENCODING 130
SWIDTH 864 0
DWIDTH 9 0
BBX 9 9 0 -1
BITMAP
0000
0000
0000
0000
01E0
0010
0010
0010
0010
ENDCHAR

STARTCHAR up_right
ENCODING 131
SWIDTH 864 0
DWIDTH 9 0
BBX 9 9 0 -1
BITMAP
0000
0000
0000
0000
000F
0010
0010
0010
0010
ENDCHAR

STARTCHAR down_right
ENCODING 132
SWIDTH 864 0
DWIDTH 9 0
BBX 9 9 0 -1
BITMAP
0010
0010
0010
0010
000F
0000
0000
0000
0000
ENDCHAR

STARTCHAR down_left
ENCODING 133
SWIDTH 864 0
DWIDTH 9 0
BBX 9 9 0 -1
BITMAP
0010
0010
0010
0010
01E0
0000
0000
0000
0000
ENDCHAR

STARTCHAR left_t
ENCODING 134
SWIDTH 864 0
DWIDTH 9 0
BBX 9 9 0 -1
BITMAP
0010
0010
0010
0020
01C0
0020
0010
0010
0010
ENDCHAR

STARTCHAR right_t
ENCODING 135
SWIDTH 864 0
DWIDTH 9 0
BBX 9 9 0 -1
BITMAP
0010
0010
0010
0008
0007
0008
0010
0010
0010
ENDCHAR

STARTCHAR up_t
ENCODING 136
SWIDTH 864 0
DWIDTH 9 0
BBX 9 9 0 -1
BITMAP
0010
0010
0010
0028
01C7
0000
0000
0000
0000
ENDCHAR

STARTCHAR down_t
ENCODING 137
SWIDTH 864 0
DWIDTH 9 0
BBX 9 9 0 -1
BITMAP
0000
0000
0000
0000
01C7
0028
0010
0010
0010
ENDCHAR

STARTCHAR fourway
ENCODING 138
SWIDTH 864 0
DWIDTH 9 0
BBX 9 9 0 -1
BITMAP
0010
0010
0010
0028
01C7
0028
0010
0010
0010
ENDCHAR

STARTCHAR vert_open
ENCODING 139
SWIDTH 864 0
DWIDTH 9 0
BBX 9 9 0 -1
BITMAP
0038
0000
0000
0000
0000
0000
0000
0038
0010
ENDCHAR

STARTCHAR vert_win
ENCODING 140
SWIDTH 864 0
DWIDTH 9 0
BBX 9 9 0 -1
BITMAP
0000
0000
0010
0000
0010
0000
0010
0000
0000
ENDCHAR

STARTCHAR vert_door1
ENCODING 141
SWIDTH 864 0
DWIDTH 9 0
BBX 9 9 0 -1
BITMAP
0010
0010
0010
0008
0004
0040
0020
0010
0010
ENDCHAR

STARTCHAR vert_door2
ENCODING 142
SWIDTH 864 0
DWIDTH 9 0
BBX 9 9 0 -1
BITMAP
0010
0010
0010
0020
0040
0004
0008
0010
0010
ENDCHAR

STARTCHAR result
ENCODING 143
SWIDTH 864 0
DWIDTH 9 0
BBX 9 9 0 -1
BITMAP
0000
0000
0000
0010
0000
0044
0000
0000
0000
ENDCHAR

STARTCHAR horz_open1
ENCODING 144
SWIDTH 864 0
DWIDTH 9 0
BBX 9 9 0 -1
BITMAP
0000
0000
0000
0081
0181
0081
0000
0000
0000
ENDCHAR

STARTCHAR horz_open2
ENCODING 145
SWIDTH 864 0
DWIDTH 9 0
BBX 9 9 0 -1
BITMAP
0000
0000
0000
0081
0181
0081
0000
0000
0000
ENDCHAR

STARTCHAR door_down1
ENCODING 146
SWIDTH 864 0
DWIDTH 9 0
BBX 9 9 0 -1
BITMAP
0000
0000
0000
0000
0180
0040
0020
0010
0000
ENDCHAR

STARTCHAR door_down2
ENCODING 147
SWIDTH 864 0
DWIDTH 9 0
BBX 9 9 0 -1
BITMAP
0000
0010
0008
0004
0003
0000
0000
0000
0000
ENDCHAR

STARTCHAR half_top
ENCODING 148
SWIDTH 864 0
DWIDTH 9 0
BBX 9 9 0 -1
BITMAP
0010
0010
0010
0010
0038
0000
0000
0000
0000
ENDCHAR

STARTCHAR half_bot
ENCODING 149
SWIDTH 864 0
DWIDTH 9 0
BBX 9 9 0 -1
BITMAP
0000
0000
0000
0000
0038
0010
0010
0010
0010
ENDCHAR

STARTCHAR door_up1
ENCODING 150
SWIDTH 864 0
DWIDTH 9 0
BBX 9 9 0 -1
BITMAP
0000
0010
0020
0040
0180
0000
0000
0000
0000
ENDCHAR

STARTCHAR door_up2
ENCODING 151
SWIDTH 864 0
DWIDTH 9 0
BBX 9 9 0 -1
BITMAP
0000
0000
0000
0000
0003
0004
0008
0010
0000
ENDCHAR

STARTCHAR plusminus
ENCODING 152
SWIDTH 864 0
DWIDTH 9 0
BBX 9 9 0 -1
BITMAP
0000
0010
0010
007C
0010
0010
0000
007C
0000
ENDCHAR

STARTCHAR infinity
ENCODING 153
SWIDTH 864 0
DWIDTH 9 0
BBX 9 9 0 -1
BITMAP
0000
007C
0082
0044
0028
0044
0082
007C
0000
ENDCHAR

STARTCHAR function
ENCODING 154
SWIDTH 864 0
DWIDTH 9 0
BBX 9 9 0 -1
BITMAP
0000
000E
0010
0010
007C
0010
0010
00E0
0000
ENDCHAR

STARTCHAR dslash
ENCODING 155
SWIDTH 864 0
DWIDTH 9 0
BBX 9 9 0 -1
BITMAP
0000
0000
0008
0010
0024
0048
0010
0020
0000
ENDCHAR

STARTCHAR tooth_up
ENCODING 156
SWIDTH 864 0
DWIDTH 9 0
BBX 9 9 0 -1
BITMAP
0000
0000
00FC
0084
01FF
0000
0000
0000
0000
ENDCHAR

STARTCHAR tooth_down
ENCODING 157
SWIDTH 864 0
DWIDTH 9 0
BBX 9 9 0 -1
BITMAP
0000
0000
0000
0000
01FF
0084
00FC
0000
0000
ENDCHAR

STARTCHAR tooth_right
ENCODING 158
SWIDTH 864 0
DWIDTH 9 0
BBX 9 9 0 -1
BITMAP
0010
001C
0014
0014
0014
0014
001C
0010
0010
ENDCHAR

STARTCHAR tooth_left
ENCODING 159
SWIDTH 864 0
DWIDTH 9 0
BBX 9 9 0 -1
BITMAP
0010
0070
0050
0050
0050
0050
0070
0010
0010
ENDCHAR

STARTCHAR empty
ENCODING 160
SWIDTH 864 0
DWIDTH 9 0
BBX 9 9 0 -1
BITMAP
0000
0000
0010
0082
0000
0082
0010
0000
0000
ENDCHAR

STARTCHAR rexclam
ENCODING 161
SWIDTH 864 0
DWIDTH 9 0
BBX 9 9 0 -1
BITMAP
0000
007C
0000
0000
0010
0010
0010
0010
0000
ENDCHAR

STARTCHAR rquest
ENCODING 162
SWIDTH 864 0
DWIDTH 9 0
BBX 9 9 0 -1
BITMAP
0000
007C
0000
0000
0010
0020
0044
0038
0000
ENDCHAR

STARTCHAR null
ENCODING 163
SWIDTH 864 0
DWIDTH 9 0
BBX 9 9 0 -1
BITMAP
0000
007C
0086
008A
0092
00A2
00C2
007C
0000
ENDCHAR

STARTCHAR place
ENCODING 164
SWIDTH 864 0
DWIDTH 9 0
BBX 9 9 0 -1
BITMAP
0000
0000
0044
0038
0028
0038
0044
0000
0000
ENDCHAR

STARTCHAR escape
ENCODING 165
SWIDTH 864 0
DWIDTH 9 0
BBX 9 9 0 -1
BITMAP
0000
0044
0044
0028
007C
0010
0010
0010
0000
ENDCHAR

STARTCHAR return
ENCODING 166
SWIDTH 864 0
DWIDTH 9 0
BBX 9 9 0 -1
BITMAP
0000
007C
0094
0094
0074
0014
0014
0014
0000
ENDCHAR

STARTCHAR field
ENCODING 167
SWIDTH 864 0
DWIDTH 9 0
BBX 9 9 0 -1
BITMAP
0000
003C
0042
0078
0024
001C
0084
0078
0000
ENDCHAR

STARTCHAR group
ENCODING 168
SWIDTH 864 0
DWIDTH 9 0
BBX 9 9 0 -1
BITMAP
0000
0028
0028
0028
0000
0028
0028
0028
0000
ENDCHAR

STARTCHAR diamond
ENCODING 169
SWIDTH 864 0
DWIDTH 9 0
BBX 9 9 0 -1
BITMAP
0000
0000
0010
0028
0044
0028
0010
0000
0000
ENDCHAR

STARTCHAR break
ENCODING 170
SWIDTH 864 0
DWIDTH 9 0
BBX 9 9 0 -1
BITMAP
0000
0070
0088
0088
0070
0020
0020
00F8
0000
ENDCHAR

STARTCHAR long
ENCODING 171
SWIDTH 864 0
DWIDTH 9 0
BBX 9 9 0 -1
BITMAP
0000
00F8
0070
0020
0000
0020
0070
00F8
0000
ENDCHAR

STARTCHAR mask
ENCODING 172
SWIDTH 864 0
DWIDTH 9 0
BBX 9 9 0 -1
BITMAP
0000
0092
0124
0048
0092
0124
0048
0092
0000
ENDCHAR

STARTCHAR display
ENCODING 173
SWIDTH 864 0
DWIDTH 9 0
BBX 9 9 0 -1
BITMAP
0000
0020
0174
0088
0020
0070
0020
0000
0000
ENDCHAR

STARTCHAR summary
ENCODING 174
SWIDTH 864 0
DWIDTH 9 0
BBX 9 9 0 -1
BITMAP
0000
01FC
0080
0040
0020
0040
0080
01FC
0000
ENDCHAR

STARTCHAR system
ENCODING 175
SWIDTH 864 0
DWIDTH 9 0
BBX 9 9 0 -1
BITMAP
0000
0124
0124
0124
00F8
0124
0124
0124
0000
ENDCHAR

STARTCHAR redact
ENCODING 176
SWIDTH 864 0
DWIDTH 9 0
BBX 9 9 0 -1
BITMAP
0000
00FE
00FE
00FE
00FE
00FE
00FE
00FE
0000
ENDCHAR

STARTCHAR bump
ENCODING 177
SWIDTH 864 0
DWIDTH 9 0
BBX 9 9 0 -1
BITMAP
0000
0000
0000
0000
0000
0010
0038
007C
0000
ENDCHAR

STARTCHAR storage
ENCODING 178
SWIDTH 864 0
DWIDTH 9 0
BBX 9 9 0 -1
BITMAP
0000
0000
0000
0000
0044
0000
0000
0000
0000
ENDCHAR

STARTCHAR halt
ENCODING 179
SWIDTH 864 0
DWIDTH 9 0
BBX 9 9 0 -1
BITMAP
0000
0000
007C
007C
007C
007C
007C
0000
0000
ENDCHAR

STARTCHAR bigdot
ENCODING 180
SWIDTH 864 0
DWIDTH 9 0
BBX 9 9 0 -1
BITMAP
0000
0000
0000
0010
0038
0010
0000
0000
0000
ENDCHAR

STARTCHAR dbslash
ENCODING 181
SWIDTH 864 0
DWIDTH 9 0
BBX 9 9 0 -1
BITMAP
0000
0040
0020
0010
0048
0020
0010
0008
0000
ENDCHAR

STARTCHAR ddquote
ENCODING 182
SWIDTH 864 0
DWIDTH 9 0
BBX 9 9 0 -1
BITMAP
0000
0014
0014
0014
0040
0020
0010
0008
0000
ENDCHAR

STARTCHAR space
ENCODING 183
SWIDTH 864 0
DWIDTH 9 0
BBX 9 9 0 -1
BITMAP
0000
0000
0000
0000
0010
0000
0000
0000
0000
ENDCHAR

STARTCHAR slparen
ENCODING 184
SWIDTH 864 0
DWIDTH 9 0
BBX 9 9 0 -1
BITMAP
001C
0020
0060
0010
0010
0010
0060
0020
001C
ENDCHAR

STARTCHAR srparen
ENCODING 185
SWIDTH 864 0
DWIDTH 9 0
BBX 9 9 0 -1
BITMAP
0070
0008
000C
0010
0010
0010
000C
0008
0070
ENDCHAR

STARTCHAR slbrack
ENCODING 186
SWIDTH 864 0
DWIDTH 9 0
BBX 9 9 0 -1
BITMAP
007C
0040
0020
0010
0010
0010
0020
0040
007C
ENDCHAR

STARTCHAR srbrack
ENCODING 187
SWIDTH 864 0
DWIDTH 9 0
BBX 9 9 0 -1
BITMAP
007C
0004
0008
0010
0010
0010
0008
0004
007C
ENDCHAR

STARTCHAR slchev
ENCODING 188
SWIDTH 864 0
DWIDTH 9 0
BBX 9 9 0 -1
BITMAP
0000
0060
0070
0078
007C
0078
0070
0060
0000
ENDCHAR

STARTCHAR srchev
ENCODING 189
SWIDTH 864 0
DWIDTH 9 0
BBX 9 9 0 -1
BITMAP
0000
000C
001C
003C
007C
003C
001C
000C
0000
ENDCHAR

STARTCHAR del
ENCODING 190
SWIDTH 864 0
DWIDTH 9 0
BBX 9 9 0 -1
BITMAP
0000
0060
0050
0048
0044
0048
0050
0060
0000
ENDCHAR

STARTCHAR bs
ENCODING 191
SWIDTH 864 0
DWIDTH 9 0
BBX 9 9 0 -1
BITMAP
0000
000C
0014
0024
0044
0024
0014
000C
0000
ENDCHAR

STARTCHAR sub0
ENCODING 192
SWIDTH 864 0
DWIDTH 9 0
BBX 9 9 0 -1
BITMAP
0000
0000
0000
0000
0070
0088
0088
0088
0070
ENDCHAR

STARTCHAR sub1
ENCODING 193
SWIDTH 864 0
DWIDTH 9 0
BBX 9 9 0 -1
BITMAP
0000
0000
0000
0000
0020
0060
0020
0020
00F8
ENDCHAR

STARTCHAR sub2
ENCODING 194
SWIDTH 864 0
DWIDTH 9 0
BBX 9 9 0 -1
BITMAP
0000
0000
0000
0000
0070
0088
0010
0020
00F8
ENDCHAR

STARTCHAR sub3
ENCODING 195
SWIDTH 864 0
DWIDTH 9 0
BBX 9 9 0 -1
BITMAP
0000
0000
0000
0000
00F0
0008
0030
0008
00F0
ENDCHAR

STARTCHAR sub4
ENCODING 196
SWIDTH 864 0
DWIDTH 9 0
BBX 9 9 0 -1
BITMAP
0000
0000
0000
0000
0088
0088
00F8
0008
0008
ENDCHAR

STARTCHAR subn
ENCODING 197
SWIDTH 864 0
DWIDTH 9 0
BBX 9 9 0 -1
BITMAP
0000
0000
0000
0000
0070
0088
0088
0088
0088
ENDCHAR

STARTCHAR pow2
ENCODING 198
SWIDTH 864 0
DWIDTH 9 0
BBX 9 9 0 -1
BITMAP
0070
0088
0010
0020
00F8
0000
0000
0000
0000
ENDCHAR

STARTCHAR pow3
ENCODING 199
SWIDTH 864 0
DWIDTH 9 0
BBX 9 9 0 -1
BITMAP
00F0
0008
0030
0008
00F0
0000
0000
0000
0000
ENDCHAR

STARTCHAR pow4
ENCODING 200
SWIDTH 864 0
DWIDTH 9 0
BBX 9 9 0 -1
BITMAP
0088
0088
00F8
0008
0008
0000
0000
0000
0000
ENDCHAR

STARTCHAR powx
ENCODING 201
SWIDTH 864 0
DWIDTH 9 0
BBX 9 9 0 -1
BITMAP
0088
0050
0020
0050
0088
0000
0000
0000
0000
ENDCHAR

STARTCHAR powy
ENCODING 202
SWIDTH 864 0
DWIDTH 9 0
BBX 9 9 0 -1
BITMAP
0088
0088
0070
0020
0020
0000
0000
0000
0000
ENDCHAR

STARTCHAR sci-note
ENCODING 203
SWIDTH 864 0
DWIDTH 9 0
BBX 9 9 0 -1
BITMAP
0000
0000
0000
0000
0044
0028
0010
0028
0044
ENDCHAR

STARTCHAR degree
ENCODING 204
SWIDTH 864 0
DWIDTH 9 0
BBX 9 9 0 -1
BITMAP
0070
0088
0088
0088
0070
0000
0000
0000
0000
ENDCHAR

STARTCHAR radian
ENCODING 205
SWIDTH 864 0
DWIDTH 9 0
BBX 9 9 0 -1
BITMAP
0070
0088
0080
0080
0080
0000
0000
0000
0000
ENDCHAR

STARTCHAR sqrt
ENCODING 206
SWIDTH 864 0
DWIDTH 9 0
BBX 9 9 0 -1
BITMAP
0070
0040
0140
00C0
0040
0000
0000
0000
0000
ENDCHAR

STARTCHAR hugedot
ENCODING 207
SWIDTH 864 0
DWIDTH 9 0
BBX 9 9 0 -1
BITMAP
0000
0000
0038
007C
007C
007C
0038
0000
0000
ENDCHAR

STARTCHAR and
ENCODING 208
SWIDTH 864 0
DWIDTH 9 0
BBX 9 9 0 -1
BITMAP
0000
0000
0000
0000
0000
0000
0000
0000
0000
ENDCHAR

STARTCHAR or
ENCODING 209
SWIDTH 864 0
DWIDTH 9 0
BBX 9 9 0 -1
BITMAP
0000
0000
0000
0000
0000
0000
0000
0000
0000
ENDCHAR

STARTCHAR xor
ENCODING 210
SWIDTH 864 0
DWIDTH 9 0
BBX 9 9 0 -1
BITMAP
0000
0000
0000
0000
0000
0000
0000
0000
0000
ENDCHAR

STARTCHAR iff/xnor
ENCODING 211
SWIDTH 864 0
DWIDTH 9 0
BBX 9 9 0 -1
BITMAP
0000
0000
0000
0000
0000
0000
0000
0000
0000
ENDCHAR

STARTCHAR up/nand
ENCODING 212
SWIDTH 864 0
DWIDTH 9 0
BBX 9 9 0 -1
BITMAP
0000
0000
0000
0000
0000
0000
0000
0000
0000
ENDCHAR

STARTCHAR down/nor
ENCODING 213
SWIDTH 864 0
DWIDTH 9 0
BBX 9 9 0 -1
BITMAP
0000
0000
0000
0000
0000
0000
0000
0000
0000
ENDCHAR

STARTCHAR right/prove
ENCODING 214
SWIDTH 864 0
DWIDTH 9 0
BBX 9 9 0 -1
BITMAP
0000
0000
0000
0000
0000
0000
0000
0000
0000
ENDCHAR

STARTCHAR left/contrib
ENCODING 215
SWIDTH 864 0
DWIDTH 9 0
BBX 9 9 0 -1
BITMAP
0000
0000
0000
0000
0000
0000
0000
0000
0000
ENDCHAR

STARTCHAR unlikely
ENCODING 216
SWIDTH 864 0
DWIDTH 9 0
BBX 9 9 0 -1
BITMAP
0000
0000
0000
0000
0000
0000
0000
0000
0000
ENDCHAR

STARTCHAR likely
ENCODING 217
SWIDTH 864 0
DWIDTH 9 0
BBX 9 9 0 -1
BITMAP
0000
0000
0000
0000
0000
0000
0000
0000
0000
ENDCHAR

STARTCHAR false
ENCODING 218
SWIDTH 864 0
DWIDTH 9 0
BBX 9 9 0 -1
BITMAP
0000
0000
0000
0000
0000
0000
0000
0000
0000
ENDCHAR

STARTCHAR true
ENCODING 219
SWIDTH 864 0
DWIDTH 9 0
BBX 9 9 0 -1
BITMAP
0000
0000
0000
0000
0000
0000
0000
0000
0000
ENDCHAR

STARTCHAR less_or_eq
ENCODING 220
SWIDTH 864 0
DWIDTH 9 0
BBX 9 9 0 -1
BITMAP
0000
0000
0000
0000
0000
0000
0000
0000
0000
ENDCHAR

STARTCHAR great_or_eq
ENCODING 221
SWIDTH 864 0
DWIDTH 9 0
BBX 9 9 0 -1
BITMAP
0000
0000
0000
0000
0000
0000
0000
0000
0000
ENDCHAR

STARTCHAR not_eq
ENCODING 222
SWIDTH 864 0
DWIDTH 9 0
BBX 9 9 0 -1
BITMAP
0000
0000
0000
0000
0000
0000
0000
0000
0000
ENDCHAR

STARTCHAR approx
ENCODING 223
SWIDTH 864 0
DWIDTH 9 0
BBX 9 9 0 -1
BITMAP
0000
0000
0000
0000
0000
0000
0000
0000
0000
ENDCHAR

STARTCHAR equivalent
ENCODING 224
SWIDTH 864 0
DWIDTH 9 0
BBX 9 9 0 -1
BITMAP
0000
0000
0000
0000
0000
0000
0000
0000
0000
ENDCHAR

STARTCHAR pointer
ENCODING 225
SWIDTH 864 0
DWIDTH 9 0
BBX 9 9 0 -1
BITMAP
0000
0000
0000
0000
0000
0000
0000
0000
0000
ENDCHAR

STARTCHAR subset
ENCODING 226
SWIDTH 864 0
DWIDTH 9 0
BBX 9 9 0 -1
BITMAP
0000
0000
0000
0000
0000
0000
0000
0000
0000
ENDCHAR

STARTCHAR membership
ENCODING 227
SWIDTH 864 0
DWIDTH 9 0
BBX 9 9 0 -1
BITMAP
0000
0000
0000
0000
0000
0000
0000
0000
0000
ENDCHAR

STARTCHAR for_each
ENCODING 228
SWIDTH 864 0
DWIDTH 9 0
BBX 9 9 0 -1
BITMAP
0000
0000
0000
0000
0000
0000
0000
0000
0000
ENDCHAR

STARTCHAR left_gull
ENCODING 229
SWIDTH 864 0
DWIDTH 9 0
BBX 9 9 0 -1
BITMAP
0000
0000
0000
0000
0000
0000
0000
0000
0000
ENDCHAR

STARTCHAR right_gull
ENCODING 230
SWIDTH 864 0
DWIDTH 9 0
BBX 9 9 0 -1
BITMAP
0000
0000
0000
0000
0000
0000
0000
0000
0000
ENDCHAR

STARTCHAR localize
ENCODING 231
SWIDTH 864 0
DWIDTH 9 0
BBX 9 9 0 -1
BITMAP
0000
0000
0000
0000
0000
0000
0000
0000
0000
ENDCHAR

STARTCHAR alpha
ENCODING 232
SWIDTH 864 0
DWIDTH 9 0
BBX 9 9 0 -1
BITMAP
0000
0000
0000
0000
0000
0000
0000
0000
0000
ENDCHAR

STARTCHAR beta
ENCODING 233
SWIDTH 864 0
DWIDTH 9 0
BBX 9 9 0 -1
BITMAP
0000
0000
0000
0000
0000
0000
0000
0000
0000
ENDCHAR

STARTCHAR gamma
ENCODING 234
SWIDTH 864 0
DWIDTH 9 0
BBX 9 9 0 -1
BITMAP
0000
0000
0000
0000
0000
0000
0000
0000
0000
ENDCHAR

STARTCHAR delta
ENCODING 235
SWIDTH 864 0
DWIDTH 9 0
BBX 9 9 0 -1
BITMAP
0000
0000
0000
0000
0000
0000
0000
0000
0000
ENDCHAR

STARTCHAR epsilon
ENCODING 236
SWIDTH 864 0
DWIDTH 9 0
BBX 9 9 0 -1
BITMAP
0000
0000
0000
0000
0000
0000
0000
0000
0000
ENDCHAR

STARTCHAR zeta
ENCODING 237
SWIDTH 864 0
DWIDTH 9 0
BBX 9 9 0 -1
BITMAP
0000
0000
0000
0000
0000
0000
0000
0000
0000
ENDCHAR

STARTCHAR eta
ENCODING 238
SWIDTH 864 0
DWIDTH 9 0
BBX 9 9 0 -1
BITMAP
0000
0000
0000
0000
0000
0000
0000
0000
0000
ENDCHAR

STARTCHAR theta
ENCODING 239
SWIDTH 864 0
DWIDTH 9 0
BBX 9 9 0 -1
BITMAP
0000
0000
0000
0000
0000
0000
0000
0000
0000
ENDCHAR

STARTCHAR iota
ENCODING 240
SWIDTH 864 0
DWIDTH 9 0
BBX 9 9 0 -1
BITMAP
0000
0000
0000
0000
0000
0000
0000
0000
0000
ENDCHAR

STARTCHAR kappa
ENCODING 241
SWIDTH 864 0
DWIDTH 9 0
BBX 9 9 0 -1
BITMAP
0000
0000
0000
0000
0000
0000
0000
0000
0000
ENDCHAR

STARTCHAR lambda
ENCODING 242
SWIDTH 864 0
DWIDTH 9 0
BBX 9 9 0 -1
BITMAP
0000
0000
0000
0000
0000
0000
0000
0000
0000
ENDCHAR

STARTCHAR mu
ENCODING 243
SWIDTH 864 0
DWIDTH 9 0
BBX 9 9 0 -1
BITMAP
0000
0000
0000
0000
0000
0000
0000
0000
0000
ENDCHAR

STARTCHAR nu
ENCODING 244
SWIDTH 864 0
DWIDTH 9 0
BBX 9 9 0 -1
BITMAP
0000
0000
0000
0000
0000
0000
0000
0000
0000
ENDCHAR

STARTCHAR xi
ENCODING 245
SWIDTH 864 0
DWIDTH 9 0
BBX 9 9 0 -1
BITMAP
0000
0000
0000
0000
0000
0000
0000
0000
0000
ENDCHAR

STARTCHAR omicron
ENCODING 246
SWIDTH 864 0
DWIDTH 9 0
BBX 9 9 0 -1
BITMAP
0000
0000
0000
0000
0000
0000
0000
0000
0000
ENDCHAR

STARTCHAR pi
ENCODING 247
SWIDTH 864 0
DWIDTH 9 0
BBX 9 9 0 -1
BITMAP
0000
0000
0000
0000
0000
0000
0000
0000
0000
ENDCHAR

STARTCHAR rho
ENCODING 248
SWIDTH 864 0
DWIDTH 9 0
BBX 9 9 0 -1
BITMAP
0000
0000
0000
0000
0000
0000
0000
0000
0000
ENDCHAR

STARTCHAR sigma
ENCODING 249
SWIDTH 864 0
DWIDTH 9 0
BBX 9 9 0 -1
BITMAP
0000
0000
0000
0000
0000
0000
0000
0000
0000
ENDCHAR

STARTCHAR tau
ENCODING 250
SWIDTH 864 0
DWIDTH 9 0
BBX 9 9 0 -1
BITMAP
0000
0000
0000
0000
0000
0000
0000
0000
0000
ENDCHAR

STARTCHAR upsilon
ENCODING 251
SWIDTH 864 0
DWIDTH 9 0
BBX 9 9 0 -1
BITMAP
0000
0000
0000
0000
0000
0000
0000
0000
0000
ENDCHAR

STARTCHAR phi
ENCODING 252
SWIDTH 864 0
DWIDTH 9 0
BBX 9 9 0 -1
BITMAP
0000
0000
0000
0000
0000
0000
0000
0000
0000
ENDCHAR

STARTCHAR chi
ENCODING 253
SWIDTH 864 0
DWIDTH 9 0
BBX 9 9 0 -1
BITMAP
0000
0000
0000
0000
0000
0000
0000
0000
0000
ENDCHAR

STARTCHAR psi
ENCODING 254
SWIDTH 864 0
DWIDTH 9 0
BBX 9 9 0 -1
BITMAP
0000
0000
0000
0000
0000
0000
0000
0000
0000
ENDCHAR

STARTCHAR omega
ENCODING 255
SWIDTH 864 0
DWIDTH 9 0
BBX 9 9 0 -1
BITMAP
0000
0000
0000
0000
0000
0000
0000
0000
0000
ENDCHAR

ENDFONT
